<svg width="45" height="45" viewBox="0 0 45 45" fill="none" xmlns="http://www.w3.org/2000/svg">
<path d="M22.0498 43.05C33.6477 43.05 43.0498 33.6479 43.0498 22.05C43.0498 10.4521 33.6477 1.05005 22.0498 1.05005C10.4518 1.05005 1.0498 10.4521 1.0498 22.05C1.0498 33.6479 10.4518 43.05 22.0498 43.05Z" stroke="black" stroke-width="2.1" stroke-linecap="round" stroke-linejoin="round"/>
<path d="M11.5498 15.75L22.0498 17.85M22.0498 17.85L32.5498 15.75M22.0498 17.85V24.15M22.0498 24.15L17.8498 34.65M22.0498 24.15L26.2498 34.65" stroke="black" stroke-width="2.1" stroke-linecap="round" stroke-linejoin="round"/>
<path d="M22.05 11.5501C21.4702 11.5501 21 11.08 21 10.5001C21 9.92018 21.4702 9.45007 22.05 9.45007C22.6298 9.45007 23.1 9.92018 23.1 10.5001C23.1 11.08 22.6298 11.5501 22.05 11.5501Z" fill="black" stroke="black" stroke-width="2.1" stroke-linecap="round" stroke-linejoin="round"/>
</svg>
