<svg width="458" height="89" viewBox="0 0 458 89" fill="none" xmlns="http://www.w3.org/2000/svg">
<path d="M19.59 74.1405L23.9169 73.1032V55.2322C23.9169 53.9875 23.6897 52.9304 23.2353 52.0611C22.7809 51.1917 22.0795 50.5397 21.1311 50.105C20.2025 49.6704 19.017 49.453 17.5747 49.453C16.0138 49.453 14.5319 49.6802 13.1291 50.1347C11.7461 50.5891 10.6396 51.0929 9.8098 51.6462L9.21706 50.9349C10.6594 49.7889 11.9239 48.8504 13.0106 48.1194C14.0973 47.3686 15.0852 46.7857 15.9743 46.3708C16.8634 45.9559 17.7228 45.6694 18.5527 45.5113C19.3825 45.3533 20.2617 45.2742 21.1904 45.2742C23.9762 45.2742 25.9915 46.0448 27.2363 47.5859C28.481 49.127 29.1034 51.577 29.1034 54.9358V73.1032L33.4304 74.1405V75H19.59V74.1405ZM14.7295 75H0.918743V74.1405L5.21609 73.1032V36.7092C4.95923 36.5511 4.60359 36.3535 4.14916 36.1164C3.69473 35.8793 3.15139 35.6126 2.51913 35.3162C1.90664 35.0199 1.21511 34.6939 0.444553 34.3382V33.8048L10.2544 31.4635H10.4914L10.4025 46.7264V73.1032L14.7295 74.1405V75ZM54.3345 56.1213L54.6902 57.5735C52.0031 58.3638 49.8199 59.1245 48.1404 59.8556C46.4808 60.5866 45.2064 61.3275 44.3173 62.0783C43.4282 62.8094 42.8157 63.5799 42.4798 64.39C42.1439 65.2001 41.976 66.0991 41.976 67.087C41.976 68.7071 42.4502 69.9321 43.3985 70.7619C44.3469 71.572 45.5028 71.977 46.8661 71.977C47.9527 71.977 48.911 71.7498 49.7408 71.2954C50.5707 70.841 51.2227 70.1988 51.6969 69.369C52.1908 68.5194 52.4378 67.5216 52.4378 66.3757V53.454C52.4378 51.5572 51.9636 50.1149 51.0152 49.127C50.0866 48.1194 48.6443 47.6155 46.6882 47.6155C45.8189 47.6155 44.9199 47.6946 43.9913 47.8526C43.0627 48.0107 42.302 48.2379 41.7092 48.5343L43.2504 47.3192C43.1911 48.0107 43.1022 48.722 42.9836 49.453C42.8651 50.1643 42.707 50.8163 42.5094 51.4091C42.3316 51.982 42.1242 52.4266 41.8871 52.7427C41.6105 53.0588 41.2153 53.3058 40.7016 53.4836C40.1879 53.6417 39.6643 53.7207 39.1308 53.7207C38.4591 53.7207 37.9157 53.5824 37.5008 53.3058C37.0859 53.0095 36.8784 52.5748 36.8784 52.0018C36.8784 51.2312 37.2538 50.4508 38.0046 49.6605C38.7554 48.8702 39.7236 48.149 40.909 47.497C42.1143 46.845 43.4084 46.3214 44.7915 45.9262C46.1943 45.5311 47.5477 45.3335 48.8517 45.3335C50.9658 45.3335 52.665 45.6496 53.9493 46.2819C55.2335 46.8944 56.1621 47.7736 56.7351 48.9196C57.3279 50.0458 57.6242 51.3893 57.6242 52.9502V69.5765C57.6242 70.2087 57.723 70.7224 57.9206 71.1176C58.1182 71.5127 58.3948 71.8091 58.7504 72.0067C59.1258 72.1845 59.5605 72.2734 60.0545 72.2734C60.667 72.2734 61.2893 72.1746 61.9216 71.977C62.5538 71.7597 63.196 71.4238 63.848 70.9694V71.9178C62.544 73.4589 61.3486 74.4567 60.2619 74.9111C59.195 75.3655 58.1182 75.5927 57.0315 75.5927C55.9251 75.5927 55.0359 75.3458 54.3642 74.8518C53.6924 74.3381 53.1985 73.6071 52.8823 72.6587C52.586 71.7103 52.418 70.5841 52.3785 69.2801L52.4674 69.2208C52.1513 70.4458 51.6277 71.5424 50.8967 72.5105C50.1656 73.4589 49.2765 74.2097 48.2294 74.7629C47.1822 75.3161 46.0362 75.5927 44.7915 75.5927C42.46 75.5927 40.5139 74.9704 38.953 73.7256C37.3921 72.4611 36.6117 70.6335 36.6117 68.2428C36.6117 66.9783 36.829 65.862 37.2637 64.8938C37.7181 63.9059 38.5579 62.9773 39.7828 62.108C41.0276 61.2189 42.8157 60.3001 45.1471 59.3517C47.4983 58.4034 50.5608 57.3266 54.3345 56.1213ZM80.3173 45.2742C82.135 45.2742 83.6168 45.4718 84.7628 45.867C85.9285 46.2424 86.7781 46.7462 87.3116 47.3785C87.8648 47.9909 88.1414 48.6528 88.1414 49.3641C88.1414 49.9569 88.013 50.4804 87.7561 50.9349C87.519 51.3695 87.1831 51.7054 86.7485 51.9425C86.3138 52.1796 85.7902 52.2982 85.1777 52.2982C84.9209 52.2982 84.6047 52.1203 84.2293 51.7647C83.8737 51.4091 83.4588 50.9744 82.9846 50.4607C82.5302 49.947 82.0263 49.4333 81.4731 48.9196C80.9199 48.3861 80.3271 47.9416 79.6949 47.5859C79.0626 47.2303 78.3909 47.0524 77.6796 47.0524C76.3163 47.0524 75.0913 47.4476 74.0046 48.2379C72.9179 49.0282 72.0585 50.2433 71.4262 51.8833C70.794 53.5034 70.4778 55.5879 70.4778 58.1366C70.4778 61.1991 70.873 63.7281 71.6633 65.7237C72.4536 67.6995 73.6095 69.1615 75.1308 70.1099C76.6522 71.0385 78.5094 71.5029 80.7025 71.5029C82.1646 71.5029 83.5773 71.1966 84.9406 70.5841C86.3039 69.9716 87.4696 69.0529 88.4378 67.8279L88.9416 68.2724C87.8351 70.0506 86.7089 71.4831 85.563 72.5698C84.417 73.6367 83.2118 74.4073 81.9473 74.8815C80.6828 75.3556 79.3096 75.5927 77.8278 75.5927C75.4173 75.5927 73.2538 75.0198 71.3373 73.8738C69.4208 72.7278 67.9093 71.0682 66.8029 68.8948C65.6964 66.7214 65.1432 64.0936 65.1432 61.0114C65.1432 58.759 65.5087 56.6745 66.2398 54.758C66.9708 52.8415 68.0081 51.172 69.3516 49.7494C70.7149 48.3268 72.3153 47.2303 74.1528 46.4597C76.01 45.6694 78.0649 45.2742 80.3173 45.2742ZM104.235 58.2552L105.302 57.0104L120.179 73.1329L123.588 74.1405V75H109.777V74.1405L113.689 73.2218L101.36 59.8556H99.4928V58.2552H101.893L114.341 47.8526L110.103 46.9043V45.867H121.365V46.9043L117.127 47.9119L104.235 58.2552ZM100.471 73.1032L104.798 74.1405V75H90.987V74.1405L95.2843 73.1032V36.7092C95.0275 36.5511 94.6718 36.3535 94.2174 36.1164C93.763 35.8793 93.2196 35.6126 92.5874 35.3162C91.9749 35.0199 91.2834 34.6939 90.5128 34.3382V33.8048L100.323 31.4635H100.56L100.471 36.2943V73.1032ZM143.323 48.9492L142.108 49.4234L136.833 48.3861V47.4674L142.494 45.7484L143.916 45.867H156.215L155.741 48.9492H143.323ZM147.087 73.1032L151.977 74.1405V75H137.455V74.1405L141.753 73.1032V45.8077C141.753 43.5751 142.138 41.5696 142.908 39.7914C143.679 38.0132 144.736 36.5116 146.08 35.2866C147.423 34.0419 148.964 33.0935 150.703 32.4415C152.461 31.7895 154.329 31.4635 156.304 31.4635C157.391 31.4635 158.32 31.5622 159.09 31.7598C159.88 31.9376 160.532 32.1846 161.046 32.5008C161.58 32.8169 161.975 33.1923 162.232 33.627C162.489 34.0419 162.617 34.4864 162.617 34.9606C162.617 35.6917 162.37 36.3338 161.876 36.887C161.402 37.4402 160.779 37.7168 160.009 37.7168C159.713 37.7168 159.308 37.5193 158.794 37.1241C158.3 36.7092 157.727 36.2449 157.075 35.7312C156.423 35.1977 155.702 34.7334 154.911 34.3382C154.121 33.9431 153.271 33.7455 152.363 33.7455C151.236 33.7455 150.278 34.0023 149.488 34.5161C148.717 35.0298 148.125 35.8398 147.71 36.9463C147.295 38.033 147.087 39.4457 147.087 41.1843V73.1032ZM171.49 74.0516C173.308 74.0516 174.849 73.5577 176.113 72.5698C177.398 71.5621 178.366 70.0605 179.018 68.065C179.689 66.0694 180.025 63.5898 180.025 60.6261C180.025 57.5834 179.699 55.0445 179.047 53.0095C178.395 50.9546 177.437 49.4036 176.173 48.3565C174.928 47.3093 173.397 46.7857 171.579 46.7857C169.761 46.7857 168.22 47.2895 166.956 48.2972C165.691 49.3048 164.723 50.8064 164.051 52.802C163.399 54.7975 163.073 57.2772 163.073 60.2408C163.073 63.244 163.399 65.7731 164.051 67.8279C164.703 69.8827 165.652 71.4337 166.896 72.4809C168.161 73.528 169.692 74.0516 171.49 74.0516ZM171.401 75.5927C168.773 75.5927 166.392 74.9506 164.259 73.6663C162.125 72.3821 160.426 70.6039 159.161 68.3317C157.916 66.0398 157.294 63.4219 157.294 60.4779C157.294 57.5143 157.936 54.8865 159.22 52.5945C160.505 50.3026 162.233 48.5145 164.407 47.2303C166.58 45.9262 169 45.2742 171.668 45.2742C174.355 45.2742 176.755 45.9164 178.87 47.2006C181.003 48.4849 182.683 50.2631 183.908 52.5353C185.153 54.7877 185.775 57.4056 185.775 60.389C185.775 63.3527 185.123 65.9805 183.819 68.2724C182.535 70.5644 180.806 72.3623 178.632 73.6663C176.459 74.9506 174.049 75.5927 171.401 75.5927ZM207.956 45.3631C208.845 45.3631 209.536 45.6101 210.03 46.1041C210.544 46.5783 210.801 47.2401 210.801 48.0897C210.801 49.0974 210.485 49.9173 209.853 50.5496C209.24 51.1621 208.43 51.4683 207.422 51.4683C206.988 51.4683 206.553 51.4091 206.118 51.2905C205.684 51.1522 205.219 51.0238 204.725 50.9052C204.231 50.7867 203.678 50.7274 203.066 50.7274C202.532 50.7274 201.999 50.8262 201.465 51.0238C200.952 51.2016 200.438 51.4585 199.924 51.7943C199.43 52.1302 198.926 52.5155 198.413 52.9502L198.265 51.7351C199.687 50.3323 200.902 49.2061 201.91 48.3565C202.918 47.5069 203.777 46.8746 204.488 46.4597C205.2 46.025 205.832 45.7385 206.385 45.6002C206.938 45.4422 207.462 45.3631 207.956 45.3631ZM198.828 50.6978V73.1032L203.599 74.1405V75H189.344V74.1405L193.641 73.1032V50.9052C193.384 50.7077 193.058 50.5002 192.663 50.2829C192.288 50.0458 191.823 49.7692 191.27 49.453C190.737 49.1369 190.105 48.7714 189.373 48.3565V47.7934L198.531 45.0075H198.768L198.828 50.6978ZM231.493 39.5247C230.287 39.5247 229.329 39.1196 228.618 38.3096C227.926 37.4995 227.58 36.5808 227.58 35.5533C227.58 34.5062 227.926 33.6171 228.618 32.886C229.329 32.1352 230.287 31.7598 231.493 31.7598C232.678 31.7598 233.607 32.1352 234.278 32.886C234.97 33.6171 235.316 34.5062 235.316 35.5533C235.316 36.5808 234.97 37.4995 234.278 38.3096C233.607 39.1196 232.678 39.5247 231.493 39.5247ZM234.545 45.0075L234.516 50.5496V73.1032L238.842 74.1405V75H225.032V74.1405L229.329 73.1032V50.8163C229.112 50.6583 228.776 50.4409 228.321 50.1643C227.887 49.8877 227.383 49.5815 226.81 49.2456C226.257 48.9097 225.674 48.5738 225.061 48.2379V47.6155L234.338 45.0075H234.545ZM250.692 50.6978V73.1032L254.96 74.1405V75H241.208V74.1405L245.506 73.1032V50.9052C245.19 50.6681 244.735 50.3718 244.142 50.0161C243.55 49.6605 242.582 49.1073 241.238 48.3565V47.7934L250.248 45.0075H250.485L250.692 50.6978ZM268.208 53.8986V73.1032L272.446 74.1405V75H258.753V74.1405L263.021 73.1032V54.7877C263.021 53.6022 262.804 52.6143 262.369 51.824C261.934 51.0337 261.282 50.4409 260.413 50.0458C259.563 49.6506 258.477 49.453 257.153 49.453C255.77 49.453 254.426 49.6605 253.122 50.0754C251.838 50.4903 250.811 50.9546 250.04 51.4683L249.507 50.6089C250.85 49.5222 252.036 48.6331 253.063 47.9416C254.09 47.25 255.019 46.7067 255.849 46.3115C256.679 45.9164 257.479 45.6496 258.25 45.5113C259.04 45.3533 259.87 45.2742 260.739 45.2742C262.517 45.2742 263.95 45.6002 265.036 46.2523C266.123 46.9043 266.923 47.8724 267.437 49.1567C267.951 50.4212 268.208 52.0018 268.208 53.8986ZM285.723 54.3135V73.1032L290.05 74.1405V75H276.269V74.1405L280.536 73.1032V54.7877C280.536 53.6022 280.319 52.6143 279.884 51.824C279.45 51.0337 278.798 50.4409 277.928 50.0458C277.079 49.6506 275.992 49.453 274.668 49.453C273.285 49.453 271.942 49.6605 270.638 50.0754C269.353 50.4903 268.326 50.9546 267.555 51.4683L267.022 50.6089C268.366 49.5222 269.551 48.6331 270.578 47.9416C271.606 47.25 272.534 46.7067 273.364 46.3115C274.194 45.9164 274.994 45.6496 275.765 45.5113C276.555 45.3533 277.385 45.2742 278.254 45.2742C280.902 45.2742 282.809 46.0053 283.974 47.4674C285.14 48.9294 285.723 51.2115 285.723 54.3135ZM317.455 61.13C317.455 57.1191 316.675 54.1159 315.114 52.1203C313.553 50.1248 311.291 49.127 308.327 49.127C307.221 49.127 306.154 49.2456 305.126 49.4827C304.119 49.7198 303.15 50.0952 302.222 50.6089C301.293 51.1226 300.404 51.8141 299.555 52.6834L299.199 51.7351C300.463 50.4903 301.639 49.453 302.726 48.6232C303.812 47.7934 304.83 47.1315 305.778 46.6375C306.727 46.1436 307.626 45.7978 308.475 45.6002C309.325 45.3829 310.135 45.2742 310.905 45.2742C313.474 45.2742 315.657 45.8472 317.455 46.9932C319.273 48.1391 320.656 49.7395 321.604 51.7943C322.572 53.8492 323.057 56.2497 323.057 58.9961C323.057 62.4537 322.385 65.4273 321.041 67.9168C319.698 70.3865 317.84 72.2833 315.47 73.6071C313.118 74.9308 310.431 75.5927 307.408 75.5927C306.322 75.5927 305.215 75.5038 304.089 75.326C302.963 75.1679 301.846 74.921 300.74 74.5851C299.653 74.2294 298.616 73.775 297.628 73.2218H301.244V86.7658L306.134 87.7735V88.633H291.76V87.7735L296.057 86.7658V50.9052C295.801 50.7077 295.475 50.5002 295.079 50.2829C294.704 50.0458 294.24 49.7692 293.686 49.453C293.153 49.1369 292.521 48.7714 291.79 48.3565V47.7934L300.799 45.0075H301.036L301.244 49.5716V67.4722C301.244 68.717 301.56 69.8333 302.192 70.8212C302.824 71.7893 303.694 72.55 304.8 73.1032C305.926 73.6565 307.191 73.9331 308.594 73.9331C310.471 73.9331 312.071 73.4391 313.395 72.4512C314.719 71.4436 315.726 69.9815 316.418 68.065C317.109 66.1485 317.455 63.8368 317.455 61.13ZM345.493 56.1213L345.849 57.5735C343.162 58.3638 340.979 59.1245 339.299 59.8556C337.64 60.5866 336.365 61.3275 335.476 62.0783C334.587 62.8094 333.975 63.5799 333.639 64.39C333.303 65.2001 333.135 66.0991 333.135 67.087C333.135 68.7071 333.609 69.9321 334.557 70.7619C335.506 71.572 336.662 71.977 338.025 71.977C339.112 71.977 340.07 71.7498 340.9 71.2954C341.73 70.841 342.382 70.1988 342.856 69.369C343.35 68.5194 343.597 67.5216 343.597 66.3757V53.454C343.597 51.5572 343.123 50.1149 342.174 49.127C341.246 48.1194 339.803 47.6155 337.847 47.6155C336.978 47.6155 336.079 47.6946 335.15 47.8526C334.222 48.0107 333.461 48.2379 332.868 48.5343L334.409 47.3192C334.35 48.0107 334.261 48.722 334.143 49.453C334.024 50.1643 333.866 50.8163 333.668 51.4091C333.491 51.982 333.283 52.4266 333.046 52.7427C332.769 53.0588 332.374 53.3058 331.861 53.4836C331.347 53.6417 330.823 53.7207 330.29 53.7207C329.618 53.7207 329.075 53.5824 328.66 53.3058C328.245 53.0095 328.037 52.5748 328.037 52.0018C328.037 51.2312 328.413 50.4508 329.164 49.6605C329.914 48.8702 330.883 48.149 332.068 47.497C333.273 46.845 334.567 46.3214 335.95 45.9262C337.353 45.5311 338.707 45.3335 340.011 45.3335C342.125 45.3335 343.824 45.6496 345.108 46.2819C346.392 46.8944 347.321 47.7736 347.894 48.9196C348.487 50.0458 348.783 51.3893 348.783 52.9502V69.5765C348.783 70.2087 348.882 70.7224 349.08 71.1176C349.277 71.5127 349.554 71.8091 349.909 72.0067C350.285 72.1845 350.719 72.2734 351.213 72.2734C351.826 72.2734 352.448 72.1746 353.081 71.977C353.713 71.7597 354.355 71.4238 355.007 70.9694V71.9178C353.703 73.4589 352.508 74.4567 351.421 74.9111C350.354 75.3655 349.277 75.5927 348.19 75.5927C347.084 75.5927 346.195 75.3458 345.523 74.8518C344.851 74.3381 344.357 73.6071 344.041 72.6587C343.745 71.7103 343.577 70.5841 343.537 69.2801L343.626 69.2208C343.31 70.4458 342.787 71.5424 342.056 72.5105C341.325 73.4589 340.435 74.2097 339.388 74.7629C338.341 75.3161 337.195 75.5927 335.95 75.5927C333.619 75.5927 331.673 74.9704 330.112 73.7256C328.551 72.4611 327.771 70.6335 327.771 68.2428C327.771 66.9783 327.988 65.862 328.423 64.8938C328.877 63.9059 329.717 62.9773 330.942 62.108C332.187 61.2189 333.975 60.3001 336.306 59.3517C338.657 58.4034 341.72 57.3266 345.493 56.1213ZM371.476 45.2742C373.294 45.2742 374.776 45.4718 375.922 45.867C377.087 46.2424 377.937 46.7462 378.471 47.3785C379.024 47.9909 379.3 48.6528 379.3 49.3641C379.3 49.9569 379.172 50.4804 378.915 50.9349C378.678 51.3695 378.342 51.7054 377.907 51.9425C377.473 52.1796 376.949 52.2982 376.337 52.2982C376.08 52.2982 375.764 52.1203 375.388 51.7647C375.033 51.4091 374.618 50.9744 374.144 50.4607C373.689 49.947 373.185 49.4333 372.632 48.9196C372.079 48.3861 371.486 47.9416 370.854 47.5859C370.222 47.2303 369.55 47.0524 368.839 47.0524C367.475 47.0524 366.25 47.4476 365.164 48.2379C364.077 49.0282 363.217 50.2433 362.585 51.8833C361.953 53.5034 361.637 55.5879 361.637 58.1366C361.637 61.1991 362.032 63.7281 362.822 65.7237C363.613 67.6995 364.768 69.1615 366.29 70.1099C367.811 71.0385 369.668 71.5029 371.861 71.5029C373.324 71.5029 374.736 71.1966 376.1 70.5841C377.463 69.9716 378.629 69.0529 379.597 67.8279L380.101 68.2724C378.994 70.0506 377.868 71.4831 376.722 72.5698C375.576 73.6367 374.371 74.4073 373.106 74.8815C371.842 75.3556 370.469 75.5927 368.987 75.5927C366.576 75.5927 364.413 75.0198 362.496 73.8738C360.58 72.7278 359.068 71.0682 357.962 68.8948C356.855 66.7214 356.302 64.0936 356.302 61.0114C356.302 58.759 356.668 56.6745 357.399 54.758C358.13 52.8415 359.167 51.172 360.511 49.7494C361.874 48.3268 363.474 47.2303 365.312 46.4597C367.169 45.6694 369.224 45.2742 371.476 45.2742ZM391.304 67.3833C391.304 68.8257 391.748 69.9123 392.637 70.6434C393.546 71.3547 394.742 71.7103 396.223 71.7103C397.053 71.7103 397.923 71.6313 398.831 71.4732C399.76 71.3152 400.817 71.0583 402.003 70.7027V71.6807C400.323 72.6883 398.95 73.4786 397.883 74.0516C396.816 74.6246 395.888 75.0198 395.097 75.2371C394.327 75.4742 393.517 75.5927 392.667 75.5927C391.501 75.5927 390.425 75.3458 389.437 74.8518C388.449 74.3381 387.649 73.5379 387.036 72.4512C386.424 71.3645 386.117 69.9519 386.117 68.2132V49.6901L382.502 47.4081V46.9635C382.758 46.7857 383.084 46.5684 383.48 46.3115C383.875 46.0349 384.329 45.7188 384.843 45.3631C385.376 45.0075 385.959 44.6222 386.591 44.2073C387.224 43.7726 387.895 43.3182 388.607 42.844C389.338 42.3501 390.099 41.8364 390.889 41.3029H391.304V46.8746V67.3833ZM389.526 48.9492V45.867H401.173L400.699 48.9492H389.526Z" fill="#10100F"/>
<path d="M452.375 0C455.482 0 458 2.5184 458 5.625V75H455.818V72.6562C455.536 63.9441 453.685 55.3421 450.34 47.2656C446.695 38.4652 441.345 30.4547 434.588 23.6973C427.83 16.9394 419.796 11.5687 410.942 7.90137C402.748 4.50728 394.004 2.63705 385.143 2.37695H383V0H452.375Z" fill="#10100F"/>
</svg>
