<svg width="489" height="66" viewBox="0 0 489 66" fill="none" xmlns="http://www.w3.org/2000/svg">
<path d="M0 5.59174C1.88721 5.59174 3.75258 5.68517 5.59174 5.86777V55.9174H55.6411C55.8237 57.7565 55.9174 59.6219 55.9174 61.5091H0V5.59174ZM61.5091 55.9174H55.6411C53.0181 29.4997 32.0094 8.49068 5.59174 5.86777V0H61.5091V55.9174Z" fill="#10100F"/>
<path d="M96.969 50.3765L101.405 49.3131V30.9926C101.405 29.7166 101.172 28.6329 100.706 27.7417C100.24 26.8505 99.5212 26.1821 98.5489 25.7365C97.597 25.2909 96.3817 25.0681 94.9031 25.0681C93.3029 25.0681 91.7838 25.301 90.3457 25.7669C88.9279 26.2327 87.7936 26.7492 86.9429 27.3164L86.3353 26.5872C87.8139 25.4124 89.1102 24.4503 90.2242 23.7009C91.3382 22.9312 92.3509 22.3337 93.2624 21.9083C94.1739 21.483 95.055 21.1893 95.9057 21.0272C96.7564 20.8652 97.6577 20.7842 98.6097 20.7842C101.466 20.7842 103.532 21.5741 104.808 23.154C106.084 24.7339 106.722 27.2455 106.722 30.6888V49.3131L111.158 50.3765V51.2576H96.969V50.3765ZM91.9864 51.2576H77.8282V50.3765L82.2337 49.3131V12.0037C81.9703 11.8416 81.6058 11.6391 81.1399 11.396C80.674 11.153 80.117 10.8795 79.4689 10.5757C78.841 10.2719 78.132 9.93769 77.3421 9.5731V9.02622L87.3986 6.62602H87.6417L87.5505 22.2729V49.3131L91.9864 50.3765V51.2576Z" fill="#10100F"/>
<path d="M132.588 31.9041L132.952 33.3928C130.197 34.203 127.959 34.9828 126.238 35.7322C124.536 36.4817 123.23 37.2412 122.318 38.0109C121.407 38.7603 120.779 39.5503 120.435 40.3807C120.09 41.2112 119.918 42.1328 119.918 43.1455C119.918 44.8064 120.404 46.0622 121.376 46.9129C122.349 47.7434 123.534 48.1586 124.931 48.1586C126.045 48.1586 127.028 47.9257 127.878 47.4598C128.729 46.9939 129.397 46.3357 129.883 45.4849C130.39 44.614 130.643 43.5911 130.643 42.4163V29.1697C130.643 27.2252 130.157 25.7466 129.185 24.7339C128.233 23.7009 126.754 23.1844 124.749 23.1844C123.858 23.1844 122.936 23.2654 121.984 23.4274C121.032 23.5895 120.252 23.8224 119.645 24.1262L121.225 22.8805C121.164 23.5895 121.073 24.3186 120.951 25.0681C120.83 25.7972 120.668 26.4656 120.465 27.0733C120.283 27.6607 120.07 28.1164 119.827 28.4405C119.543 28.7646 119.138 29.0178 118.612 29.2001C118.085 29.3621 117.548 29.4431 117.001 29.4431C116.313 29.4431 115.756 29.3013 115.33 29.0178C114.905 28.7139 114.692 28.2683 114.692 27.6809C114.692 26.891 115.077 26.0909 115.847 25.2807C116.617 24.4705 117.609 23.7312 118.824 23.0628C120.06 22.3944 121.387 21.8577 122.804 21.4526C124.243 21.0475 125.63 20.8449 126.967 20.8449C129.134 20.8449 130.876 21.169 132.193 21.8172C133.509 22.4451 134.461 23.3464 135.048 24.5212C135.656 25.6757 135.96 27.053 135.96 28.6532V45.6976C135.96 46.3458 136.061 46.8724 136.264 47.2775C136.466 47.6826 136.75 47.9864 137.114 48.189C137.499 48.3713 137.945 48.4624 138.451 48.4624C139.079 48.4624 139.717 48.3611 140.365 48.1586C141.014 47.9358 141.672 47.5915 142.34 47.1256V48.0978C141.003 49.6777 139.778 50.7006 138.664 51.1664C137.57 51.6323 136.466 51.8652 135.352 51.8652C134.218 51.8652 133.307 51.612 132.618 51.1057C131.929 50.579 131.423 49.8296 131.099 48.8574C130.795 47.8851 130.623 46.7306 130.582 45.3938L130.673 45.333C130.349 46.5888 129.813 47.713 129.063 48.7055C128.314 49.6777 127.402 50.4474 126.329 51.0145C125.255 51.5817 124.08 51.8652 122.804 51.8652C120.414 51.8652 118.419 51.2272 116.819 49.9511C115.219 48.6548 114.419 46.7813 114.419 44.3304C114.419 43.0341 114.642 41.8897 115.087 40.8972C115.553 39.8845 116.414 38.9325 117.67 38.0413C118.946 37.1298 120.779 36.188 123.169 35.2157C125.579 34.2435 128.719 33.1396 132.588 31.9041Z" fill="#10100F"/>
<path d="M159.224 20.7842C161.087 20.7842 162.606 20.9867 163.781 21.3918C164.976 21.7767 165.847 22.2931 166.394 22.9413C166.961 23.5692 167.245 24.2477 167.245 24.9769C167.245 25.5846 167.113 26.1213 166.85 26.5872C166.607 27.0328 166.262 27.3771 165.817 27.6202C165.371 27.8632 164.834 27.9848 164.206 27.9848C163.943 27.9848 163.619 27.8025 163.234 27.4379C162.87 27.0733 162.444 26.6277 161.958 26.1011C161.492 25.5744 160.976 25.0478 160.409 24.5212C159.842 23.9743 159.234 23.5186 158.586 23.154C157.938 22.7894 157.249 22.6071 156.52 22.6071C155.122 22.6071 153.866 23.0122 152.752 23.8224C151.638 24.6326 150.757 25.8783 150.109 27.5594C149.461 29.2203 149.137 31.3572 149.137 33.9701C149.137 37.1096 149.542 39.7022 150.352 41.7479C151.162 43.7734 152.347 45.2723 153.907 46.2445C155.466 47.1965 157.37 47.6725 159.619 47.6725C161.118 47.6725 162.566 47.3585 163.963 46.7306C165.361 46.1027 166.556 45.1609 167.548 43.9051L168.065 44.3608C166.931 46.1837 165.776 47.6522 164.601 48.7662C163.427 49.86 162.191 50.6499 160.895 51.1361C159.598 51.6222 158.191 51.8652 156.672 51.8652C154.201 51.8652 151.983 51.2778 150.018 50.1031C148.053 48.9283 146.504 47.2269 145.369 44.9988C144.235 42.7708 143.668 40.0769 143.668 36.9171C143.668 34.6081 144.043 32.4712 144.792 30.5065C145.542 28.5418 146.605 26.8302 147.982 25.3719C149.38 23.9135 151.021 22.7894 152.904 21.9995C154.808 21.1893 156.915 20.7842 159.224 20.7842Z" fill="#10100F"/>
<path d="M183.743 34.0916L184.836 32.8155L200.088 49.3435L203.582 50.3765V51.2576H189.424V50.3765L193.435 49.4346L180.796 35.7322H178.882V34.0916H181.343L194.103 23.4274L189.758 22.4552V21.3918H201.304V22.4552L196.959 23.4882L183.743 34.0916ZM179.884 49.3131L184.32 50.3765V51.2576H170.162V50.3765L174.567 49.3131V12.0037C174.304 11.8416 173.939 11.6391 173.473 11.396C173.008 11.153 172.451 10.8795 171.802 10.5757C171.175 10.2719 170.466 9.93769 169.676 9.5731V9.02622L179.732 6.62602H179.975L179.884 11.5783V49.3131Z" fill="#10100F"/>
<path d="M223.815 24.5516L222.569 25.0377L217.161 23.9743V23.0325L222.964 21.2703L224.422 21.3918H237.031L236.545 24.5516H223.815ZM227.673 49.3131L232.686 50.3765V51.2576H217.799V50.3765L222.204 49.3131V21.331C222.204 19.0422 222.599 16.9864 223.389 15.1634C224.179 13.3405 225.263 11.8011 226.64 10.5453C228.017 9.26928 229.597 8.29705 231.38 7.62864C233.182 6.96023 235.096 6.62602 237.122 6.62602C238.236 6.62602 239.188 6.7273 239.978 6.92985C240.788 7.11214 241.457 7.36533 241.983 7.68941C242.53 8.01348 242.935 8.39832 243.198 8.84393C243.462 9.26928 243.593 9.72502 243.593 10.2111C243.593 10.9606 243.34 11.6188 242.834 12.186C242.348 12.7531 241.71 13.0367 240.92 13.0367C240.616 13.0367 240.201 12.8341 239.674 12.429C239.168 12.0037 238.58 11.5277 237.912 11.0011C237.244 10.4542 236.504 9.9782 235.694 9.5731C234.884 9.16801 234.013 8.96546 233.081 8.96546C231.927 8.96546 230.944 9.22877 230.134 9.7554C229.344 10.282 228.736 11.1125 228.311 12.2467C227.886 13.3608 227.673 14.809 227.673 16.5914V49.3131Z" fill="#10100F"/>
<path d="M252.69 50.2853C254.553 50.2853 256.133 49.779 257.429 48.7662C258.746 47.7332 259.738 46.1939 260.407 44.1481C261.095 42.1024 261.44 39.5604 261.44 36.5222C261.44 33.4029 261.105 30.8002 260.437 28.7139C259.769 26.6074 258.786 25.0174 257.49 23.9439C256.214 22.8704 254.644 22.3337 252.781 22.3337C250.917 22.3337 249.337 22.8502 248.041 23.8832C246.745 24.9162 245.752 26.4555 245.064 28.5013C244.395 30.547 244.061 33.089 244.061 36.1272C244.061 39.2059 244.395 41.7986 245.064 43.9051C245.732 46.0116 246.704 47.6016 247.98 48.6751C249.277 49.7486 250.846 50.2853 252.69 50.2853ZM252.598 51.8652C249.905 51.8652 247.464 51.2069 245.276 49.8904C243.089 48.5738 241.347 46.7509 240.051 44.4216C238.774 42.072 238.136 39.3882 238.136 36.3703C238.136 33.332 238.795 30.6381 240.111 28.2886C241.428 25.939 243.2 24.106 245.428 22.7894C247.656 21.4526 250.137 20.7842 252.872 20.7842C255.627 20.7842 258.087 21.4424 260.255 22.759C262.442 24.0756 264.164 25.8985 265.42 28.2278C266.696 30.5369 267.334 33.2206 267.334 36.2791C267.334 39.3173 266.665 42.0112 265.329 44.3608C264.012 46.7104 262.24 48.5536 260.012 49.8904C257.784 51.2069 255.313 51.8652 252.598 51.8652Z" fill="#10100F"/>
<path d="M290.073 20.8753C290.984 20.8753 291.693 21.1285 292.199 21.6349C292.726 22.121 292.989 22.7995 292.989 23.6705C292.989 24.7035 292.665 25.5441 292.017 26.1922C291.389 26.8201 290.559 27.1341 289.526 27.1341C289.08 27.1341 288.635 27.0733 288.189 26.9518C287.743 26.81 287.267 26.6783 286.761 26.5568C286.255 26.4353 285.687 26.3745 285.06 26.3745C284.513 26.3745 283.966 26.4758 283.419 26.6783C282.892 26.8606 282.366 27.1239 281.839 27.4683C281.333 27.8126 280.816 28.2076 280.289 28.6532L280.138 27.4075C281.596 25.9694 282.842 24.8149 283.875 23.9439C284.908 23.073 285.789 22.4248 286.518 21.9995C287.247 21.5538 287.895 21.2602 288.462 21.1184C289.029 20.9563 289.566 20.8753 290.073 20.8753ZM280.715 26.3441V49.3131L285.606 50.3765V51.2576H270.993V50.3765L275.398 49.3131V26.5568C275.135 26.3542 274.8 26.1416 274.395 25.9188C274.01 25.6757 273.534 25.3921 272.967 25.0681C272.42 24.744 271.772 24.3693 271.023 23.9439V23.3667L280.411 20.5107H280.654L280.715 26.3441Z" fill="#10100F"/>
<path d="M314.201 14.89C312.966 14.89 311.983 14.4748 311.254 13.6443C310.545 12.8139 310.191 11.872 310.191 10.8188C310.191 9.74527 310.545 8.8338 311.254 8.08437C311.983 7.31469 312.966 6.92985 314.201 6.92985C315.417 6.92985 316.369 7.31469 317.057 8.08437C317.766 8.8338 318.121 9.74527 318.121 10.8188C318.121 11.872 317.766 12.8139 317.057 13.6443C316.369 14.4748 315.417 14.89 314.201 14.89ZM317.331 20.5107L317.3 26.1922V49.3131L321.736 50.3765V51.2576H307.578V50.3765L311.983 49.3131V26.4656C311.761 26.3036 311.416 26.0808 310.95 25.7972C310.505 25.5137 309.988 25.1997 309.401 24.8554C308.834 24.5111 308.236 24.1667 307.608 23.8224V23.1844L317.118 20.5107H317.331Z" fill="#10100F"/>
<path d="M333.884 26.3441V49.3131L338.259 50.3765V51.2576H324.161V50.3765L328.567 49.3131V26.5568C328.243 26.3137 327.777 26.0099 327.169 25.6453C326.562 25.2807 325.569 24.7136 324.192 23.9439V23.3667L333.428 20.5107H333.671L333.884 26.3441ZM351.84 29.6254V49.3131L356.184 50.3765V51.2576H342.148V50.3765L346.523 49.3131V30.5369C346.523 29.3216 346.3 28.3088 345.854 27.4986C345.409 26.6885 344.74 26.0808 343.849 25.6757C342.978 25.2706 341.864 25.0681 340.507 25.0681C339.089 25.0681 337.712 25.2807 336.375 25.7061C335.059 26.1314 334.005 26.6074 333.215 27.1341L332.669 26.253C334.046 25.139 335.261 24.2275 336.314 23.5186C337.368 22.8096 338.32 22.2526 339.17 21.8475C340.021 21.4424 340.841 21.169 341.631 21.0272C342.441 20.8652 343.292 20.7842 344.183 20.7842C346.006 20.7842 347.475 21.1184 348.589 21.7868C349.703 22.4552 350.523 23.4477 351.05 24.7642C351.576 26.0606 351.84 27.6809 351.84 29.6254ZM369.796 30.0508V49.3131L374.231 50.3765V51.2576H360.104V50.3765L364.479 49.3131V30.5369C364.479 29.3216 364.256 28.3088 363.81 27.4986C363.365 26.6885 362.696 26.0808 361.805 25.6757C360.934 25.2706 359.82 25.0681 358.463 25.0681C357.045 25.0681 355.668 25.2807 354.331 25.7061C353.015 26.1314 351.961 26.6074 351.171 27.1341L350.624 26.253C352.002 25.139 353.217 24.2275 354.27 23.5186C355.324 22.8096 356.276 22.2526 357.126 21.8475C357.977 21.4424 358.797 21.169 359.587 21.0272C360.397 20.8652 361.248 20.7842 362.139 20.7842C364.853 20.7842 366.808 21.5336 368.003 23.0325C369.198 24.5313 369.796 26.8707 369.796 30.0508Z" fill="#10100F"/>
<path d="M402.326 37.0387C402.326 32.9269 401.526 29.8482 399.926 27.8025C398.326 25.7567 396.007 24.7339 392.968 24.7339C391.834 24.7339 390.74 24.8554 389.687 25.0984C388.654 25.3415 387.662 25.7263 386.71 26.253C385.758 26.7796 384.846 27.4885 383.975 28.3797L383.611 27.4075C384.907 26.1314 386.112 25.0681 387.226 24.2174C388.34 23.3667 389.383 22.6881 390.355 22.1817C391.328 21.6754 392.249 21.3209 393.12 21.1184C393.991 20.8956 394.822 20.7842 395.612 20.7842C398.245 20.7842 400.483 21.3716 402.326 22.5463C404.189 23.7211 405.607 25.3618 406.58 27.4683C407.572 29.5748 408.068 32.0357 408.068 34.8512C408.068 38.3958 407.38 41.4441 406.002 43.9962C404.625 46.5281 402.721 48.4725 400.29 49.8296C397.88 51.1867 395.125 51.8652 392.026 51.8652C390.912 51.8652 389.778 51.7741 388.624 51.5918C387.469 51.4297 386.325 51.1766 385.19 50.8322C384.076 50.4676 383.013 50.0018 382 49.4346H385.707V63.3193L390.72 64.3523V65.2334H375.985V64.3523L380.39 63.3193V26.5568C380.127 26.3542 379.793 26.1416 379.387 25.9188C379.003 25.6757 378.527 25.3921 377.959 25.0681C377.413 24.744 376.764 24.3693 376.015 23.9439V23.3667L385.251 20.5107H385.494L385.707 25.1896V43.5405C385.707 44.8165 386.031 45.9609 386.679 46.9737C387.327 47.9662 388.219 48.746 389.353 49.3131C390.507 49.8803 391.804 50.1638 393.242 50.1638C395.166 50.1638 396.807 49.6574 398.164 48.6447C399.521 47.6117 400.554 46.1128 401.263 44.1481C401.972 42.1834 402.326 39.8136 402.326 37.0387Z" fill="#10100F"/>
<path d="M431.07 31.9041L431.434 33.3928C428.679 34.203 426.441 34.9828 424.72 35.7322C423.018 36.4817 421.712 37.2412 420.8 38.0109C419.889 38.7603 419.261 39.5503 418.917 40.3807C418.572 41.2112 418.4 42.1328 418.4 43.1455C418.4 44.8064 418.886 46.0622 419.859 46.9129C420.831 47.7434 422.016 48.1586 423.413 48.1586C424.527 48.1586 425.51 47.9257 426.36 47.4598C427.211 46.9939 427.879 46.3357 428.366 45.4849C428.872 44.614 429.125 43.5911 429.125 42.4163V29.1697C429.125 27.2252 428.639 25.7466 427.667 24.7339C426.715 23.7009 425.236 23.1844 423.231 23.1844C422.34 23.1844 421.418 23.2654 420.466 23.4274C419.514 23.5895 418.734 23.8224 418.127 24.1262L419.707 22.8805C419.646 23.5895 419.555 24.3186 419.433 25.0681C419.312 25.7972 419.15 26.4656 418.947 27.0733C418.765 27.6607 418.552 28.1164 418.309 28.4405C418.025 28.7646 417.62 29.0178 417.094 29.2001C416.567 29.3621 416.03 29.4431 415.483 29.4431C414.795 29.4431 414.238 29.3013 413.812 29.0178C413.387 28.7139 413.174 28.2683 413.174 27.6809C413.174 26.891 413.559 26.0909 414.329 25.2807C415.099 24.4705 416.091 23.7312 417.306 23.0628C418.542 22.3944 419.869 21.8577 421.286 21.4526C422.725 21.0475 424.112 20.8449 425.449 20.8449C427.616 20.8449 429.358 21.169 430.675 21.8172C431.991 22.4451 432.943 23.3464 433.531 24.5212C434.138 25.6757 434.442 27.053 434.442 28.6532V45.6976C434.442 46.3458 434.543 46.8724 434.746 47.2775C434.948 47.6826 435.232 47.9864 435.597 48.189C435.981 48.3713 436.427 48.4624 436.933 48.4624C437.561 48.4624 438.199 48.3611 438.847 48.1586C439.496 47.9358 440.154 47.5915 440.822 47.1256V48.0978C439.485 49.6777 438.26 50.7006 437.146 51.1664C436.052 51.6323 434.948 51.8652 433.834 51.8652C432.7 51.8652 431.789 51.612 431.1 51.1057C430.411 50.579 429.905 49.8296 429.581 48.8574C429.277 47.8851 429.105 46.7306 429.064 45.3938L429.156 45.333C428.831 46.5888 428.295 47.713 427.545 48.7055C426.796 49.6777 425.884 50.4474 424.811 51.0145C423.737 51.5817 422.563 51.8652 421.286 51.8652C418.896 51.8652 416.901 51.2272 415.301 49.9511C413.701 48.6548 412.901 46.7813 412.901 44.3304C412.901 43.0341 413.124 41.8897 413.569 40.8972C414.035 39.8845 414.896 38.9325 416.152 38.0413C417.428 37.1298 419.261 36.188 421.651 35.2157C424.061 34.2435 427.201 33.1396 431.07 31.9041Z" fill="#10100F"/>
<path d="M457.706 20.7842C459.569 20.7842 461.088 20.9867 462.263 21.3918C463.458 21.7767 464.329 22.2931 464.876 22.9413C465.443 23.5692 465.727 24.2477 465.727 24.9769C465.727 25.5846 465.595 26.1213 465.332 26.5872C465.089 27.0328 464.744 27.3771 464.299 27.6202C463.853 27.8632 463.316 27.9848 462.689 27.9848C462.425 27.9848 462.101 27.8025 461.716 27.4379C461.352 27.0733 460.926 26.6277 460.44 26.1011C459.974 25.5744 459.458 25.0478 458.891 24.5212C458.324 23.9743 457.716 23.5186 457.068 23.154C456.42 22.7894 455.731 22.6071 455.002 22.6071C453.604 22.6071 452.348 23.0122 451.234 23.8224C450.12 24.6326 449.239 25.8783 448.591 27.5594C447.943 29.2203 447.619 31.3572 447.619 33.9701C447.619 37.1096 448.024 39.7022 448.834 41.7479C449.644 43.7734 450.829 45.2723 452.389 46.2445C453.949 47.1965 455.852 47.6725 458.101 47.6725C459.6 47.6725 461.048 47.3585 462.445 46.7306C463.843 46.1027 465.038 45.1609 466.031 43.9051L466.547 44.3608C465.413 46.1837 464.258 47.6522 463.083 48.7662C461.909 49.86 460.673 50.6499 459.377 51.1361C458.081 51.6222 456.673 51.8652 455.154 51.8652C452.683 51.8652 450.465 51.2778 448.5 50.1031C446.535 48.9283 444.986 47.2269 443.851 44.9988C442.717 42.7708 442.15 40.0769 442.15 36.9171C442.15 34.6081 442.525 32.4712 443.274 30.5065C444.024 28.5418 445.087 26.8302 446.464 25.3719C447.862 23.9135 449.503 22.7894 451.386 21.9995C453.29 21.1893 455.397 20.7842 457.706 20.7842Z" fill="#10100F"/>
<path d="M478.032 43.4493C478.032 44.9279 478.488 46.042 479.399 46.7914C480.331 47.5206 481.556 47.8851 483.075 47.8851C483.926 47.8851 484.817 47.8041 485.749 47.6421C486.701 47.4801 487.785 47.2167 489 46.8522V47.8548C487.278 48.8878 485.871 49.698 484.777 50.2853C483.683 50.8727 482.731 51.2778 481.921 51.5006C481.131 51.7437 480.301 51.8652 479.43 51.8652C478.235 51.8652 477.131 51.612 476.118 51.1057C475.105 50.579 474.285 49.7587 473.657 48.6447C473.029 47.5307 472.715 46.0825 472.715 44.3V25.3111L469.008 22.9717V22.516C469.272 22.3337 469.606 22.1109 470.011 21.8475C470.416 21.564 470.882 21.2399 471.409 20.8753C471.956 20.5107 472.553 20.1158 473.201 19.6904C473.849 19.2448 474.538 18.7789 475.267 18.2928C476.017 17.7864 476.796 17.2598 477.607 16.7129H478.032V43.4493ZM476.209 24.5516V21.3918H488.149L487.663 24.5516H476.209Z" fill="#10100F"/>
</svg>
