<svg width="547" height="84" viewBox="0 0 547 84" fill="none" xmlns="http://www.w3.org/2000/svg">
<path d="M0 27.9687H4.15777V4.15777H27.9687V0H0V27.9687Z" fill="#10100F"/>
<path d="M84 56.0313H79.8422V79.8422H56.0313V84H84V56.0313Z" fill="#10100F"/>
<path d="M34.7059 69.2747C34.7553 69.2747 34.7919 69.2855 34.7847 69.2985C34.7841 69.2994 34.7861 69.3 34.7863 69.3009C34.7463 69.2909 34.7065 69.28 34.6665 69.2698C34.6785 69.2714 34.6918 69.2747 34.7059 69.2747ZM34.5197 69.223C34.5691 69.223 34.6109 69.2329 34.6116 69.2484C34.6116 69.2513 34.6137 69.2539 34.6173 69.2566C34.5653 69.2432 34.5134 69.2293 34.4615 69.2156C34.4774 69.2196 34.4978 69.223 34.5197 69.223ZM34.0136 69.0918C34.0607 69.0944 34.1479 69.1102 34.2055 69.1311C34.2631 69.152 34.3364 69.1705 34.3704 69.1705C34.4018 69.1705 34.4278 69.1811 34.4278 69.1968C34.4282 69.2025 34.4367 69.2078 34.45 69.2123C34.297 69.172 34.1443 69.1312 33.9923 69.0885C33.9989 69.0889 34.0059 69.0917 34.0136 69.0918ZM23.5415 20.5941C23.5594 20.6257 23.494 20.6983 23.4496 20.6983C23.4341 20.6984 23.4289 20.7091 23.4365 20.7245C23.4443 20.7376 23.4391 20.7508 23.4233 20.7508C23.4075 20.7511 23.3654 20.7824 23.3315 20.8189C23.2974 20.8555 23.256 20.8793 23.2429 20.8689C23.2246 20.8585 23.2218 20.8689 23.2322 20.8976C23.2453 20.9343 23.2402 20.9394 23.2035 20.9263C23.1774 20.9159 23.1643 20.9188 23.1748 20.9345C23.1851 20.9503 23.1719 20.9791 23.151 21.0026C23.1275 21.0235 23.1092 21.0336 23.1092 21.0231C23.1086 21.0135 23.0876 21.0316 23.0591 21.0601C23.0329 21.0915 22.9961 21.1175 22.9804 21.1175C22.9625 21.1176 22.9573 21.1283 22.9648 21.1437C22.9727 21.1568 22.9674 21.17 22.9517 21.17C22.9333 21.1703 22.8966 21.2016 22.868 21.2381C22.8393 21.2746 22.8004 21.2981 22.7794 21.2906C22.7559 21.2827 22.7502 21.2907 22.7605 21.3193C22.7736 21.3507 22.7657 21.3586 22.7343 21.3455C22.7032 21.3352 22.6977 21.3407 22.708 21.3718C22.7211 21.4058 22.7134 21.4111 22.6793 21.398C22.6507 21.3876 22.6401 21.3905 22.6531 21.4087C22.6714 21.4401 22.3979 21.719 22.3471 21.7204C22.329 21.7204 22.3232 21.7282 22.3307 21.736C22.3464 21.7543 22.2474 21.8564 22.1453 21.9271C22.1139 21.9481 22.0956 21.9747 22.1035 21.9878C22.1108 21.9982 22.0897 22.0083 22.0559 22.0083C22.0166 22.0083 22.0062 22.0166 22.0272 22.0297C22.0507 22.0454 22.0452 22.0609 22.0034 22.0871C21.9746 22.108 21.9354 22.1426 21.9197 22.1609C21.7415 22.3679 21.4296 22.6662 21.4087 22.6531C21.3905 22.6401 21.3876 22.6507 21.398 22.6794C21.4111 22.7134 21.4058 22.7212 21.3717 22.7081C21.3407 22.6978 21.3352 22.7032 21.3455 22.7343C21.3586 22.7658 21.3507 22.7737 21.3192 22.7606C21.2909 22.7503 21.283 22.7555 21.2905 22.7786C21.2984 22.7969 21.2486 22.8604 21.1831 22.9181C21.1177 22.9782 21.0658 23.0385 21.0658 23.0542C21.0657 23.0699 21.0521 23.0829 21.0338 23.0829C21.0184 23.083 21.0106 23.0908 21.0207 23.0985C21.0442 23.1221 20.966 23.193 20.9345 23.1748C20.9188 23.1643 20.9159 23.1774 20.9263 23.2035C20.9394 23.2375 20.932 23.2451 20.9033 23.2347C20.8799 23.2243 20.864 23.2322 20.8664 23.2503C20.8717 23.2974 20.6263 23.5588 20.5941 23.5415C20.5811 23.5337 20.5759 23.5413 20.581 23.562C20.5888 23.5803 20.5704 23.6254 20.5416 23.6621C20.5128 23.6961 20.4554 23.7642 20.4161 23.8114C20.3768 23.8612 20.3187 23.9266 20.2873 23.9607C20.2532 23.9947 20.2274 24.0316 20.2274 24.0394C20.2268 24.0478 20.1797 24.1026 20.1224 24.1625C20.0648 24.2254 20.0174 24.2832 20.0174 24.2937C20.0163 24.3028 19.9693 24.3621 19.9124 24.4242C19.855 24.4841 19.8086 24.5444 19.8082 24.5579C19.8082 24.5683 19.774 24.6132 19.7295 24.6604C19.6879 24.7046 19.6514 24.7511 19.6507 24.7621C19.6507 24.7726 19.6218 24.8124 19.5851 24.8491C19.5485 24.8857 19.5195 24.9224 19.5195 24.9303C19.519 24.9386 19.4902 24.9751 19.4539 25.0115C19.4175 25.0479 19.3893 25.0869 19.389 25.0976C19.389 25.1081 19.3548 25.1556 19.3103 25.2002C19.2684 25.2473 19.2315 25.2944 19.2315 25.3101C19.2315 25.3231 19.2185 25.3362 19.2004 25.3363C19.1847 25.3363 19.1768 25.3441 19.1873 25.3519C19.1947 25.3601 19.1789 25.3913 19.1503 25.4225C19.1241 25.4513 19.1003 25.4935 19.1003 25.5119C19.1003 25.5327 19.0897 25.5402 19.074 25.5324C19.0611 25.5249 19.0478 25.5354 19.0478 25.5562C19.0478 25.5798 19.0373 25.598 19.0215 25.598C19.0086 25.5983 18.9953 25.6166 18.9953 25.6374C18.9953 25.6584 18.9823 25.6768 18.9666 25.6768C18.9536 25.6769 18.9456 25.6877 18.9535 25.6981C18.9611 25.7112 18.9428 25.7372 18.9141 25.7555C18.888 25.7765 18.8649 25.8056 18.8649 25.8187C18.8645 25.832 18.8431 25.8601 18.8198 25.8835C18.7936 25.9071 18.7518 25.9706 18.723 26.0229C18.6967 26.0753 18.6523 26.1435 18.6262 26.1722C18.5974 26.201 18.5761 26.2378 18.5761 26.2534C18.576 26.2664 18.566 26.2796 18.5556 26.2797C18.5425 26.2797 18.5106 26.3263 18.4818 26.3839C18.4556 26.4415 18.4242 26.4889 18.4137 26.4889C18.4008 26.4891 18.3933 26.5021 18.3932 26.5176C18.3932 26.5359 18.3717 26.5678 18.3481 26.5914C18.3218 26.6152 18.2775 26.6808 18.2488 26.7383C18.2201 26.7956 18.1756 26.8605 18.152 26.8843C18.1258 26.9078 18.1044 26.9398 18.1044 26.9581C18.1044 26.9736 18.092 26.9865 18.079 26.9868C18.0634 26.9868 18.0529 26.9945 18.0552 27.0049C18.0605 27.0468 18.0179 27.1443 17.997 27.1443C17.9841 27.1446 17.9741 27.1599 17.974 27.1779C17.974 27.1871 17.9679 27.1996 17.9584 27.2124L17.8846 27.2846C17.875 27.2971 17.869 27.3095 17.869 27.3174C17.8685 27.3623 17.7828 27.5104 17.7591 27.511C17.746 27.511 17.7378 27.5347 17.7378 27.5635C17.7377 27.5922 17.7272 27.616 17.7115 27.616C17.6985 27.6162 17.6853 27.6346 17.6853 27.6554C17.6852 27.6762 17.6776 27.6939 17.6672 27.6939C17.6607 27.694 17.6498 27.7073 17.6369 27.7284L17.5515 27.8957C17.5388 27.917 17.5281 27.9302 17.5228 27.9302C17.5099 27.9304 17.5023 27.9486 17.5023 27.972C17.5023 27.9929 17.4917 28.0035 17.4761 27.9958C17.463 27.988 17.4499 28.0033 17.4498 28.0319C17.4498 28.0633 17.439 28.0877 17.4285 28.0877C17.4231 28.0883 17.4125 28.1028 17.3998 28.1262L17.3161 28.31C17.3033 28.334 17.2927 28.3492 17.2874 28.3493C17.2769 28.3493 17.2661 28.3676 17.2661 28.3912C17.2661 28.4121 17.2556 28.4228 17.2398 28.415C17.2268 28.4074 17.2136 28.4232 17.2136 28.4519C17.2135 28.4806 17.2037 28.5095 17.1906 28.52C17.1775 28.5278 17.1593 28.5692 17.1488 28.611C17.1384 28.6551 17.12 28.6891 17.1069 28.6898C17.1005 28.6898 17.0948 28.6943 17.0905 28.7013L17.0758 28.757C17.0712 28.7641 17.0646 28.7685 17.0569 28.7685C17.0438 28.7685 17.0307 28.7922 17.0307 28.821C17.0306 28.8498 17.0201 28.8735 17.0044 28.8735C16.9913 28.8735 16.9782 28.8919 16.9782 28.9129C16.9781 28.9337 16.9676 28.9523 16.9519 28.9523C16.9389 28.9523 16.9258 28.9701 16.9257 28.9908C16.9257 29.0354 16.7921 29.2999 16.7632 29.3132C16.7501 29.3184 16.7427 29.3451 16.7427 29.3739C16.7427 29.4 16.7289 29.4231 16.7132 29.4231C16.7004 29.4233 16.6925 29.4341 16.7001 29.4445C16.7079 29.4576 16.6903 29.5049 16.6615 29.5495C16.6353 29.5966 16.6115 29.6515 16.6115 29.6725C16.6114 29.6934 16.6009 29.7118 16.5852 29.7119C16.5721 29.7119 16.559 29.7379 16.559 29.7693C16.559 29.8005 16.5513 29.8162 16.5409 29.8087C16.5252 29.7904 16.4648 29.9237 16.4359 30.0441C16.4281 30.0782 16.4121 30.1048 16.399 30.1048C16.386 30.1049 16.3752 30.1284 16.3752 30.1598C16.3752 30.1886 16.3647 30.2045 16.349 30.1967C16.336 30.1891 16.3237 30.2043 16.3235 30.2328C16.3235 30.264 16.3128 30.2882 16.2973 30.2886C16.2842 30.2886 16.2711 30.3116 16.271 30.3402C16.271 30.3977 16.1406 30.6871 16.1086 30.702C16.0981 30.7072 16.0873 30.7418 16.0873 30.7758C16.0872 30.8097 16.0767 30.8382 16.061 30.8382C16.048 30.8383 16.0349 30.8566 16.0348 30.88C16.0348 30.9193 15.9824 31.0533 15.9273 31.1581C15.9143 31.1842 15.9036 31.2232 15.9035 31.2442C15.9035 31.265 15.8936 31.2833 15.8781 31.2836C15.865 31.2836 15.8519 31.3151 15.8519 31.3517C15.8519 31.3882 15.8412 31.4118 15.8256 31.4017C15.8099 31.3939 15.7994 31.4121 15.7994 31.446C15.7994 31.48 15.7809 31.5403 15.76 31.5822C15.7391 31.6213 15.7208 31.6789 15.7206 31.7052C15.7206 31.734 15.7101 31.7552 15.6944 31.7553C15.6813 31.7553 15.6682 31.7868 15.6681 31.8234C15.6681 31.8509 15.6622 31.8712 15.6525 31.875L15.6312 31.8718C15.6217 31.8758 15.6156 31.896 15.6156 31.9234C15.6155 31.96 15.6049 31.9915 15.5918 31.9915C15.5788 31.9924 15.5603 32.044 15.5524 32.1088C15.542 32.1717 15.5239 32.2322 15.5082 32.2401C15.4951 32.2506 15.4844 32.2794 15.4844 32.3082C15.4844 32.3344 15.4738 32.3582 15.4581 32.3582C15.4517 32.3586 15.4457 32.3676 15.4409 32.382L15.4253 32.4911C15.4231 32.4967 15.4202 32.5005 15.4171 32.5026L15.3958 32.5009C15.3859 32.5062 15.3802 32.5311 15.3802 32.5649C15.3802 32.6094 15.3695 32.646 15.3564 32.6461C15.3433 32.6461 15.3249 32.6988 15.317 32.7643C15.3065 32.827 15.2884 32.8876 15.2727 32.8955C15.2596 32.906 15.2489 32.9401 15.2489 32.9767C15.2489 33.0106 15.2383 33.0391 15.2227 33.0391C15.2096 33.0391 15.1964 33.0733 15.1964 33.1178C15.1964 33.1597 15.1859 33.1966 15.1702 33.1966C15.1572 33.1967 15.144 33.2226 15.1439 33.2564C15.1439 33.2903 15.1363 33.3269 15.1259 33.3377C15.1128 33.3481 15.1047 33.3667 15.1021 33.3746C15.0811 33.5161 15.0548 33.6157 15.0365 33.6157C15.0235 33.6161 15.0135 33.6502 15.0135 33.6945C15.0135 33.736 15.0028 33.7727 14.9873 33.7732C14.9742 33.7732 14.961 33.8152 14.961 33.8676C14.961 33.9087 14.955 33.937 14.9454 33.9439L14.9241 33.9422C14.9143 33.948 14.9085 33.974 14.9085 34.0136C14.9059 34.0608 14.8901 34.1479 14.8691 34.2055C14.8482 34.2631 14.8298 34.3366 14.8298 34.368C14.8297 34.4019 14.8192 34.4278 14.8035 34.4279C14.7904 34.4279 14.7773 34.4699 14.7773 34.5197C14.7772 34.5695 14.7667 34.6116 14.751 34.6116C14.7379 34.6118 14.7248 34.6537 14.7248 34.7059C14.7247 34.7556 14.714 34.7917 14.701 34.7839C14.6879 34.7776 14.6695 34.8456 14.6591 34.9389C14.6513 35.0331 14.6304 35.1138 14.6173 35.1218C14.6042 35.1323 14.5935 35.1771 14.5935 35.2268C14.5935 35.2763 14.5836 35.3235 14.5681 35.3318C14.555 35.3397 14.5418 35.3895 14.5418 35.4393C14.5418 35.4939 14.5311 35.5253 14.5156 35.5156C14.4999 35.5051 14.4893 35.5466 14.4893 35.6173C14.4893 35.6827 14.4786 35.7378 14.4655 35.7379C14.4524 35.7379 14.4342 35.8326 14.4237 35.9479C14.4133 36.0624 14.3949 36.1561 14.3819 36.1571C14.3753 36.1571 14.3698 36.1702 14.3655 36.1915L14.3507 36.3589C14.3461 36.3802 14.3397 36.3933 14.3318 36.3933C14.3188 36.3935 14.3056 36.4453 14.3056 36.5106C14.3056 36.5761 14.295 36.6287 14.2793 36.6287C14.2663 36.6292 14.2531 36.6894 14.2531 36.7625C14.2531 36.8332 14.2424 36.8884 14.2293 36.8806C14.2162 36.874 14.1979 36.9886 14.1874 37.1398C14.177 37.2917 14.1587 37.4223 14.1456 37.4302C14.1325 37.4381 14.1226 37.5013 14.1226 37.5746C14.1226 37.6448 14.1119 37.7026 14.0964 37.7034C14.0807 37.7034 14.0702 37.7763 14.0701 37.8732C14.0701 37.9458 14.0641 38.0055 14.0546 38.0307L14.0332 38.0569C14.0237 38.0822 14.0177 38.1412 14.0176 38.2136C14.0176 38.3079 14.007 38.3842 13.9939 38.3842C13.9808 38.3845 13.9625 38.5678 13.952 38.7903C13.9416 39.0117 13.9233 39.2021 13.9102 39.2119C13.8971 39.2198 13.8864 39.3434 13.8864 39.4875C13.8864 39.642 13.8759 39.7468 13.8601 39.7468C13.8445 39.7475 13.8339 39.8886 13.8339 40.1184C13.8339 40.3699 13.826 40.4801 13.8076 40.4539C13.792 40.4318 13.7814 40.9768 13.7814 42.0133C13.784 43.3439 13.7896 43.6025 13.8183 43.5645C13.8365 43.541 13.8625 43.5196 13.8757 43.5194C13.8888 43.5194 13.9781 43.5721 14.0751 43.635C14.1718 43.6978 14.2973 43.7581 14.3499 43.7687C14.4914 43.7923 15.1156 43.9755 15.3933 44.0698C16.5381 44.468 17.1693 44.8455 17.3711 45.2568C17.489 45.5004 17.5286 45.6864 17.5548 46.1501C17.5994 46.8942 17.6179 47.0121 17.7279 47.1903C17.8458 47.3788 17.9689 47.4286 18.4326 47.4757C18.849 47.5176 19.0849 47.5989 19.7894 47.9499C20.6121 48.3586 20.8219 48.4246 21.3931 48.456C22.2786 48.5058 22.7844 48.5839 23.4734 48.7751C24.4926 49.0607 25.1819 49.4517 25.4413 49.8866C25.47 49.9339 25.4774 50.0283 25.4774 50.2271C25.4748 50.4627 25.4619 50.5361 25.3913 50.7455C25.2288 51.2223 24.9903 51.6631 24.3667 52.6404C23.814 53.5022 23.7353 53.7303 23.5152 55.048C23.3685 55.9336 23.2431 56.4082 23.0099 56.961C22.6904 57.7152 22.2265 58.2961 21.9435 58.2965C21.527 58.2965 20.7041 58.8704 20.3398 59.4154C20.1592 59.685 20.1146 59.79 20.1511 59.8608C20.1694 59.8948 20.193 59.9215 20.2061 59.9215C20.2166 59.9215 20.2274 59.9346 20.2274 59.9477C20.2277 59.9636 20.2534 60.0057 20.2873 60.0396C20.3188 60.0737 20.3769 60.1392 20.4161 60.1889C20.4554 60.2361 20.5128 60.3042 20.5416 60.3382C20.5703 60.3748 20.5887 60.4191 20.581 60.4375C20.5757 60.4584 20.581 60.4666 20.5941 60.4588C20.6281 60.4379 20.8839 60.7092 20.8689 60.7516C20.8637 60.7726 20.874 60.7776 20.9001 60.7672C20.9341 60.7541 20.9394 60.7627 20.9263 60.7968C20.916 60.8226 20.919 60.8358 20.9345 60.8255C20.9502 60.815 20.9791 60.8276 21.0026 60.8484C21.0235 60.872 21.0366 60.8911 21.0289 60.8911C21.021 60.8911 21.0888 60.9697 21.1831 61.0666C21.2771 61.1659 21.3479 61.2595 21.3406 61.2783C21.3327 61.2992 21.3404 61.3044 21.3562 61.2939C21.3721 61.2836 21.4983 61.3963 21.6449 61.5482C21.7888 61.6973 21.917 61.8308 21.9304 61.8468C21.9671 61.8808 22.1373 62.0512 22.1609 62.0748C22.1714 62.0853 22.302 62.2113 22.4513 62.3554C22.6027 62.5016 22.7152 62.6268 22.7056 62.6433C22.6951 62.6589 22.7005 62.6673 22.7212 62.6597C22.7395 62.6518 22.8341 62.7221 22.9336 62.8164C23.0291 62.9093 23.1069 62.9769 23.1092 62.9714C23.1092 62.9635 23.1274 62.9767 23.151 62.9977C23.1719 63.0212 23.1852 63.0501 23.1748 63.0657C23.1645 63.0813 23.1774 63.0836 23.2035 63.0731C23.2375 63.0601 23.2453 63.0654 23.2322 63.0994C23.2218 63.1255 23.227 63.1357 23.2478 63.1306C23.2897 63.1148 23.5624 63.3721 23.5415 63.4062C23.5337 63.4192 23.5419 63.4245 23.5628 63.4193C23.5813 63.4117 23.6255 63.43 23.6621 63.4587C23.6962 63.4875 23.7643 63.5449 23.8114 63.5842C23.8611 63.6235 23.9266 63.6815 23.9607 63.713C23.9947 63.7469 24.0316 63.7729 24.0394 63.7729C24.0474 63.7731 24.0811 63.7966 24.1124 63.8278C24.1438 63.8592 24.2119 63.9142 24.2617 63.9509C24.3115 63.9902 24.3957 64.0614 24.4455 64.1059C24.4949 64.1527 24.5444 64.1916 24.5578 64.192C24.5683 64.192 24.6132 64.2289 24.6604 64.2708C24.7044 64.3148 24.751 64.3489 24.7621 64.3495C24.7726 64.3495 24.8124 64.3785 24.849 64.4152C24.8857 64.4517 24.9277 64.48 24.9434 64.48C24.9564 64.48 24.9696 64.4884 24.9696 64.4988C24.9702 64.5121 25.0144 64.5485 25.0664 64.585C25.1187 64.6215 25.1891 64.6765 25.2207 64.708C25.2547 64.7421 25.2943 64.7687 25.3101 64.7687C25.3232 64.7687 25.3363 64.7817 25.3363 64.7974C25.3364 64.8104 25.347 64.8184 25.3601 64.8105C25.3707 64.8029 25.4021 64.8187 25.4282 64.8475C25.4544 64.8761 25.491 64.8991 25.5119 64.8991C25.5327 64.8992 25.5402 64.9097 25.5324 64.9254C25.5245 64.9411 25.5353 64.9516 25.5562 64.9516C25.5796 64.9516 25.5979 64.9623 25.598 64.9779C25.598 64.991 25.6165 65.0041 25.6374 65.0041C25.6583 65.0041 25.7032 65.0331 25.7399 65.0698C25.7766 65.1064 25.8185 65.1354 25.8342 65.1354C25.8473 65.1355 25.8605 65.146 25.8605 65.1616C25.8606 65.1747 25.879 65.1879 25.8999 65.1879C25.9207 65.188 25.9392 65.1955 25.9392 65.2059C25.9392 65.219 25.9991 65.2607 26.0697 65.3052C26.143 65.3471 26.2009 65.3923 26.2009 65.4028C26.2013 65.4132 26.2195 65.4233 26.2403 65.4233C26.2612 65.4234 26.2797 65.4342 26.2797 65.4446C26.2802 65.4579 26.3273 65.489 26.3847 65.5177C26.4418 65.5437 26.4883 65.5751 26.4889 65.5857C26.4889 65.5988 26.5021 65.607 26.5151 65.6071C26.5308 65.6071 26.565 65.6278 26.5939 65.6514C26.62 65.6775 26.6882 65.7218 26.7432 65.7506C26.798 65.7793 26.8606 65.8215 26.8818 65.8425C26.9027 65.8634 26.9709 65.9056 27.0311 65.9344C27.0935 65.963 27.1436 65.9942 27.1443 66.0049C27.1443 66.018 27.1627 66.0262 27.1837 66.0262C27.2045 66.0263 27.223 66.0368 27.223 66.0525C27.2232 66.0655 27.2414 66.0787 27.2649 66.0787C27.2857 66.0788 27.2957 66.0893 27.2878 66.105C27.2804 66.1179 27.291 66.1311 27.3141 66.1312C27.335 66.1312 27.4009 66.1594 27.4585 66.1961C27.5161 66.2327 27.574 66.2617 27.5897 66.2617C27.6027 66.2618 27.6159 66.2724 27.616 66.2879C27.616 66.301 27.6344 66.3142 27.6553 66.3142C27.6762 66.3143 27.6947 66.3226 27.6947 66.333C27.6958 66.3464 27.7473 66.3776 27.812 66.4061C27.8772 66.4347 27.9296 66.466 27.9301 66.4766C27.9301 66.4897 27.9486 66.4979 27.9695 66.4979C27.9904 66.498 28.0089 66.5085 28.0089 66.5242C28.0091 66.5372 28.0274 66.5504 28.0483 66.5504C28.0691 66.5505 28.0876 66.561 28.0876 66.5767C28.088 66.5897 28.1061 66.6029 28.1295 66.6029C28.1769 66.6032 28.3313 66.6841 28.3444 66.7129C28.3499 66.7257 28.3704 66.7333 28.3912 66.7334C28.4121 66.7334 28.4281 66.7416 28.4281 66.7547C28.4293 66.776 28.6186 66.8643 28.6635 66.8646C28.6792 66.8646 28.6898 66.8751 28.6898 66.8909C28.6899 66.9039 28.7083 66.9171 28.7291 66.9171C28.7501 66.9171 28.7685 66.9276 28.7685 66.9434C28.7688 66.9564 28.7923 66.9696 28.821 66.9696C28.8498 66.9696 28.8735 66.9801 28.8735 66.9959C28.8738 67.0088 28.8921 67.0221 28.9129 67.0221C28.9336 67.0222 28.9519 67.0321 28.9523 67.0475C28.9523 67.0606 28.9707 67.0738 28.9916 67.0738C29.037 67.0745 29.2977 67.2066 29.3132 67.2362C29.3184 67.2493 29.3451 67.2575 29.3739 67.2575C29.4 67.2576 29.4238 67.2706 29.4239 67.2862C29.4239 67.2993 29.434 67.3072 29.4444 67.2994C29.4575 67.2915 29.5049 67.3099 29.5494 67.3387C29.5966 67.3649 29.6515 67.3888 29.6725 67.3888C29.6934 67.3888 29.7119 67.3993 29.7119 67.415C29.7122 67.428 29.7381 67.4412 29.7693 67.4413C29.8007 67.4413 29.8165 67.4489 29.8087 67.4593C29.7907 67.4751 29.9244 67.5355 30.0474 67.5643C30.0784 67.5721 30.1043 67.5874 30.1048 67.6004C30.1048 67.607 30.1109 67.6125 30.1204 67.6168L30.1942 67.6316C30.2037 67.6362 30.2097 67.6426 30.2098 67.6505C30.2098 67.6636 30.2335 67.6767 30.2623 67.6767C30.291 67.6768 30.3148 67.6873 30.3148 67.703C30.3148 67.716 30.3325 67.7291 30.3533 67.7292C30.3743 67.7292 30.453 67.7582 30.5289 67.7948C30.6022 67.8315 30.6811 67.8604 30.6995 67.8605C30.7205 67.8605 30.7287 67.871 30.7208 67.8867C30.7105 67.9023 30.7336 67.9129 30.7701 67.913C30.8065 67.913 30.8376 67.9229 30.8382 67.9384C30.8382 67.9514 30.8566 67.9645 30.88 67.9646C30.9193 67.9646 31.0533 68.0171 31.1581 68.0721C31.1841 68.0851 31.2232 68.0958 31.2442 68.0959C31.2652 68.0959 31.2836 68.1064 31.2836 68.1221C31.2836 68.1352 31.3151 68.1483 31.3517 68.1484C31.3883 68.1484 31.4122 68.1589 31.4017 68.1746C31.394 68.1903 31.4122 68.2008 31.446 68.2009C31.48 68.2009 31.5403 68.2194 31.5822 68.2403C31.6215 68.2612 31.6798 68.2796 31.706 68.2796C31.7347 68.2797 31.7553 68.2902 31.7553 68.3059C31.7557 68.3189 31.7871 68.3321 31.8233 68.3321C31.8506 68.3321 31.8708 68.3376 31.875 68.3469L31.8717 68.3682C31.8757 68.3778 31.8959 68.3838 31.9234 68.3838C31.9599 68.3839 31.9913 68.3946 31.9915 68.4076C31.9915 68.4207 32.0382 68.4365 32.0957 68.447C32.1559 68.4548 32.2269 68.4757 32.2532 68.4888C32.282 68.5045 32.3294 68.5256 32.3582 68.5413C32.387 68.5544 32.4344 68.5676 32.4632 68.5676C32.4943 68.5676 32.5103 68.5782 32.5026 68.5938C32.4921 68.6095 32.5205 68.6201 32.5649 68.6201C32.6095 68.6201 32.6461 68.6308 32.6461 68.6439C32.6469 68.6569 32.6992 68.6754 32.7642 68.6832C32.8271 68.6937 32.8876 68.7118 32.8955 68.7275C32.9062 68.7405 32.9402 68.7513 32.9767 68.7513C33.0106 68.7514 33.039 68.7619 33.039 68.7776C33.0397 68.7905 33.0763 68.803 33.1178 68.803C33.162 68.803 33.1961 68.8137 33.1965 68.8293C33.1965 68.8424 33.2334 68.8555 33.2753 68.8555C33.3197 68.8555 33.3539 68.8662 33.354 68.8793C33.354 68.8924 33.4138 68.9106 33.4845 68.9211C33.5574 68.9315 33.615 68.9499 33.6157 68.963C33.6157 68.9761 33.6526 68.9868 33.6945 68.9868C33.7389 68.9868 33.7732 68.9973 33.7732 69.013C33.7732 69.0261 33.8152 69.0393 33.8676 69.0393C33.9224 69.0393 33.9535 69.0498 33.943 69.0655C33.9411 69.0685 33.9414 69.0711 33.9422 69.0737C32.0701 68.5436 30.2765 67.8328 28.5831 66.9614C28.5814 66.9605 28.5799 66.959 28.5782 66.9581C27.7585 66.5361 26.9623 66.0764 26.1919 65.5816C25.9911 65.4527 25.792 65.3216 25.5947 65.1879C24.6906 64.5751 23.8245 63.9127 23.0001 63.2052C22.9689 63.1784 22.9376 63.1517 22.9065 63.1248C22.3735 62.6634 21.8584 62.1828 21.3619 61.6843C20.8819 61.2024 20.4202 60.7034 19.9764 60.1889C19.6967 59.8647 19.4241 59.5345 19.1594 59.198C18.8703 58.8305 18.5907 58.4557 18.3202 58.0742C18.1897 57.8901 18.0615 57.7044 17.9355 57.5172C17.387 56.7025 16.8803 55.8589 16.4195 54.9881C16.384 54.921 16.3487 54.8538 16.3137 54.7863C15.8473 53.8872 15.4295 52.9603 15.0627 52.0088C15.0011 51.8489 14.941 51.6884 14.8823 51.5272C14.2274 49.7287 13.7548 47.8462 13.4869 45.8999C13.4688 45.7687 13.4514 45.6372 13.4352 45.5053C13.3246 44.6055 13.2563 43.6927 13.2351 42.7688C13.2302 42.5553 13.2277 42.3411 13.2277 42.1265C13.2277 41.8675 13.2312 41.6094 13.2383 41.3521C13.2912 39.4477 13.539 37.5908 13.9619 35.7994C14.0209 35.5495 14.0839 35.3011 14.1497 35.0537C14.6802 33.0592 15.4283 31.1504 16.3703 29.3542C16.5961 28.9237 16.8339 28.5 17.0815 28.0827C17.8698 26.7539 18.7656 25.4935 19.759 24.3142C20.2343 23.75 20.7329 23.2054 21.2512 22.6794C21.9753 21.9442 22.7396 21.2472 23.5415 20.5925V20.5941ZM50.9612 68.7751C50.9637 68.7606 50.9911 68.7513 51.0236 68.7513C51.0327 68.7513 51.0414 68.7484 51.0498 68.7472C51.0204 68.7568 50.9907 68.7656 50.9612 68.7751ZM51.0917 68.7341C51.0968 68.7313 51.1022 68.7308 51.1048 68.7275C51.1127 68.7118 51.1732 68.6937 51.236 68.6832C51.2458 68.6821 51.2549 68.6783 51.2639 68.6767C51.2065 68.6959 51.1492 68.7153 51.0917 68.7341ZM51.3501 68.6471C51.3514 68.6456 51.3533 68.6453 51.3533 68.6439C51.3533 68.6315 51.3862 68.622 51.4272 68.6209C51.4015 68.6297 51.3758 68.6385 51.3501 68.6471ZM51.4977 68.5963V68.5938C51.4873 68.5781 51.5164 68.5676 51.5609 68.5676C51.5737 68.5676 51.5853 68.5637 51.5962 68.5618C51.5633 68.5732 51.5306 68.585 51.4977 68.5963ZM51.6372 68.5479C51.6397 68.5455 51.6421 68.5438 51.6421 68.5413C51.6422 68.5257 51.6653 68.5152 51.6913 68.5151C51.7201 68.5151 51.7497 68.5044 51.7602 68.4913C51.7689 68.4757 51.8284 68.4574 51.8907 68.447C51.9199 68.4435 51.9464 68.4369 51.9669 68.4306C51.8573 68.4704 51.7474 68.5094 51.6372 68.5479ZM51.9883 68.4232C52.001 68.4176 52.0088 68.4125 52.0088 68.4076C52.009 68.3946 52.0403 68.3838 52.0769 68.3838C52.0888 68.3838 52.0988 68.3809 52.1072 68.3789C52.0675 68.3935 52.028 68.4087 51.9883 68.4232ZM41.9575 14.0702C45.1805 14.0702 48.2796 14.5884 51.1721 15.5443C51.617 15.6913 52.0571 15.8485 52.4919 16.016C52.927 16.1835 53.3571 16.361 53.7815 16.5483C54.2058 16.7357 54.6244 16.9332 55.0374 17.1398C55.4501 17.3462 55.8571 17.5619 56.258 17.787C56.8597 18.1249 57.4476 18.4834 58.0208 18.8616C58.403 19.1137 58.7784 19.3749 59.1471 19.6442C61.1752 21.1253 62.9965 22.8615 64.5604 24.8048C64.8447 25.1581 65.1202 25.5185 65.3873 25.8851C65.6543 26.2519 65.9125 26.6253 66.1616 27.0049C66.4108 27.3843 66.6512 27.7698 66.8819 28.1615C69.3033 32.2739 70.6881 37.0423 70.6881 42.1265C70.6881 45.4241 70.1037 48.5882 69.0335 51.5272C68.9717 51.697 68.9083 51.866 68.8432 52.0342C68.3078 53.4191 67.6645 54.7521 66.9212 56.0226C66.8704 56.1095 66.818 56.1954 66.7662 56.2818C66.506 56.7157 66.2338 57.1419 65.9508 57.5606C65.8462 57.7154 65.7402 57.8691 65.6325 58.0217C65.592 58.0791 65.552 58.1368 65.5111 58.1939C65.4271 58.3111 65.3418 58.4275 65.256 58.5434C65.1105 58.7399 64.9628 58.9347 64.8122 59.1274C64.5301 59.4884 64.2387 59.842 63.9394 60.1889C63.774 60.3806 63.6062 60.5701 63.4357 60.7574C60.3778 64.1157 56.5068 66.7525 52.1236 68.3723C52.1286 68.3681 52.131 68.3637 52.1269 68.3576C52.1167 68.342 52.1397 68.3322 52.1761 68.3321C52.2125 68.3321 52.2437 68.3189 52.2442 68.3059C52.2442 68.2902 52.2655 68.2797 52.2942 68.2796C52.3204 68.2796 52.378 68.2612 52.4173 68.2403C52.4591 68.2194 52.5194 68.201 52.5535 68.2009C52.5874 68.2009 52.6062 68.1903 52.5986 68.1746C52.5881 68.159 52.6113 68.1484 52.6478 68.1484C52.6845 68.1484 52.7159 68.1352 52.7159 68.1221C52.7159 68.1065 52.7344 68.096 52.7553 68.0959C52.7762 68.0959 52.816 68.0852 52.8422 68.0721C52.9468 68.0172 53.08 67.9648 53.1195 67.9646C53.1431 67.9646 53.1613 67.9515 53.1613 67.9384C53.1618 67.9229 53.1907 67.913 53.2245 67.913C53.2584 67.913 53.292 67.9021 53.2975 67.8916C53.3106 67.8602 53.6013 67.7294 53.6592 67.7292C53.6881 67.7292 53.7117 67.7161 53.7117 67.703C53.7117 67.6873 53.7353 67.6767 53.7667 67.6767C53.7885 67.6767 53.8029 67.6708 53.8053 67.6611L53.802 67.6398C53.8045 67.6303 53.819 67.6242 53.8405 67.6242C53.8718 67.6241 53.8955 67.6135 53.8955 67.6004C53.896 67.5874 53.9217 67.5721 53.9554 67.5643C54.0754 67.5356 54.2087 67.4753 54.1916 67.4593C54.1838 67.4489 54.199 67.4414 54.2302 67.4413C54.2614 67.4413 54.2881 67.428 54.2884 67.415C54.2884 67.3993 54.3068 67.3888 54.3278 67.3888C54.349 67.3886 54.4039 67.3648 54.4508 67.3387C54.4953 67.31 54.5428 67.2915 54.5558 67.2994C54.5663 67.307 54.5764 67.2993 54.5764 67.2862C54.5765 67.2706 54.6003 67.2575 54.6264 67.2575C54.6551 67.2575 54.681 67.2493 54.6863 67.2362C54.7007 67.2069 54.964 67.0739 55.0087 67.0738C55.0296 67.0738 55.048 67.0606 55.048 67.0475C55.0483 67.032 55.0666 67.0221 55.0874 67.0221C55.1082 67.0221 55.1265 67.0088 55.1268 66.9959C55.1268 66.9801 55.1505 66.9696 55.1793 66.9696C55.2078 66.9695 55.2315 66.9563 55.2318 66.9434C55.2318 66.9277 55.2496 66.9172 55.2703 66.9171C55.2913 66.9171 55.3097 66.9064 55.3097 66.8933C55.3098 66.8802 55.3441 66.862 55.3885 66.8515C55.4303 66.841 55.4723 66.8227 55.4803 66.8096C55.4908 66.7966 55.5196 66.7859 55.5484 66.7859C55.5772 66.7859 55.5932 66.7753 55.5853 66.7596C55.5775 66.7465 55.5882 66.7334 55.6091 66.7334C55.6323 66.7332 55.6507 66.7232 55.651 66.7129C55.651 66.7024 55.7107 66.6703 55.7814 66.6415C55.8548 66.6127 55.9126 66.5814 55.9126 66.5709C55.9129 66.5605 55.9364 66.5504 55.9676 66.5504C55.9962 66.5504 56.012 66.5372 56.0045 66.5242C55.9967 66.5085 56.0073 66.4979 56.0283 66.4979C56.0517 66.4979 56.0701 66.4896 56.0701 66.4766C56.0704 66.4713 56.0834 66.4606 56.1046 66.4479L56.2703 66.3642C56.2918 66.3511 56.3051 66.3397 56.3056 66.333C56.3056 66.3226 56.324 66.3142 56.345 66.3142C56.3659 66.3142 56.3843 66.301 56.3843 66.2879C56.3845 66.2723 56.4081 66.2617 56.4368 66.2617C56.4654 66.2617 56.4891 66.2541 56.4893 66.2412C56.4893 66.2176 56.6383 66.1313 56.6829 66.1312C56.6907 66.1312 56.7025 66.1251 56.7149 66.1157L56.7871 66.0418C56.7999 66.0323 56.8123 66.0264 56.8216 66.0262C56.8399 66.0262 56.856 66.0156 56.856 66.0025C56.8562 65.9815 56.9527 65.9399 56.9946 65.945C57.0051 65.9477 57.0135 65.9344 57.0135 65.9212C57.0135 65.9056 57.0265 65.895 57.0422 65.895C57.0605 65.8948 57.0918 65.8742 57.1152 65.8482C57.127 65.8365 57.1494 65.8193 57.1759 65.8015L57.3482 65.6998C57.3747 65.6818 57.3971 65.6644 57.4089 65.6514C57.4324 65.6279 57.4636 65.6072 57.4819 65.6071C57.4976 65.6071 57.5106 65.5988 57.5106 65.5857C57.5111 65.5751 57.5583 65.5437 57.6156 65.5177C57.673 65.489 57.7201 65.4579 57.7206 65.4446C57.7206 65.4342 57.7338 65.4233 57.7469 65.4233C57.7626 65.4232 57.7994 65.4028 57.8281 65.3741C57.8569 65.3479 57.925 65.3027 57.9774 65.2765C58.0297 65.2477 58.0924 65.2059 58.116 65.1797C58.1396 65.1561 58.1685 65.1354 58.1816 65.1354C58.1947 65.1354 58.2238 65.1116 58.2448 65.0854C58.2631 65.0567 58.2891 65.0382 58.3022 65.046C58.3127 65.0538 58.3235 65.046 58.3235 65.0329C58.3237 65.0173 58.3414 65.0043 58.3621 65.0041C58.3831 65.0041 58.4015 64.991 58.4015 64.9779C58.4016 64.9624 58.42 64.9517 58.4433 64.9516C58.4643 64.9516 58.475 64.9385 58.4671 64.9254C58.4595 64.9098 58.4676 64.8991 58.4884 64.8991C58.5068 64.899 58.5483 64.8759 58.577 64.8499C58.6085 64.8211 58.6405 64.8051 58.6484 64.813C58.6562 64.8232 58.664 64.8155 58.664 64.7999C58.664 64.7816 58.6771 64.7687 58.6902 64.7687C58.7062 64.7684 58.7532 64.7343 58.8001 64.69C58.8442 64.6485 58.8908 64.6119 58.9019 64.6112C58.9123 64.6112 58.9521 64.5823 58.9888 64.5456C59.0254 64.509 59.0622 64.48 59.07 64.48C59.0782 64.4796 59.1149 64.4515 59.1512 64.4152C59.1877 64.3787 59.2266 64.3499 59.2374 64.3495C59.2479 64.3495 59.2954 64.3127 59.3399 64.2708C59.3866 64.2267 59.4306 64.1926 59.4416 64.192C59.4547 64.192 59.5151 64.1447 59.5753 64.087C59.6382 64.0294 59.6987 63.982 59.7066 63.982C59.7172 63.9819 59.775 63.9354 59.8378 63.8779C59.8981 63.8202 59.953 63.7729 59.9609 63.7729C59.9691 63.7725 60.0058 63.7468 60.0396 63.713C60.0737 63.6815 60.1392 63.6235 60.1889 63.5842C60.2361 63.5449 60.3042 63.4875 60.3382 63.4587C60.3749 63.4299 60.4192 63.4114 60.4375 63.4193C60.4583 63.4245 60.4664 63.4191 60.4588 63.4062C60.4405 63.3748 60.7018 63.129 60.7492 63.1338C60.7675 63.1365 60.7753 63.1205 60.7648 63.0969C60.7543 63.0681 60.7627 63.06 60.7968 63.0731C60.8227 63.0835 60.8356 63.0812 60.8255 63.0657C60.8072 63.0344 60.8771 62.956 60.901 62.9788C60.9088 62.9893 60.9174 62.9814 60.9174 62.9657C60.9175 62.9474 60.9304 62.9345 60.9461 62.9345C60.9621 62.934 61.0223 62.8816 61.0823 62.8164C61.1397 62.7511 61.2024 62.7013 61.2209 62.7089C61.2445 62.7168 61.2494 62.709 61.2389 62.6802C61.226 62.649 61.2341 62.6411 61.2652 62.6539C61.2966 62.6644 61.3019 62.6591 61.2914 62.6277C61.2785 62.594 61.2865 62.5886 61.3201 62.6014C61.349 62.6119 61.3595 62.6091 61.3464 62.5908C61.3373 62.5663 61.6337 62.2576 61.8394 62.0806C61.8577 62.0648 61.8915 62.0249 61.9124 61.9961C61.9386 61.9543 61.955 61.9495 61.9707 61.9731C61.9836 61.9935 61.9911 61.9832 61.9912 61.9444C61.9912 61.9103 62.002 61.8889 62.0125 61.8968C62.0256 61.9044 62.0515 61.8862 62.0724 61.855C62.1428 61.7532 62.2446 61.654 62.2635 61.6688C62.2714 61.6766 62.2791 61.6715 62.2791 61.6532C62.2791 61.6033 62.5602 61.328 62.5916 61.3464C62.6099 61.3593 62.6119 61.3489 62.6015 61.3201C62.5886 61.2865 62.594 61.2785 62.6277 61.2914C62.6592 61.3019 62.6645 61.2966 62.654 61.2652C62.6411 61.234 62.6491 61.226 62.6802 61.2389C62.709 61.2494 62.7168 61.2444 62.7089 61.2209C62.7012 61.1999 62.7248 61.1602 62.7614 61.1315C62.7981 61.1026 62.8295 61.0661 62.8295 61.0478C62.8296 61.0323 62.8428 61.027 62.8558 61.0347C62.8715 61.0425 62.882 61.0374 62.882 61.0191C62.8821 61.0033 62.9081 60.9665 62.9394 60.9403C62.9683 60.9115 62.9868 60.8911 62.9764 60.8911C62.966 60.891 62.9768 60.872 62.9977 60.8484C63.0212 60.8277 63.0501 60.815 63.0658 60.8255C63.0812 60.8356 63.0835 60.8227 63.0732 60.7968C63.0601 60.7602 63.0655 60.7543 63.1019 60.7672C63.1305 60.7776 63.1415 60.7754 63.1314 60.7574C63.1209 60.7443 63.144 60.702 63.1806 60.668C63.2173 60.6339 63.2487 60.5918 63.2487 60.5761C63.2488 60.5607 63.262 60.5554 63.275 60.563C63.2907 60.5708 63.3012 60.5656 63.3012 60.5499C63.3015 60.5053 63.3748 60.4405 63.4062 60.4588C63.4191 60.4664 63.4246 60.4582 63.4169 60.4375C63.409 60.4165 63.4327 60.3691 63.4694 60.3325C63.5059 60.2933 63.5375 60.2566 63.5375 60.2488C63.5375 60.2409 63.5633 60.2065 63.5973 60.1725C63.6287 60.1385 63.6707 60.0865 63.6917 60.0577C63.7126 60.0262 63.7393 60.008 63.7524 60.0158C63.7627 60.0229 63.7729 60.0019 63.7729 59.9682C63.7729 59.9213 63.7782 59.9164 63.7991 59.9477C63.82 59.9816 63.8254 59.9789 63.8254 59.9371C63.8254 59.9109 63.8543 59.8612 63.891 59.8272C63.9277 59.7931 63.9566 59.7535 63.9566 59.7377C63.9567 59.7221 63.9698 59.7168 63.9829 59.7246C63.9985 59.7322 64.0091 59.7165 64.0091 59.6852C64.0092 59.6543 64.0216 59.6386 64.0346 59.6459C64.0502 59.6537 64.0607 59.6437 64.0608 59.6229C64.0608 59.602 64.0898 59.5623 64.1264 59.5335C64.1631 59.5047 64.192 59.4629 64.1921 59.4367C64.1921 59.4131 64.2052 59.4026 64.2183 59.4104C64.234 59.4183 64.2445 59.4078 64.2446 59.3817C64.2446 59.3477 64.2527 59.345 64.2815 59.3686C64.3127 59.3946 64.3149 59.3891 64.3044 59.3473C64.2967 59.3108 64.3052 59.2872 64.334 59.2767C64.3574 59.2687 64.3758 59.2426 64.3758 59.2218C64.3758 59.1747 64.4407 59.1068 64.4644 59.1274C64.4723 59.1379 64.48 59.117 64.48 59.0856C64.48 59.0543 64.4906 59.0361 64.5062 59.0438C64.5219 59.0516 64.5324 59.0462 64.5325 59.0306C64.5325 58.9861 64.6272 58.871 64.6482 58.892C64.6559 58.8993 64.6637 58.8861 64.6637 58.8575C64.6637 58.8287 64.6874 58.7891 64.7162 58.7681C64.745 58.7472 64.7687 58.7159 64.7687 58.6976C64.7688 58.6793 64.7818 58.664 64.7975 58.664C64.8105 58.6639 64.8184 58.6531 64.8106 58.6426C64.8027 58.6295 64.8211 58.6035 64.85 58.5852C64.8761 58.5642 64.8992 58.5244 64.8992 58.4983C64.8993 58.4725 64.9125 58.4596 64.9254 58.4671C64.9411 58.4749 64.9517 58.4645 64.9517 58.4384C64.9517 58.4043 64.9598 58.4017 64.9886 58.4252C65.0174 58.4488 65.0202 58.4432 65.0124 58.3908C65.0047 58.349 65.0203 58.3099 65.0673 58.2628C65.1039 58.2263 65.1352 58.1819 65.1354 58.166C65.1354 58.1529 65.1486 58.1398 65.1617 58.1398C65.1773 58.1397 65.1879 58.1214 65.1879 58.0979C65.1879 58.077 65.1986 58.0638 65.2117 58.0717C65.2248 58.079 65.2425 58.058 65.2503 58.0217C65.2607 57.985 65.2798 57.956 65.2929 57.956C65.3084 57.9558 65.3192 57.9376 65.3192 57.9142C65.3192 57.8936 65.3317 57.883 65.3446 57.8904C65.3603 57.8982 65.3708 57.883 65.3708 57.8543C65.3708 57.8231 65.3841 57.7997 65.3971 57.7993C65.4127 57.7993 65.4232 57.7809 65.4233 57.7575C65.4233 57.7365 65.434 57.7234 65.4471 57.7313C65.4602 57.7389 65.4787 57.7177 65.4865 57.6812C65.497 57.6446 65.5153 57.6156 65.5283 57.6156C65.5441 57.6156 65.5546 57.5921 65.5546 57.5606C65.5546 57.5319 65.5678 57.5159 65.5808 57.5237C65.5966 57.5316 65.6071 57.5135 65.6071 57.4794C65.6071 57.4323 65.6125 57.4268 65.6333 57.4581C65.6543 57.4895 65.6596 57.4871 65.6596 57.4425C65.6597 57.4111 65.6781 57.3722 65.699 57.3539C65.7199 57.3356 65.7383 57.3035 65.7383 57.2825C65.7385 57.2593 65.7538 57.2486 65.772 57.2563C65.7982 57.2668 65.8061 57.2511 65.7982 57.2013C65.7878 57.1467 65.793 57.1389 65.8138 57.1702C65.8373 57.2015 65.8425 57.1991 65.8425 57.1497C65.8425 57.1183 65.8532 57.0915 65.8663 57.0914C65.8794 57.0914 65.8978 57.0625 65.9057 57.0258C65.9162 56.9893 65.9345 56.9611 65.9475 56.961C65.9632 56.961 65.9737 56.9372 65.9738 56.9085C65.9738 56.8797 65.9869 56.856 66 56.856C66.0157 56.856 66.0262 56.8376 66.0263 56.8142C66.0263 56.7932 66.0394 56.7825 66.0525 56.7904C66.0682 56.7981 66.0788 56.7824 66.0788 56.751C66.0788 56.7196 66.0919 56.7038 66.105 56.7116C66.1207 56.7193 66.1313 56.7036 66.1313 56.6722C66.1313 56.6435 66.1497 56.612 66.1707 56.6042C66.1915 56.5935 66.2092 56.5646 66.2092 56.5385C66.2093 56.5127 66.2225 56.4897 66.2355 56.4893C66.2511 56.4893 66.2616 56.4656 66.2617 56.4343C66.2617 56.4056 66.2749 56.3898 66.288 56.3974C66.3037 56.4053 66.3142 56.3895 66.3142 56.3581C66.3142 56.3267 66.3274 56.311 66.3405 56.3187C66.3562 56.3265 66.3667 56.3106 66.3667 56.2818C66.3668 56.2531 66.3853 56.2143 66.4061 56.1907C66.427 56.1698 66.4455 56.13 66.4455 56.1038C66.4455 56.0645 66.4508 56.0623 66.4717 56.0964C66.4925 56.1275 66.498 56.1194 66.498 56.0619C66.498 56.0302 66.5038 56.0075 66.5135 56.0029L66.5349 56.0061C66.5444 56.0036 66.5505 55.9892 66.5505 55.9676C66.5505 55.9362 66.5636 55.9126 66.5767 55.9126C66.5923 55.9123 66.603 55.8886 66.603 55.8626C66.603 55.8338 66.6214 55.7942 66.6423 55.7707C66.6631 55.7497 66.6809 55.7129 66.6809 55.6895C66.681 55.6662 66.6941 55.6563 66.7071 55.6641C66.7228 55.6719 66.7333 55.6559 66.7334 55.6247C66.7334 55.5933 66.7465 55.5775 66.7596 55.5853C66.7754 55.5932 66.7859 55.5772 66.7859 55.5484C66.7859 55.517 66.7966 55.4935 66.8097 55.4935C66.8228 55.4933 66.8412 55.4513 66.8491 55.4016C66.8595 55.3518 66.8778 55.3097 66.8909 55.3097C66.9066 55.3097 66.9171 55.2913 66.9171 55.2703C66.9173 55.2495 66.9304 55.231 66.9434 55.231C66.959 55.2308 66.9696 55.2073 66.9696 55.176C66.9697 55.1474 66.9828 55.1321 66.9959 55.1399C67.0114 55.1475 67.0221 55.1369 67.0221 55.1136C67.0221 55.0901 67.0406 55.0534 67.0615 55.0324C67.0824 55.0089 67.1001 54.9694 67.1001 54.9406C67.1001 54.9146 67.1133 54.8909 67.1263 54.8905C67.142 54.8905 67.1526 54.8668 67.1526 54.838C67.1527 54.8095 67.1658 54.7866 67.1788 54.7863C67.1945 54.7863 67.2051 54.762 67.2051 54.7306C67.2052 54.702 67.2183 54.6866 67.2313 54.6945C67.247 54.7049 67.2576 54.6811 67.2576 54.6444C67.2576 54.6079 67.2706 54.5766 67.2863 54.5763C67.2929 54.5763 67.2975 54.5736 67.2994 54.569L67.2945 54.5312C67.2964 54.5266 67.301 54.5238 67.3076 54.5238C67.3155 54.5238 67.3229 54.5179 67.3281 54.5083L67.3445 54.4344C67.3494 54.425 67.356 54.4188 67.3626 54.4188C67.3782 54.4187 67.3888 54.3876 67.3888 54.3458C67.3888 54.2908 67.3941 54.2832 67.4151 54.3147C67.4241 54.3287 67.4305 54.3325 67.4348 54.3245L67.4479 54.1998C67.4521 54.1915 67.4584 54.1952 67.4676 54.2097C67.4883 54.2407 67.4938 54.233 67.4938 54.1785C67.4938 54.1392 67.5114 54.0913 67.5324 54.0677C67.556 54.0468 67.5744 54.0206 67.5717 54.0128C67.5665 53.9318 67.5771 53.8955 67.598 53.9086C67.6137 53.9191 67.6242 53.8952 67.6242 53.8561C67.6242 53.8268 67.6304 53.8062 67.6398 53.802L67.6612 53.8052C67.6644 53.804 67.6671 53.8009 67.6694 53.7962L67.6841 53.706C67.6887 53.6966 67.6952 53.6934 67.703 53.6986C67.7187 53.7065 67.7292 53.6853 67.7292 53.6486C67.7293 53.6146 67.7478 53.568 67.7686 53.5444C67.7895 53.5235 67.8079 53.4813 67.808 53.4525C67.808 53.4211 67.8211 53.3976 67.8342 53.3976C67.8498 53.3973 67.8604 53.3659 67.8605 53.3295C67.8605 53.3017 67.8664 53.2815 67.8761 53.2778L67.8974 53.2811C67.9069 53.2768 67.913 53.2562 67.913 53.2269C67.913 53.1905 67.923 53.1645 67.936 53.172C67.9491 53.1798 67.9649 53.1402 67.9753 53.0826C67.9832 53.0255 68.0041 52.9791 68.0172 52.9784C68.0329 52.9784 68.0434 52.9468 68.0434 52.9103C68.0434 52.8737 68.054 52.8499 68.0697 52.8603C68.0776 52.8655 68.084 52.8607 68.0885 52.8488L68.1033 52.7405C68.1056 52.7345 68.1083 52.7301 68.1115 52.7282L68.1328 52.7298C68.1424 52.724 68.1484 52.6988 68.1484 52.6634C68.1485 52.619 68.1591 52.5875 68.1722 52.5953C68.1853 52.6031 68.2011 52.5642 68.2116 52.5067C68.2195 52.4491 68.2403 52.4017 68.2534 52.4017C68.2691 52.4015 68.2797 52.3649 68.2797 52.3205C68.2797 52.2867 68.2855 52.2619 68.2953 52.2565L68.3166 52.2581C68.3261 52.2518 68.3322 52.2258 68.3322 52.1868C68.3322 52.1372 68.3368 52.1193 68.3469 52.1261L68.3699 52.154C68.3799 52.16 68.3847 52.1415 68.3847 52.0924C68.3847 52.0482 68.3947 52.0092 68.4076 52.0088C68.4234 52.0088 68.4423 51.9561 68.4528 51.8906C68.4606 51.8255 68.4782 51.7815 68.4913 51.7889C68.4978 51.7928 68.5034 51.7869 68.5077 51.775L68.5233 51.6659C68.5282 51.6513 68.5349 51.6422 68.5414 51.6421C68.557 51.6421 68.5676 51.6053 68.5676 51.5609C68.5676 51.5274 68.5736 51.5027 68.5832 51.4969L68.6045 51.4985C68.6141 51.4932 68.6201 51.4698 68.6201 51.4345C68.6202 51.3928 68.6332 51.3538 68.6488 51.3484C68.6619 51.3432 68.6828 51.2907 68.6907 51.2278C68.6985 51.1676 68.7145 51.1256 68.7276 51.1335C68.7407 51.1413 68.7514 51.1047 68.7514 51.0523C68.7514 51.0092 68.7574 50.9808 68.7669 50.9735H68.7883C68.7978 50.9665 68.8038 50.9389 68.8039 50.8981C68.8039 50.8457 68.817 50.8037 68.8301 50.8037C68.8456 50.8032 68.8555 50.769 68.8555 50.7274C68.8555 50.6855 68.8693 50.6465 68.8851 50.6413C68.8929 50.6385 68.9013 50.622 68.9089 50.5978L68.9441 50.4215C68.9509 50.3992 68.9577 50.3852 68.963 50.3846C68.9761 50.3846 68.9867 50.3477 68.9868 50.3033C68.9868 50.2588 68.9973 50.2297 69.013 50.2402C69.0287 50.2506 69.0393 50.2114 69.0393 50.1434C69.0393 50.0726 69.0474 50.0437 69.0631 50.0646C69.0761 50.0879 69.0887 50.0433 69.0992 49.9465C69.107 49.8627 69.1286 49.7918 69.1443 49.7865C69.1573 49.7807 69.1705 49.7288 69.1705 49.6742C69.1705 49.6266 69.1764 49.594 69.1861 49.5856L69.2074 49.5839C69.217 49.574 69.223 49.5389 69.223 49.4879C69.223 49.4069 69.231 49.3861 69.2493 49.4149C69.2675 49.4433 69.2747 49.4171 69.2747 49.3231C69.2747 49.2418 69.2828 49.2053 69.2985 49.2263C69.3116 49.2498 69.3274 49.1947 69.3379 49.077C69.3483 48.9756 69.3665 48.892 69.3822 48.8908C69.3953 48.8908 69.406 48.8434 69.406 48.7858C69.406 48.7284 69.4192 48.681 69.4322 48.6808C69.4479 48.6808 69.4584 48.6342 69.4585 48.5741C69.4585 48.5112 69.469 48.4742 69.4847 48.4847C69.5004 48.4951 69.511 48.453 69.511 48.3797C69.511 48.3143 69.5217 48.2644 69.5348 48.2722C69.5478 48.2795 69.5661 48.1852 69.5766 48.0598C69.5897 47.9134 69.6027 47.8484 69.6184 47.8719C69.634 47.8948 69.6422 47.8528 69.6422 47.7514C69.6422 47.668 69.6468 47.6269 69.657 47.6242L69.6799 47.6422C69.6834 47.6415 69.686 47.6369 69.6882 47.6275L69.7013 47.4142C69.7057 47.3902 69.7124 47.3792 69.7201 47.3839C69.7359 47.3943 69.7464 47.345 69.7464 47.2534C69.7464 47.1723 69.7571 47.112 69.7702 47.1197C69.7911 47.1328 69.8251 46.8729 69.8251 46.6817C69.8252 46.6219 69.8358 46.5879 69.8514 46.598C69.8671 46.6085 69.8776 46.5535 69.8776 46.4487C69.8777 46.3335 69.8856 46.2944 69.9039 46.3232C69.9222 46.3492 69.9301 46.2995 69.9301 46.1583C69.9301 46.0273 69.9407 45.9592 69.9564 45.9696C69.9642 45.9746 69.9707 45.9614 69.9753 45.9327L69.99 45.6702C69.9943 45.6357 69.9999 45.6129 70.0064 45.6103C70.0196 45.6026 70.0403 45.4202 70.0507 45.2043C70.0612 44.9848 70.0796 44.8119 70.0901 44.8187C70.1032 44.8266 70.1139 44.6988 70.1139 44.5365C70.1139 44.3348 70.1218 44.2536 70.1401 44.2798C70.1583 44.3041 70.1663 44.1832 70.1689 43.9123C70.1689 43.6616 70.1788 43.5282 70.1918 43.5587C70.2049 43.5876 70.2156 42.9223 70.2156 42.0001C70.2156 41.0787 70.2049 40.4132 70.1918 40.4407C70.1787 40.4722 70.1689 40.3463 70.1689 40.1052C70.1662 39.8554 70.1557 39.7248 70.1401 39.7336C70.1244 39.7441 70.1139 39.6472 70.1139 39.4588C70.1139 39.2994 70.1032 39.1736 70.0901 39.1807C70.0796 39.1886 70.0612 39.0153 70.0507 38.7952C70.0403 38.5763 70.0221 38.3934 70.0064 38.3891C69.9999 38.3865 69.9935 38.3621 69.9892 38.3243L69.9761 38.0356C69.9718 38.0096 69.9655 38.0045 69.9564 38.0175C69.9381 38.0436 69.9301 37.9909 69.9301 37.8469C69.9301 37.7029 69.9222 37.6509 69.9039 37.6771C69.8857 37.7055 69.8776 37.6657 69.8776 37.5508C69.8776 37.4461 69.8671 37.391 69.8514 37.4015C69.8357 37.4119 69.8251 37.3781 69.8251 37.3178C69.8251 37.1265 69.7911 36.8675 69.7702 36.8806C69.7572 36.8876 69.7464 36.8192 69.7464 36.728C69.7464 36.6406 69.7419 36.5968 69.7316 36.5935L69.7087 36.6115C69.6988 36.6085 69.6947 36.5673 69.6947 36.4844C69.6947 36.4013 69.6901 36.3606 69.6799 36.358L69.657 36.3761C69.6468 36.3734 69.6422 36.3322 69.6422 36.2489C69.6422 36.1468 69.6341 36.1048 69.6184 36.1284C69.6027 36.1519 69.5897 36.0864 69.5766 35.9397C69.5662 35.8148 69.5478 35.7209 69.5348 35.7272C69.5217 35.7351 69.511 35.6853 69.511 35.6198C69.5109 35.5466 69.5004 35.5051 69.4847 35.5156C69.4691 35.5257 69.4585 35.4888 69.4585 35.4262C69.4585 35.3659 69.4479 35.3187 69.4322 35.3187C69.4192 35.3184 69.406 35.2712 69.406 35.2137C69.4059 35.1562 69.3953 35.1087 69.3822 35.1087C69.3666 35.1073 69.3483 35.0246 69.3379 34.9233C69.3274 34.8054 69.3116 34.7504 69.2985 34.774C69.2829 34.7944 69.2747 34.7573 69.2747 34.6764C69.2747 34.5824 69.2676 34.5566 69.2493 34.5854C69.2401 34.5998 69.2339 34.6002 69.2296 34.5854L69.2165 34.4016C69.2122 34.3869 69.2059 34.3873 69.1968 34.4016C69.1785 34.4304 69.1705 34.4122 69.1705 34.3311C69.1705 34.271 69.1574 34.2184 69.1443 34.2129C69.1286 34.2077 69.107 34.1368 69.0992 34.053C69.0887 33.9562 69.0762 33.9121 69.0631 33.9357C69.0474 33.9564 69.0393 33.9274 69.0393 33.8569C69.0393 33.7888 69.0288 33.7496 69.013 33.7601C68.9974 33.7702 68.9868 33.7413 68.9868 33.697C68.9868 33.6524 68.9763 33.6157 68.9605 33.6157C68.9475 33.6154 68.9343 33.5759 68.9343 33.5263C68.9342 33.4766 68.9211 33.4267 68.908 33.4189C68.9002 33.4136 68.8947 33.407 68.8924 33.4L68.8974 33.359C68.8951 33.3523 68.8896 33.3461 68.8818 33.3409C68.8688 33.333 68.8556 33.2962 68.8555 33.2597C68.8555 33.226 68.8456 33.1971 68.8301 33.1966C68.817 33.1966 68.8039 33.1546 68.8039 33.1022C68.8039 33.0612 68.7979 33.0332 68.7883 33.0259H68.7669C68.7574 33.0187 68.7514 32.9903 68.7514 32.9472C68.7513 32.8952 68.7406 32.8586 68.7276 32.866C68.7145 32.8738 68.6985 32.8319 68.6907 32.7716C68.6828 32.709 68.6619 32.6572 68.6488 32.6519C68.6331 32.6466 68.6201 32.6068 68.6201 32.5649C68.6201 32.5295 68.6141 32.506 68.6045 32.5009L68.5832 32.5026C68.5737 32.4966 68.5676 32.4725 68.5676 32.4394C68.5676 32.3949 68.5571 32.3582 68.5414 32.3582C68.5283 32.358 68.5151 32.3213 68.5151 32.277C68.5151 32.2435 68.5091 32.2188 68.4995 32.213L68.4782 32.2147C68.4687 32.2096 68.4626 32.1876 68.4626 32.1564C68.4626 32.1145 68.4442 32.0564 68.4232 32.0276C68.4024 32.0013 68.3847 31.9414 68.3847 31.8997C68.3847 31.8395 68.3767 31.829 68.3584 31.8603C68.3401 31.8891 68.3322 31.8782 68.3322 31.8127C68.3321 31.7608 68.3215 31.7321 68.3059 31.7422C68.2902 31.7526 68.2797 31.7267 68.2797 31.6798C68.2797 31.6381 68.2666 31.5984 68.251 31.5929C68.2379 31.5876 68.217 31.5327 68.2091 31.4698C68.1987 31.3968 68.1853 31.3705 68.1722 31.3935C68.1565 31.4144 68.1485 31.3991 68.1484 31.3418C68.1484 31.3022 68.1426 31.2755 68.1328 31.2697L68.1115 31.2713C68.102 31.2653 68.0959 31.2401 68.0959 31.2048C68.0959 31.1579 68.0854 31.1296 68.0697 31.14C68.0541 31.15 68.0434 31.1264 68.0434 31.09C68.0434 31.0533 68.0329 31.0219 68.0172 31.0219C68.0041 31.0212 67.9831 30.9741 67.9753 30.9169C67.9649 30.8593 67.9491 30.8196 67.936 30.8275C67.9229 30.8353 67.9131 30.8123 67.913 30.7758C67.913 30.7394 67.9023 30.7081 67.8867 30.7077C67.8737 30.7077 67.8606 30.6839 67.8605 30.6552C67.8605 30.6265 67.8499 30.6029 67.8342 30.6027C67.8212 30.6027 67.8081 30.5791 67.808 30.5478C67.808 30.519 67.7896 30.4769 67.7686 30.4559C67.7477 30.4323 67.7292 30.3876 67.7292 30.3509C67.7292 30.3169 67.7187 30.2886 67.703 30.2886C67.6899 30.2885 67.6767 30.2642 67.6767 30.2328C67.6767 30.2042 67.6662 30.1889 67.6505 30.1967C67.6349 30.2067 67.6242 30.1775 67.6242 30.1253C67.6242 30.0602 67.6163 30.0498 67.598 30.0786C67.5771 30.1099 67.5717 30.1046 67.5717 30.0523C67.5717 30.0157 67.5533 29.9637 67.5324 29.9375C67.5114 29.9087 67.4939 29.856 67.4938 29.8193C67.4938 29.7643 67.4885 29.7592 67.4676 29.7906C67.4584 29.805 67.4522 29.8087 67.4479 29.8005L67.4348 29.6758C67.4305 29.6675 67.4243 29.6712 67.4151 29.6856C67.3941 29.7171 67.3888 29.7088 67.3888 29.6512C67.3888 29.6121 67.3782 29.5808 67.3626 29.5806C67.356 29.5806 67.3494 29.5747 67.3445 29.565L67.3281 29.4912C67.3229 29.4817 67.3154 29.4757 67.3076 29.4756C67.2945 29.4756 67.2891 29.4625 67.2969 29.4494C67.3046 29.4338 67.2993 29.4231 67.2863 29.4231C67.2706 29.4229 67.2576 29.3916 67.2576 29.355C67.2575 29.3277 67.2515 29.3081 67.242 29.3042L67.2207 29.3075C67.2175 29.3061 67.2147 29.303 67.2124 29.2984L67.1977 29.2082C67.1931 29.1989 67.1866 29.1956 67.1788 29.2008C67.1658 29.2084 67.1526 29.1926 67.1526 29.1639C67.1525 29.1328 67.1425 29.1093 67.1296 29.109C67.1165 29.109 67.0981 29.0669 67.0902 29.0171C67.0797 28.9648 67.0608 28.9313 67.0451 28.9391C67.0322 28.9489 67.0221 28.9224 67.0221 28.8809C67.0221 28.8235 67.0168 28.8159 66.9959 28.8473C66.9749 28.8787 66.9696 28.8757 66.9696 28.8259C66.9696 28.7947 66.959 28.7687 66.9434 28.7685C66.9303 28.7685 66.9171 28.7501 66.9171 28.7291C66.9171 28.7082 66.9066 28.6898 66.8909 28.6898C66.8778 28.6898 66.8595 28.6477 66.8491 28.5979C66.8412 28.5483 66.8227 28.507 66.8097 28.5068C66.7966 28.5068 66.786 28.4831 66.7859 28.4519C66.7859 28.4231 66.7754 28.4071 66.7596 28.415C66.7441 28.425 66.7335 28.3991 66.7334 28.3575C66.7334 28.3142 66.7307 28.2991 66.7203 28.3075L66.694 28.3387C66.6837 28.3469 66.6809 28.3318 66.6809 28.2886C66.6808 28.2495 66.6703 28.2181 66.6546 28.2181C66.6416 28.2175 66.6232 28.1888 66.6128 28.1525C66.6049 28.116 66.5865 28.0877 66.5734 28.0877C66.5605 28.0872 66.5505 28.063 66.5505 28.0319C66.5504 28.0033 66.5398 27.988 66.5242 27.9958C66.5085 28.0036 66.498 27.9847 66.498 27.9507C66.4978 27.9013 66.4738 27.9175 66.3536 28.0507C66.2724 28.1424 66.1569 28.239 66.0862 28.2731C65.971 28.328 65.9265 28.3364 65.594 28.3338C65.2036 28.3338 65.1197 28.3203 64.352 28.1238C63.6813 27.9509 63.3721 27.9015 62.987 27.9015C62.6752 27.9015 62.6094 27.9094 62.4391 27.9671C62.1379 28.0693 61.9491 28.2499 61.8312 28.5511C61.7789 28.6873 61.7713 28.7503 61.7713 29.1221C61.7687 29.4312 61.7814 29.6046 61.8181 29.7775C61.8784 30.0788 62.0257 30.5975 62.0781 30.6971C62.1464 30.8306 62.3346 30.993 62.4891 31.0506C62.6725 31.1214 63.0759 31.1266 63.3275 31.0638C63.7099 30.9668 64.1791 30.7366 64.3914 30.5453C64.5512 30.3986 64.6615 30.3585 64.8606 30.3821C65.4343 30.4529 66.079 30.8096 66.6448 31.3755C66.9565 31.6872 67.1159 31.8866 67.315 32.2114C67.5088 32.5335 67.551 32.6671 67.5406 32.9472C67.5327 33.1541 67.5221 33.2042 67.4462 33.3508C67.2419 33.7438 66.9352 34.0346 66.0287 34.6895C64.525 35.7767 63.9147 36.3614 63.43 37.1734C63.189 37.5794 63.0656 37.7474 62.8771 37.9281C62.6858 38.1115 62.5648 38.19 62.3447 38.2817C62.2085 38.3367 62.1455 38.3448 61.873 38.3448C61.4645 38.3448 61.2837 38.2899 60.7336 38.0044C60.5345 37.8996 60.0258 37.5454 59.7533 37.3227C59.6239 37.217 58.9174 36.6211 58.7944 36.5164C58.7577 36.4849 58.6716 36.4115 58.5983 36.3539C58.0639 35.9321 57.4845 35.3236 57.0102 34.6895C56.5389 34.0558 56.4679 33.9533 55.8601 33.0391C55.4541 32.4313 55.2102 32.0747 54.9037 31.6503C54.8746 31.6106 54.7855 31.4802 54.7019 31.3574C54.3666 30.8519 54.1652 30.6579 53.9792 30.6552C53.8037 30.6552 53.5466 30.8512 53.4993 31.0293C53.4469 31.2284 53.5547 31.7032 53.7905 32.2901C54.0262 32.8821 54.1834 33.2202 54.7544 34.3491C55.019 34.8757 55.2476 35.3161 55.258 35.3318C55.2692 35.3463 55.3576 35.5108 55.4541 35.6985C55.551 35.8845 55.6765 36.1204 55.7289 36.2227C56.0276 36.7808 56.3793 37.4701 56.4762 37.6902C56.7302 38.2663 56.8455 38.3947 57.3589 38.6828C57.7859 38.9212 58.6219 39.1414 59.463 39.2357C60.0681 39.3038 60.3718 39.3881 60.7517 39.595C61.3359 39.9146 61.6241 40.3518 61.6294 40.9255C61.6294 41.1587 61.5853 41.3165 61.4465 41.5785C61.3573 41.749 61.0716 42.1728 60.9773 42.275C60.9511 42.3038 60.8725 42.3985 60.8017 42.485C60.7307 42.5717 60.4245 42.894 60.1208 43.2003C59.6624 43.664 59.3924 43.9233 58.6484 44.6071C58.6327 44.6202 58.522 44.722 58.4015 44.8294C58.281 44.9368 58.1711 45.0394 58.1554 45.0525C58.1385 45.0692 57.9165 45.2703 57.6632 45.5053C56.9873 46.1262 56.8193 46.3256 56.7354 46.6111C56.6856 46.7814 56.6776 47.5993 56.7248 47.9556C56.7405 48.0735 56.7642 48.2645 56.7773 48.3797C56.8035 48.5998 56.8955 49.2448 56.9348 49.4937C57.1024 50.5388 57.1702 51.0602 57.1702 51.3222C57.1702 51.6392 57.1308 51.7439 56.8872 52.0662C56.6855 52.3308 56.5205 52.4985 55.9914 52.9858C55.4071 53.5203 54.7675 54.1598 54.66 54.3196C54.4951 54.5605 54.4477 54.6863 54.4189 54.9586C54.3822 55.2835 54.2882 55.6558 54.1834 55.8995C54.1703 55.9283 54.1229 56.0407 54.0784 56.1481C53.9946 56.3419 53.7146 56.913 53.6149 57.0914C53.1145 57.9718 52.1003 59.4654 51.4715 60.2488C50.8296 61.0453 50.4132 61.3626 49.7529 61.5539C49.1922 61.7164 48.9614 61.74 47.9474 61.7426H47.0697L46.9155 61.6638C46.5958 61.5014 46.3912 61.1447 46.2444 60.4949C46.1659 60.1415 46.1479 60.0575 46.1165 59.8952C46.0877 59.7617 46.0037 59.369 45.9565 59.1619C45.9434 59.1121 45.9092 58.97 45.8778 58.8469C45.8201 58.6189 45.713 58.1764 45.6161 57.76C45.3882 56.7932 45.2096 56.1826 44.9869 55.6272C44.7695 55.0771 44.5547 54.7129 44.2404 54.354C43.8579 53.9191 43.7557 53.7008 43.6194 53.0432C43.5776 52.8327 43.5775 51.7358 43.6194 51.3927C43.6535 51.1335 43.6613 51.0703 43.7425 50.5544C43.787 50.2716 43.7847 50.2872 43.9418 49.4937C44.0833 48.7758 44.1197 48.5105 44.1223 48.1804C44.1222 47.7822 44.0408 47.2479 43.9098 46.7686C43.8129 46.428 43.5535 45.6704 43.4513 45.4373C43.4277 45.3849 43.3994 45.3167 43.3889 45.288C43.3677 45.2349 42.9954 44.3426 42.9246 44.1748C42.7674 43.8054 42.5605 43.4332 42.4111 43.2577C42.1203 42.9119 41.6853 42.6368 41.2504 42.5268C40.6085 42.3618 39.9194 42.3855 38.8034 42.6055C38.7378 42.6186 38.5676 42.639 38.4236 42.6548C38.1878 42.6757 37.9625 42.702 37.1792 42.7885C35.5704 42.9666 34.1291 43.0351 33.3483 42.9722C32.5703 42.9093 32.4364 42.8564 31.7553 42.3586C30.9563 41.7718 30.6337 41.2269 30.4346 40.1266C30.3507 39.6655 30.3279 39.2802 30.3279 38.3973C30.3279 37.4254 30.3639 36.8934 30.4739 36.2489C30.5761 35.6542 30.7863 34.8758 30.9776 34.3622C31.0012 34.3044 31.0483 34.1684 31.0875 34.0612C31.1268 33.9537 31.1663 33.8406 31.1794 33.8118C31.2045 33.7526 31.5412 32.863 31.6248 32.633C31.7113 32.4024 31.8528 31.9858 31.9497 31.6872C32.3296 30.5056 32.8823 29.8455 34.1137 29.104C34.2211 29.0385 34.5931 28.8285 34.9389 28.6373C35.2847 28.446 35.6177 28.2551 35.678 28.2132C35.7081 28.1936 35.7366 28.1749 35.7592 28.1615L35.8708 28.1057C35.9835 28.0381 36.2327 27.8699 36.6156 27.6029C37.1868 27.2046 37.4622 27.0527 37.8395 26.9269C38.5364 26.6938 39.1363 26.667 40.1265 26.8268C40.31 26.8557 41.0754 27.0026 41.2274 27.0393C41.3348 27.0629 41.518 27.0972 41.8057 27.1443C41.8922 27.16 42.2229 27.189 42.5399 27.2099C42.8569 27.2309 43.1847 27.2644 43.2659 27.2854C43.5173 27.3509 43.7769 27.5054 43.9812 27.707C44.217 27.9376 44.3191 28.0981 44.644 28.7374C45.0867 29.6016 45.2045 29.7069 45.8778 29.83C46.5013 29.9453 46.7031 29.9289 47.269 29.7324L47.6726 29.5938L48.0262 29.5962C48.2383 29.5988 48.5343 29.6229 48.7726 29.6569C49.7891 29.8089 50.1536 29.8431 50.7168 29.8431C52.0084 29.8431 52.9966 29.4919 53.8586 28.7242C54.3432 28.292 54.8518 27.6475 55.0431 27.2231C55.1872 26.9034 55.218 26.7639 55.2154 26.4233C55.2128 26.1485 55.2052 26.0856 55.1424 25.9155C54.9616 25.436 54.7307 25.1263 53.8504 24.2092C53.1748 23.5049 53.0489 23.3712 52.8865 23.1748C52.6402 22.8788 52.5982 22.8341 52.3755 22.6088C52.0979 22.3286 51.9774 22.2604 51.7471 22.2577C51.5218 22.2577 51.4532 22.2942 51.0605 22.6293C50.5025 23.1061 50.2716 23.2374 49.766 23.3684C49.6062 23.4103 48.9638 23.4049 48.7333 23.3577C48.2357 23.2582 47.8873 23.143 47.2928 22.8811C46.5277 22.5405 46.3309 22.4622 45.8253 22.2971C45.1598 22.0796 44.9422 22.0346 44.5308 22.0346C43.855 22.0346 43.5849 22.2212 42.8828 23.1617C42.0759 24.2462 41.6647 24.6368 40.9731 24.9852C40.1085 25.4202 39.0811 25.6638 37.8444 25.7293C37.1108 25.7686 36.2121 25.7159 35.7641 25.6111C35.7274 25.6007 35.6458 25.5826 35.5804 25.5668C35.3708 25.517 35.0728 25.4118 34.9208 25.3306C34.3182 25.0109 34.2468 24.3351 34.7158 23.3709C34.8756 23.0408 35.1067 22.7188 35.4106 22.407C35.8848 21.9144 36.3327 21.6679 36.7493 21.6679C36.8777 21.6679 37.1686 21.6184 37.3285 21.5686C37.5354 21.5031 37.75 21.3612 37.9675 21.1437C38.1587 20.9551 38.2115 20.8816 38.3137 20.672C38.5048 20.2767 38.544 20.1011 38.5598 19.5983C38.5702 19.2264 38.5627 19.124 38.513 18.8649C38.382 18.1837 38.4344 17.5573 38.7017 16.6246C38.7148 16.5801 38.756 16.438 38.7927 16.3096C38.9342 15.8171 39.1943 15.0706 39.4719 14.345C39.4956 14.2842 39.5168 14.2242 39.5376 14.1703C40.3354 14.1053 41.1424 14.0702 41.9575 14.0702ZM23.9844 20.2479C23.9922 20.2611 23.974 20.2877 23.9426 20.3087C23.9138 20.3296 23.861 20.3716 23.8269 20.403C23.7935 20.4364 23.76 20.4621 23.7515 20.4629C23.7436 20.4629 23.7063 20.4943 23.667 20.531C23.6305 20.5674 23.5839 20.5909 23.5628 20.5835C23.56 20.5824 23.557 20.5822 23.5546 20.5818C23.6972 20.4655 23.8412 20.3509 23.9861 20.2373C23.9824 20.2405 23.9817 20.2442 23.9844 20.2479ZM24.0525 20.2012C24.0837 20.222 24.0782 20.2274 24.0312 20.2274C24.0155 20.2275 24.0021 20.2283 23.9935 20.2315C24.0102 20.2185 24.0268 20.2052 24.0435 20.1922C24.0464 20.1942 24.0486 20.1988 24.0525 20.2012ZM24.2748 20.0174C24.2827 20.0305 24.2774 20.0437 24.2617 20.0437C24.2458 20.0441 24.207 20.0729 24.1731 20.1093C24.142 20.1429 24.0972 20.1674 24.0698 20.1717C24.1377 20.1188 24.2055 20.0656 24.274 20.0133C24.2743 20.0146 24.2742 20.0161 24.2748 20.0174ZM24.3536 19.9649C24.3614 19.978 24.3456 19.9912 24.3142 19.9912C24.3094 19.9912 24.3051 19.9922 24.3011 19.9928C24.3185 19.9796 24.3361 19.9667 24.3536 19.9535C24.3531 19.9569 24.3514 19.9606 24.3536 19.9649ZM24.4668 19.8731C24.438 19.9097 24.3984 19.9386 24.3774 19.9387C24.3757 19.9387 24.374 19.9391 24.3724 19.9395C24.4092 19.9117 24.4463 19.8843 24.4832 19.8567C24.4775 19.8619 24.4716 19.867 24.4668 19.8731ZM24.5898 19.782C24.5972 19.7949 24.5867 19.8073 24.5636 19.8074C24.5576 19.8074 24.5504 19.8088 24.5431 19.8115C24.5581 19.8003 24.5731 19.7891 24.5882 19.7779C24.5886 19.7791 24.5892 19.7808 24.5898 19.782ZM24.6415 19.7385C24.6486 19.7522 24.6439 19.754 24.6202 19.7541C24.6273 19.7489 24.6344 19.7438 24.6415 19.7385Z" fill="#10100F"/>
<path d="M66.7752 42.1265C66.7752 28.8798 55.7516 17.9831 41.9575 17.9831C28.1635 17.9833 17.1406 28.8799 17.1406 42.1265C17.1407 55.373 28.1636 66.2689 41.9575 66.2691V70.1828L41.2167 70.1729C25.9386 69.7951 13.624 57.7704 13.2367 42.8508L13.2277 42.1265C13.2277 26.6316 26.0904 14.0704 41.9575 14.0702C57.8247 14.0702 70.6881 26.6315 70.6881 42.1265L70.6791 42.8508C70.2856 58.011 57.5767 70.1828 41.9575 70.1828V66.2691C55.7516 66.2691 66.7751 55.3731 66.7752 42.1265Z" fill="#10100F"/>
<path d="M109.757 67V16.6233H115.803V37.7815C115.946 37.1578 116.282 36.4141 116.81 35.5505C117.338 34.6869 118.081 33.8473 119.041 33.0317C120.001 32.2161 121.2 31.5444 122.639 31.0166C124.079 30.4409 125.806 30.153 127.821 30.153C130.172 30.153 132.235 30.6568 134.01 31.6643C135.833 32.6719 137.273 34.1592 138.328 36.1263C139.384 38.0934 139.911 40.5162 139.911 43.3949V67H133.866V44.2585C133.866 41.1399 133.123 38.933 131.635 37.6376C130.148 36.2942 128.205 35.6225 125.806 35.6225C123.599 35.6225 121.752 36.1503 120.264 37.2058C118.777 38.2133 117.65 39.6286 116.882 41.4518C116.162 43.227 115.803 45.266 115.803 47.569V67H109.757ZM163.288 67.8636C160.074 67.8636 157.267 67.1199 154.868 65.6326C152.517 64.0973 150.67 61.9383 149.327 59.1556C148.031 56.3249 147.384 52.9425 147.384 49.0083C147.384 44.9302 148.031 41.4998 149.327 38.7171C150.67 35.9344 152.565 33.8233 155.012 32.384C157.459 30.8967 160.338 30.153 163.648 30.153C165.759 30.153 167.582 30.5368 169.118 31.3045C170.653 32.0721 171.924 33.0557 172.932 34.2551C173.939 35.4546 174.659 36.726 175.091 38.0694V31.0166H181.136V67H175.091V60.0912C174.563 61.7224 173.675 63.1378 172.428 64.3372C171.229 65.4887 169.813 66.3763 168.182 67C166.599 67.5757 164.967 67.8636 163.288 67.8636ZM164.224 62.3941C166.527 62.3941 168.47 61.7944 170.053 60.595C171.684 59.3475 172.908 57.7163 173.723 55.7012C174.587 53.6862 175.019 51.4552 175.019 49.0083C175.019 46.3695 174.587 44.0426 173.723 42.0275C172.908 40.0125 171.684 38.4292 170.053 37.2777C168.422 36.1263 166.407 35.5505 164.008 35.5505C161.657 35.5505 159.69 36.1503 158.107 37.3497C156.571 38.5012 155.42 40.0844 154.652 42.0995C153.885 44.1146 153.501 46.3695 153.501 48.8644C153.501 51.3592 153.885 53.6382 154.652 55.7012C155.42 57.7163 156.595 59.3475 158.179 60.595C159.81 61.7944 161.825 62.3941 164.224 62.3941ZM222.616 39.5807L217.146 41.7397C216.379 39.9165 215.227 38.4532 213.692 37.3497C212.205 36.1982 210.381 35.6225 208.222 35.6225C204.432 35.6225 201.65 36.8699 199.874 39.3648C198.147 41.8596 197.284 45.0501 197.284 48.9363C197.284 52.9185 198.171 56.181 199.946 58.7238C201.721 61.2187 204.48 62.4661 208.222 62.4661C210.381 62.4661 212.205 61.8904 213.692 60.7389C215.227 59.5394 216.379 58.0281 217.146 56.205L222.616 58.364C221.368 61.3386 219.593 63.6895 217.29 65.4167C214.987 67.096 212.013 67.9356 208.366 67.9356C205.344 67.9356 202.513 67.2399 199.874 65.8485C197.284 64.4572 195.196 62.3701 193.613 59.5874C192.03 56.8047 191.238 53.3263 191.238 49.1522C191.238 44.9302 192.03 41.4278 193.613 38.6451C195.196 35.8144 197.284 33.7034 199.874 32.312C202.513 30.8727 205.344 30.153 208.366 30.153C211.533 30.153 214.388 30.9926 216.93 32.6719C219.473 34.3031 221.368 36.606 222.616 39.5807ZM234.212 58.364V51.2393L254.363 31.0166H261.847L246.878 46.2736L245.151 47.425L234.212 58.364ZM232.557 67V16.6233H238.602V67H232.557ZM255.658 67L243.856 47.6409L248.318 43.8267L262.999 67H255.658ZM289.942 66.928V57.5004H266.985V51.743L289.727 16.5513H296.275V51.743H304.911V57.5724H296.275V66.928H289.942ZM273.822 51.743H289.942V26.7706L273.822 51.743ZM316.952 24.5396C315.896 24.5396 314.961 24.1558 314.145 23.3881C313.378 22.5725 312.994 21.637 312.994 20.5814C312.994 19.478 313.378 18.5424 314.145 17.7747C314.961 17.0071 315.896 16.6233 316.952 16.6233C318.055 16.6233 318.967 17.0071 319.687 17.7747C320.454 18.5424 320.838 19.478 320.838 20.5814C320.838 21.637 320.454 22.5725 319.687 23.3881C318.967 24.1558 318.055 24.5396 316.952 24.5396ZM313.929 67V31.0166H319.974V67H313.929ZM332.636 67V31.0166H338.681V37.7815C338.825 37.1578 339.161 36.4141 339.688 35.5505C340.216 34.6869 340.96 33.8473 341.919 33.0317C342.879 32.2161 344.078 31.5444 345.518 31.0166C346.957 30.4409 348.684 30.153 350.699 30.153C353.05 30.153 355.113 30.6568 356.888 31.6643C358.712 32.6719 360.151 34.1592 361.206 36.1263C362.262 38.0934 362.79 40.5162 362.79 43.3949V67H356.744V44.2585C356.744 41.1399 356.001 38.933 354.513 37.6376C353.026 36.2942 351.083 35.6225 348.684 35.6225C346.477 35.6225 344.63 36.1503 343.143 37.2058C341.655 38.2133 340.528 39.6286 339.76 41.4518C339.041 43.227 338.681 45.266 338.681 47.569V67H332.636ZM380.853 67V44.2585C380.853 41.1399 380.11 38.933 378.622 37.6376C377.135 36.2942 375.192 35.6225 372.793 35.6225C370.586 35.6225 368.739 36.1503 367.252 37.2058C365.764 38.2133 364.637 39.6286 363.869 41.4518C363.149 43.227 362.79 45.266 362.79 47.569L362.07 38.4292C362.214 37.8055 362.574 37.0378 363.149 36.1263C363.773 35.1667 364.613 34.2311 365.668 33.3196C366.724 32.408 367.995 31.6643 369.483 31.0886C371.018 30.4649 372.793 30.153 374.808 30.153C377.159 30.153 379.222 30.6568 380.997 31.6643C382.82 32.6719 384.26 34.1592 385.315 36.1263C386.371 38.0934 386.898 40.5162 386.898 43.3949V67H380.853ZM405.868 60.3071V83.5524H399.823V31.0166H405.868V38.0694C406.348 36.726 407.068 35.4546 408.027 34.2551C409.035 33.0557 410.306 32.0721 411.842 31.3045C413.377 30.5368 415.2 30.153 417.311 30.153C420.67 30.153 423.548 30.8967 425.947 32.384C428.394 33.8233 430.265 35.9344 431.561 38.7171C432.904 41.4998 433.576 44.9302 433.576 49.0083C433.576 52.9425 432.904 56.3249 431.561 59.1556C430.265 61.9383 428.418 64.0973 426.019 65.6326C423.668 67.1199 420.886 67.8636 417.671 67.8636C416.04 67.8636 414.409 67.5757 412.777 67C411.146 66.4243 409.707 65.5847 408.459 64.4812C407.26 63.3297 406.396 61.9383 405.868 60.3071ZM416.735 62.3941C419.182 62.3941 421.197 61.7944 422.781 60.595C424.364 59.3475 425.539 57.7163 426.307 55.7012C427.075 53.6382 427.459 51.3592 427.459 48.8644C427.459 46.3695 427.075 44.1146 426.307 42.0995C425.539 40.0844 424.364 38.5012 422.781 37.3497C421.245 36.1503 419.302 35.5505 416.951 35.5505C414.6 35.5505 412.585 36.1263 410.906 37.2777C409.275 38.4292 408.027 40.0125 407.164 42.0275C406.348 44.0426 405.94 46.3695 405.94 49.0083C405.94 51.4552 406.348 53.6862 407.164 55.7012C408.027 57.7163 409.251 59.3475 410.834 60.595C412.465 61.7944 414.433 62.3941 416.735 62.3941ZM457.27 67.8636C454.055 67.8636 451.248 67.1199 448.849 65.6326C446.499 64.0973 444.651 61.9383 443.308 59.1556C442.013 56.3249 441.365 52.9425 441.365 49.0083C441.365 44.9302 442.013 41.4998 443.308 38.7171C444.651 35.9344 446.547 33.8233 448.993 32.384C451.44 30.8967 454.319 30.153 457.629 30.153C459.74 30.153 461.564 30.5368 463.099 31.3045C464.634 32.0721 465.906 33.0557 466.913 34.2551C467.921 35.4546 468.64 36.726 469.072 38.0694V31.0166H475.117V67H469.072V60.0912C468.544 61.7224 467.657 63.1378 466.409 64.3372C465.21 65.4887 463.795 66.3763 462.163 67C460.58 67.5757 458.949 67.8636 457.27 67.8636ZM458.205 62.3941C460.508 62.3941 462.451 61.7944 464.034 60.595C465.666 59.3475 466.889 57.7163 467.705 55.7012C468.568 53.6862 469 51.4552 469 49.0083C469 46.3695 468.568 44.0426 467.705 42.0275C466.889 40.0125 465.666 38.4292 464.034 37.2777C462.403 36.1263 460.388 35.5505 457.989 35.5505C455.638 35.5505 453.671 36.1503 452.088 37.3497C450.553 38.5012 449.401 40.0844 448.634 42.0995C447.866 44.1146 447.482 46.3695 447.482 48.8644C447.482 51.3592 447.866 53.6382 448.634 55.7012C449.401 57.7163 450.577 59.3475 452.16 60.595C453.791 61.7944 455.806 62.3941 458.205 62.3941ZM516.597 39.5807L511.128 41.7397C510.36 39.9165 509.209 38.4532 507.673 37.3497C506.186 36.1982 504.363 35.6225 502.204 35.6225C498.414 35.6225 495.631 36.8699 493.856 39.3648C492.129 41.8596 491.265 45.0501 491.265 48.9363C491.265 52.9185 492.152 56.181 493.928 58.7238C495.703 61.2187 498.462 62.4661 502.204 62.4661C504.363 62.4661 506.186 61.8904 507.673 60.7389C509.209 59.5394 510.36 58.0281 511.128 56.205L516.597 58.364C515.35 61.3386 513.575 63.6895 511.272 65.4167C508.969 67.096 505.994 67.9356 502.348 67.9356C499.325 67.9356 496.494 67.2399 493.856 65.8485C491.265 64.4572 489.178 62.3701 487.595 59.5874C486.011 56.8047 485.22 53.3263 485.22 49.1522C485.22 44.9302 486.011 41.4278 487.595 38.6451C489.178 35.8144 491.265 33.7034 493.856 32.312C496.494 30.8727 499.325 30.153 502.348 30.153C505.514 30.153 508.369 30.9926 510.912 32.6719C513.455 34.3031 515.35 36.606 516.597 39.5807ZM539.06 67.8636C535.126 67.8636 532.343 66.976 530.712 65.2008C529.081 63.4257 528.265 60.8588 528.265 57.5004V36.5581H521.788V31.0166H523.444C524.739 31.0166 525.723 30.8967 526.394 30.6568C527.114 30.3689 527.594 29.8652 527.834 29.1455C528.121 28.4258 528.265 27.3703 528.265 25.9789V21.8768H534.311V31.0886H543.594V36.5581H534.311V57.5004C534.311 59.4195 534.766 60.7629 535.678 61.5305C536.59 62.2982 537.933 62.682 539.708 62.682C540.188 62.682 540.716 62.658 541.291 62.61C541.867 62.5621 542.443 62.4901 543.019 62.3941V67.2879C542.395 67.4798 541.723 67.6237 541.003 67.7197C540.284 67.8156 539.636 67.8636 539.06 67.8636Z" fill="#10100F"/>
</svg>
