<svg width="210" height="210" viewBox="0 0 210 210" fill="currentColor" xmlns="http://www.w3.org/2000/svg">
<path d="M0 69.9217H10.3944V10.3944H69.9218V0H0V69.9217Z" fill="currentColor"/>
<path d="M210 140.078H199.606V199.606H140.078V210H210V140.078Z" fill="currentColor"/>
<path d="M86.7648 173.187C86.8881 173.187 86.9797 173.214 86.9617 173.246C86.9603 173.248 86.9654 173.25 86.9658 173.252C86.8657 173.227 86.7663 173.2 86.6664 173.174C86.6963 173.179 86.7295 173.187 86.7648 173.187ZM86.2993 173.058C86.4227 173.058 86.5274 173.082 86.529 173.121C86.529 173.128 86.5343 173.135 86.5433 173.142C86.4132 173.108 86.2835 173.073 86.1537 173.039C86.1936 173.049 86.2445 173.058 86.2993 173.058ZM85.034 172.729C85.1519 172.736 85.3697 172.775 85.5138 172.828C85.6578 172.88 85.841 172.926 85.926 172.926C86.0045 172.926 86.0696 172.953 86.0696 172.992C86.0704 173.006 86.0916 173.019 86.125 173.031C85.7424 172.93 85.3606 172.828 84.9806 172.721C84.9972 172.722 85.0147 172.729 85.034 172.729ZM58.8537 51.4853C58.8985 51.5642 58.7351 51.7457 58.624 51.7457C58.5853 51.7459 58.5722 51.7727 58.5912 51.8114C58.6108 51.8441 58.5977 51.877 58.5584 51.877C58.5186 51.8777 58.4134 51.956 58.3287 52.0472C58.2436 52.1388 58.14 52.1983 58.1072 52.1723C58.0614 52.1462 58.0545 52.1723 58.0805 52.2441C58.1133 52.3358 58.1005 52.3486 58.0088 52.3159C57.9434 52.2898 57.9108 52.2971 57.937 52.3364C57.9628 52.3757 57.9298 52.4478 57.8775 52.5066C57.8186 52.5589 57.7729 52.584 57.7729 52.5579C57.7716 52.5338 57.7189 52.579 57.6478 52.6501C57.5823 52.7287 57.4902 52.7937 57.4509 52.7937C57.4063 52.7941 57.3932 52.8208 57.412 52.8593C57.4316 52.8921 57.4185 52.9249 57.3792 52.9249C57.3331 52.9258 57.2416 53.0041 57.17 53.0952C57.0982 53.1865 57.0011 53.2454 56.9485 53.2264C56.8898 53.2068 56.8756 53.2269 56.9013 53.2982C56.9341 53.3768 56.9143 53.3966 56.8357 53.3638C56.758 53.338 56.7443 53.3517 56.7701 53.4294C56.8028 53.5146 56.7835 53.5278 56.6983 53.4951C56.6268 53.4691 56.6003 53.4762 56.6327 53.5217C56.6784 53.6001 55.9947 54.2976 55.8677 54.301C55.8224 54.301 55.808 54.3206 55.8267 54.34C55.866 54.3858 55.6184 54.641 55.3632 54.8178C55.2846 54.8702 55.239 54.9368 55.2587 54.9696C55.277 54.9956 55.2242 55.0208 55.1397 55.0208C55.0415 55.0208 55.0155 55.0414 55.0679 55.0742C55.1267 55.1134 55.1131 55.1523 55.0085 55.2177C54.9364 55.2701 54.8386 55.3564 54.7993 55.4023C54.3538 55.9197 53.574 56.6655 53.5216 56.6328C53.4761 56.6004 53.469 56.6268 53.495 56.6984C53.5277 56.7835 53.5145 56.8029 53.4294 56.7702C53.3517 56.7444 53.3379 56.758 53.3637 56.8358C53.3965 56.9144 53.3767 56.9342 53.2981 56.9014C53.2273 56.8758 53.2074 56.8888 53.2263 56.9465C53.246 56.9924 53.1214 57.1511 52.9577 57.2952C52.7943 57.4456 52.6644 57.5963 52.6644 57.6356C52.6642 57.6747 52.6302 57.7074 52.5844 57.7074C52.5459 57.7076 52.5265 57.727 52.5516 57.7463C52.6105 57.8052 52.4151 57.9824 52.3363 57.937C52.297 57.9109 52.2896 57.9434 52.3158 58.0088C52.3485 58.0938 52.33 58.1127 52.2584 58.0868C52.1997 58.0607 52.1601 58.0804 52.1661 58.1257C52.1792 58.2434 51.5657 58.8969 51.4852 58.8537C51.4526 58.8342 51.4397 58.8532 51.4524 58.905C51.4721 58.9509 51.426 59.0635 51.354 59.1552C51.282 59.2403 51.1384 59.4106 51.0402 59.5285C50.9419 59.6529 50.7968 59.8165 50.7182 59.9017C50.6331 59.9868 50.5685 60.0789 50.5685 60.0986C50.5671 60.1195 50.4492 60.2565 50.306 60.4062C50.1619 60.5634 50.0435 60.7081 50.0435 60.7343C50.0406 60.7569 49.9233 60.9052 49.781 61.0604C49.6376 61.2104 49.5216 61.361 49.5206 61.3947C49.5206 61.4209 49.435 61.5331 49.3237 61.651C49.2198 61.7614 49.1284 61.8778 49.1268 61.9053C49.1268 61.9315 49.0545 62.031 48.9628 62.1227C48.8712 62.2143 48.7987 62.3061 48.7987 62.3257C48.7975 62.3464 48.7256 62.4378 48.6346 62.5287C48.5437 62.6198 48.4733 62.7174 48.4726 62.7441C48.4726 62.7703 48.3871 62.8891 48.2757 63.0004C48.1709 63.1183 48.0789 63.2359 48.0789 63.2752C48.0787 63.3077 48.0462 63.3404 48.0009 63.3409C47.9616 63.3409 47.9419 63.3602 47.9681 63.3798C47.9868 63.4001 47.9471 63.4783 47.8758 63.5562C47.8103 63.6282 47.7507 63.7339 47.7507 63.7797C47.7506 63.8319 47.7243 63.8506 47.6851 63.831C47.6527 63.8121 47.6196 63.8386 47.6195 63.8905C47.6195 63.9494 47.5932 63.9951 47.5539 63.9951C47.5214 63.9957 47.4884 64.0416 47.4882 64.0935C47.4882 64.1459 47.4558 64.1919 47.4165 64.1919C47.3841 64.1922 47.3641 64.2192 47.3837 64.2452C47.4028 64.2781 47.357 64.3431 47.2852 64.3888C47.22 64.4412 47.1622 64.5141 47.1622 64.5467C47.1612 64.5799 47.1078 64.6503 47.0494 64.7087C46.9839 64.7677 46.8794 64.9264 46.8074 65.0574C46.7418 65.1883 46.6308 65.3587 46.5654 65.4306C46.4935 65.5026 46.4403 65.5944 46.4403 65.6336C46.44 65.666 46.415 65.6989 46.389 65.6992C46.3563 65.6992 46.2765 65.8158 46.2045 65.9597C46.139 66.1038 46.0604 66.2222 46.0342 66.2222C46.0021 66.2226 45.9832 66.2552 45.983 66.294C45.983 66.3398 45.9291 66.4196 45.8702 66.4785C45.8046 66.5381 45.6938 66.7021 45.622 66.8456C45.5502 66.9891 45.439 67.1513 45.38 67.2107C45.3145 67.2696 45.2611 67.3494 45.2611 67.3952C45.261 67.4341 45.2299 67.4663 45.1975 67.467C45.1586 67.467 45.1321 67.4863 45.1381 67.5121C45.1512 67.6169 45.0449 67.8608 44.9924 67.8608C44.9603 67.8616 44.9352 67.8997 44.935 67.9449C44.935 67.9677 44.9197 67.9991 44.8961 68.031L44.7115 68.2115C44.6874 68.2428 44.6725 68.2737 44.6725 68.2935C44.6712 68.4059 44.457 68.7761 44.3977 68.7775C44.365 68.7775 44.3444 68.8367 44.3444 68.9087C44.3443 68.9805 44.318 69.04 44.2788 69.04C44.2463 69.0406 44.2132 69.0864 44.2132 69.1384C44.2129 69.1904 44.1941 69.2348 44.168 69.2348C44.1517 69.2349 44.1246 69.2684 44.0922 69.3209L43.8789 69.7393C43.847 69.7924 43.8202 69.8254 43.8071 69.8254C43.7748 69.8261 43.7558 69.8715 43.7558 69.93C43.7558 69.9822 43.7293 70.0087 43.6902 69.9895C43.6576 69.9699 43.6249 70.0083 43.6246 70.0797C43.6246 70.1583 43.5975 70.2192 43.5713 70.2192C43.5577 70.2207 43.5313 70.257 43.4995 70.3156L43.2903 70.7749C43.2584 70.8351 43.2317 70.873 43.2185 70.8734C43.1923 70.8734 43.1652 70.919 43.1652 70.978C43.1652 71.0304 43.1389 71.0571 43.0996 71.0374C43.067 71.0184 43.034 71.058 43.034 71.1297C43.0337 71.2014 43.0091 71.2738 42.9765 71.2999C42.9439 71.3195 42.8982 71.423 42.8719 71.5276C42.846 71.6378 42.8 71.7227 42.7674 71.7244C42.7513 71.7244 42.7371 71.7357 42.7263 71.7531L42.6894 71.8926C42.6779 71.9102 42.6615 71.9212 42.6423 71.9213C42.6095 71.9213 42.5766 71.9805 42.5766 72.0526C42.5766 72.1244 42.5502 72.1837 42.511 72.1838C42.4783 72.1838 42.4454 72.2298 42.4454 72.2822C42.4451 72.3344 42.4189 72.3807 42.3798 72.3807C42.3473 72.3808 42.3145 72.4252 42.3141 72.4771C42.3141 72.5884 41.9803 73.2498 41.9081 73.283C41.8753 73.2961 41.8568 73.3627 41.8568 73.4348C41.8567 73.5001 41.8222 73.5578 41.783 73.5578C41.7509 73.5583 41.7313 73.5853 41.7502 73.6112C41.7698 73.6439 41.7258 73.7623 41.6538 73.8737C41.5883 73.9916 41.5287 74.1289 41.5287 74.1813C41.5286 74.2335 41.5022 74.2796 41.4631 74.2797C41.4303 74.2797 41.3975 74.3447 41.3974 74.4233C41.3974 74.5014 41.3783 74.5405 41.3523 74.5217C41.3131 74.4759 41.162 74.8092 41.0898 75.1103C41.0702 75.1954 41.0303 75.262 40.9975 75.262C40.9649 75.2624 40.9381 75.3211 40.9381 75.3994C40.9381 75.4715 40.9117 75.5114 40.8724 75.4917C40.84 75.4728 40.8091 75.5108 40.8089 75.582C40.8089 75.66 40.7821 75.7206 40.7432 75.7214C40.7106 75.7214 40.6778 75.7789 40.6776 75.8506C40.6776 75.9942 40.3516 76.7177 40.2716 76.755C40.2453 76.7681 40.2182 76.8544 40.2182 76.9396C40.2181 77.0244 40.1918 77.0954 40.1526 77.0954C40.1201 77.0956 40.0873 77.1416 40.087 77.2C40.087 77.2983 39.9559 77.6332 39.8183 77.8952C39.7858 77.9605 39.7591 78.0581 39.7589 78.1106C39.7589 78.1625 39.734 78.2083 39.6953 78.209C39.6626 78.209 39.6298 78.2878 39.6297 78.3792C39.6297 78.4705 39.603 78.5296 39.564 78.5043C39.5248 78.4847 39.4985 78.5302 39.4984 78.6151C39.4984 78.7 39.4522 78.8507 39.4 78.9555C39.3478 79.0533 39.302 79.1972 39.3015 79.2631C39.3015 79.3351 39.2751 79.3881 39.2359 79.3882C39.2032 79.3882 39.1704 79.4669 39.1703 79.5584C39.1703 79.6274 39.1554 79.678 39.1313 79.6876L39.078 79.6794C39.0542 79.6894 39.039 79.74 39.039 79.8086C39.0389 79.8999 39.0122 79.9788 38.9796 79.9788C38.9469 79.981 38.9006 80.11 38.8811 80.2721C38.8549 80.4293 38.8097 80.5806 38.7704 80.6002C38.7377 80.6265 38.711 80.6986 38.7109 80.7704C38.7109 80.8359 38.6846 80.8955 38.6453 80.8955C38.6293 80.8965 38.6142 80.919 38.6022 80.955L38.5632 81.2277C38.5577 81.2419 38.5505 81.2514 38.5427 81.2565L38.4894 81.2524C38.4649 81.2656 38.4505 81.3277 38.4505 81.4123C38.4505 81.5235 38.4237 81.615 38.391 81.6153C38.3582 81.6153 38.3122 81.7469 38.2925 81.9107C38.2664 82.0676 38.2211 82.2189 38.1818 82.2388C38.1491 82.2651 38.1223 82.3502 38.1223 82.4418C38.1221 82.5266 38.0959 82.5977 38.0567 82.5977C38.024 82.5978 37.9911 82.6833 37.9911 82.7945C37.9911 82.8993 37.9648 82.9914 37.9255 82.9914C37.8929 82.9918 37.86 83.0566 37.8598 83.1411C37.8598 83.2257 37.8407 83.3173 37.8147 83.3441C37.782 83.3703 37.7618 83.4168 37.7552 83.4364C37.7028 83.7901 37.637 84.0394 37.5912 84.0394C37.5587 84.0403 37.5338 84.1255 37.5338 84.2362C37.5337 84.34 37.5069 84.4318 37.4681 84.4331C37.4354 84.4331 37.4025 84.5379 37.4025 84.669C37.4024 84.7718 37.3875 84.8424 37.3635 84.8597L37.3102 84.8556C37.2859 84.8699 37.2713 84.9351 37.2713 85.034C37.2647 85.1519 37.2252 85.3698 37.1728 85.5139C37.1205 85.6579 37.0744 85.8415 37.0744 85.9199C37.0742 86.0046 37.0479 86.0696 37.0088 86.0696C36.976 86.0696 36.9431 86.1749 36.9431 86.2993C36.9431 86.4236 36.9168 86.529 36.8775 86.529C36.8448 86.5295 36.8119 86.6341 36.8119 86.7648C36.8118 86.8889 36.7851 86.9793 36.7524 86.9597C36.7197 86.9441 36.6737 87.1139 36.6478 87.3473C36.6282 87.5827 36.576 87.7846 36.5432 87.8046C36.5105 87.8308 36.4838 87.9428 36.4838 88.0671C36.4838 88.1908 36.4591 88.3088 36.4202 88.3296C36.3874 88.3492 36.3546 88.4738 36.3546 88.5982C36.3545 88.7346 36.3277 88.8133 36.2889 88.789C36.2497 88.7628 36.2233 88.8666 36.2233 89.0433C36.2233 89.2069 36.1965 89.3445 36.1638 89.3447C36.1311 89.3447 36.0854 89.5815 36.0592 89.8697C36.0332 90.156 35.9873 90.3902 35.9547 90.3927C35.9383 90.3927 35.9244 90.4256 35.9136 90.4788L35.8767 90.8972C35.8652 90.9504 35.8492 90.9833 35.8296 90.9833C35.7969 90.9837 35.764 91.1133 35.7639 91.2766C35.7639 91.4403 35.7376 91.5719 35.6983 91.5719C35.6657 91.573 35.6327 91.7234 35.6327 91.9061C35.6327 92.0829 35.606 92.2211 35.5732 92.2015C35.5405 92.1851 35.4947 92.4716 35.4686 92.8495C35.4424 93.2293 35.3968 93.5558 35.364 93.5755C35.3313 93.5953 35.3066 93.7532 35.3066 93.9364C35.3066 94.1121 35.2799 94.2565 35.241 94.2584C35.2017 94.2584 35.1754 94.4407 35.1754 94.6829C35.1754 94.8646 35.1603 95.0137 35.1364 95.0767L35.0831 95.1423C35.0593 95.2054 35.0442 95.353 35.0441 95.534C35.0441 95.7698 35.0174 95.9605 34.9846 95.9605C34.9519 95.9612 34.9062 96.4194 34.88 96.9757C34.854 97.5293 34.8082 98.0051 34.7755 98.0298C34.7427 98.0494 34.716 98.3586 34.716 98.7188C34.716 99.1049 34.6896 99.3669 34.6504 99.3669C34.6112 99.3687 34.5848 99.7215 34.5847 100.296C34.5847 100.925 34.565 101.2 34.5191 101.135C34.48 101.079 34.4535 102.442 34.4535 105.033C34.46 108.36 34.4741 109.006 34.5458 108.911C34.5913 108.853 34.6564 108.799 34.6893 108.798C34.7221 108.798 34.9453 108.93 35.1877 109.088C35.4296 109.244 35.7433 109.395 35.8747 109.422C36.2284 109.481 37.7889 109.939 38.4833 110.174C41.3453 111.17 42.9234 112.114 43.4277 113.142C43.7224 113.751 43.8216 114.216 43.8871 115.375C43.9984 117.236 44.0447 117.53 44.3198 117.976C44.6145 118.447 44.9223 118.571 46.0814 118.689C47.1224 118.794 47.7122 118.997 49.4734 119.875C51.5302 120.897 52.0547 121.061 53.4827 121.14C55.6965 121.264 56.9609 121.46 58.6835 121.938C61.2315 122.652 62.9548 123.629 63.6033 124.717C63.675 124.835 63.6935 125.071 63.6935 125.568C63.687 126.157 63.6548 126.34 63.4782 126.864C63.0721 128.056 62.4757 129.158 60.9168 131.601C59.5351 133.755 59.3382 134.326 58.7881 137.62C58.4213 139.834 58.1077 141.02 57.5248 142.402C56.7259 144.288 55.5662 145.74 54.8588 145.741C53.8174 145.741 51.7601 147.176 50.8495 148.538C50.3979 149.212 50.2865 149.475 50.3778 149.652C50.4236 149.737 50.4824 149.804 50.5152 149.804C50.5414 149.804 50.5685 149.837 50.5685 149.869C50.5692 149.909 50.6335 150.014 50.7182 150.099C50.7969 150.184 50.9421 150.348 51.0402 150.472C51.1384 150.59 51.2821 150.761 51.354 150.846C51.4257 150.937 51.4718 151.048 51.4524 151.094C51.4393 151.146 51.4525 151.167 51.4852 151.147C51.5703 151.095 52.2096 151.773 52.1722 151.879C52.1592 151.931 52.185 151.944 52.2502 151.918C52.3353 151.885 52.3485 151.907 52.3158 151.992C52.2901 152.057 52.2974 152.089 52.3363 152.064C52.3755 152.038 52.4476 152.069 52.5065 152.121C52.5588 152.18 52.5916 152.228 52.5721 152.228C52.5525 152.228 52.7219 152.424 52.9577 152.667C53.1927 152.915 53.3697 153.149 53.3514 153.196C53.3318 153.248 53.3511 153.261 53.3904 153.235C53.4302 153.209 53.7458 153.491 54.1123 153.87C54.472 154.243 54.7925 154.577 54.8259 154.617C54.9176 154.702 55.3432 155.128 55.4022 155.187C55.4284 155.213 55.755 155.528 56.1282 155.888C56.5068 156.254 56.7879 156.567 56.7639 156.608C56.7379 156.647 56.7512 156.668 56.8029 156.649C56.8487 156.63 57.0852 156.805 57.334 157.041C57.5728 157.273 57.7672 157.442 57.7729 157.429C57.7729 157.409 57.8186 157.442 57.8775 157.494C57.9297 157.553 57.9631 157.625 57.937 157.664C57.9113 157.703 57.9435 157.709 58.0088 157.683C58.0937 157.65 58.1132 157.663 58.0805 157.748C58.0544 157.814 58.0674 157.839 58.1195 157.826C58.2243 157.787 58.9061 158.43 58.8537 158.515C58.8343 158.548 58.8548 158.561 58.907 158.548C58.9532 158.529 59.0638 158.575 59.1551 158.647C59.2404 158.719 59.4107 158.862 59.5284 158.96C59.6528 159.059 59.8165 159.204 59.9016 159.282C59.9867 159.367 60.0789 159.432 60.0985 159.432C60.1186 159.433 60.2029 159.491 60.281 159.57C60.3595 159.648 60.5299 159.785 60.6543 159.877C60.7787 159.975 60.9892 160.153 61.1136 160.265C61.2372 160.382 61.361 160.479 61.3946 160.48C61.4208 160.48 61.533 160.572 61.6509 160.677C61.7611 160.787 61.8775 160.872 61.9052 160.874C61.9314 160.874 62.0309 160.946 62.1226 161.038C62.2142 161.129 62.3193 161.2 62.3585 161.2C62.3911 161.2 62.4241 161.221 62.4241 161.247C62.4254 161.28 62.5359 161.371 62.6661 161.462C62.7967 161.554 62.9727 161.691 63.0516 161.77C63.1368 161.855 63.2359 161.922 63.2752 161.922C63.3079 161.922 63.3408 161.954 63.3408 161.994C63.341 162.026 63.3676 162.046 63.4003 162.026C63.4267 162.007 63.5052 162.047 63.5705 162.119C63.6359 162.19 63.7275 162.248 63.7797 162.248C63.8318 162.248 63.8504 162.274 63.8309 162.313C63.8113 162.353 63.8383 162.379 63.8904 162.379C63.9491 162.379 63.9946 162.406 63.995 162.445C63.995 162.477 64.0412 162.51 64.0934 162.51C64.1458 162.51 64.2581 162.583 64.3498 162.674C64.4414 162.766 64.5463 162.838 64.5856 162.838C64.6182 162.839 64.6512 162.865 64.6512 162.904C64.6516 162.937 64.6975 162.97 64.7497 162.97C64.8016 162.97 64.8479 162.989 64.8481 163.015C64.8481 163.048 64.9977 163.152 65.1742 163.263C65.3576 163.368 65.5023 163.481 65.5023 163.507C65.5031 163.533 65.5488 163.558 65.6007 163.558C65.653 163.558 65.6992 163.585 65.6992 163.612C65.7004 163.645 65.8183 163.722 65.9617 163.794C66.1046 163.859 66.2207 163.938 66.2221 163.964C66.2221 163.997 66.2552 164.018 66.2878 164.018C66.327 164.018 66.4126 164.07 66.4846 164.128C66.5501 164.194 66.7204 164.305 66.8579 164.377C66.9949 164.448 67.1514 164.554 67.2045 164.606C67.2568 164.659 67.4272 164.764 67.5777 164.836C67.7339 164.908 67.8591 164.986 67.8607 165.012C67.8607 165.045 67.9067 165.066 67.9591 165.066C68.0113 165.066 68.0576 165.092 68.0576 165.131C68.058 165.164 68.1035 165.197 68.1622 165.197C68.2142 165.197 68.2392 165.223 68.2196 165.263C68.2011 165.295 68.2274 165.328 68.2852 165.328C68.3376 165.328 68.5022 165.399 68.6462 165.49C68.7903 165.582 68.935 165.654 68.9743 165.654C69.0067 165.654 69.0397 165.681 69.0399 165.72C69.0399 165.753 69.0859 165.785 69.1383 165.785C69.1904 165.786 69.2368 165.807 69.2368 165.833C69.2395 165.866 69.3682 165.944 69.53 166.015C69.693 166.087 69.8241 166.165 69.8254 166.192C69.8254 166.224 69.8714 166.245 69.9238 166.245C69.9761 166.245 70.0222 166.271 70.0222 166.31C70.0228 166.343 70.0686 166.376 70.1207 166.376C70.1728 166.376 70.2191 166.403 70.2191 166.442C70.2199 166.474 70.2653 166.507 70.3237 166.507C70.4423 166.508 70.8283 166.71 70.861 166.782C70.8747 166.814 70.926 166.833 70.9779 166.833C71.0303 166.833 71.0702 166.854 71.0702 166.887C71.0732 166.94 71.5466 167.161 71.6588 167.162C71.6981 167.162 71.7244 167.188 71.7244 167.227C71.7247 167.26 71.7707 167.293 71.8228 167.293C71.8752 167.293 71.9213 167.319 71.9213 167.358C71.9219 167.391 71.9809 167.424 72.0525 167.424C72.1245 167.424 72.1838 167.45 72.1838 167.49C72.1845 167.522 72.2302 167.555 72.2822 167.555C72.3339 167.555 72.3799 167.58 72.3806 167.619C72.3806 167.652 72.4267 167.684 72.4791 167.684C72.5924 167.686 73.2442 168.016 73.283 168.091C73.2961 168.123 73.3627 168.144 73.4347 168.144C73.5 168.144 73.5595 168.177 73.5598 168.216C73.5598 168.248 73.5849 168.268 73.6111 168.248C73.6439 168.229 73.7622 168.275 73.8736 168.347C73.9915 168.412 74.1288 168.472 74.1812 168.472C74.2336 168.472 74.2797 168.498 74.2797 168.538C74.2806 168.57 74.3453 168.603 74.4232 168.603C74.5018 168.603 74.5413 168.622 74.5216 168.648C74.4767 168.688 74.8109 168.839 75.1184 168.911C75.196 168.93 75.2608 168.969 75.262 169.001C75.262 169.017 75.2772 169.031 75.3009 169.042L75.4855 169.079C75.5093 169.091 75.5244 169.107 75.5245 169.126C75.5245 169.159 75.5837 169.192 75.6557 169.192C75.7275 169.192 75.787 169.218 75.787 169.257C75.787 169.29 75.8314 169.323 75.8834 169.323C75.9357 169.323 76.1325 169.396 76.3222 169.487C76.5055 169.579 76.7027 169.651 76.7488 169.651C76.8012 169.651 76.8218 169.677 76.8021 169.717C76.7764 169.756 76.834 169.782 76.9252 169.782C77.0161 169.782 77.0941 169.807 77.0954 169.846C77.0954 169.879 77.1415 169.911 77.2 169.912C77.2982 169.912 77.6332 170.043 77.8952 170.18C77.9603 170.213 78.0579 170.239 78.1105 170.24C78.1629 170.24 78.2089 170.266 78.209 170.305C78.209 170.338 78.2878 170.371 78.3792 170.371C78.4709 170.371 78.5305 170.397 78.5043 170.437C78.4849 170.476 78.5304 170.502 78.615 170.502C78.7 170.502 78.8507 170.548 78.9554 170.601C79.0537 170.653 79.1996 170.699 79.2651 170.699C79.3367 170.699 79.3881 170.726 79.3881 170.765C79.3894 170.797 79.4676 170.83 79.5584 170.83C79.6266 170.83 79.6771 170.844 79.6876 170.867L79.6794 170.921C79.6893 170.945 79.7397 170.96 79.8086 170.96C79.8996 170.96 79.9782 170.987 79.9788 171.019C79.9788 171.052 80.0956 171.091 80.2392 171.117C80.3896 171.137 80.5672 171.189 80.633 171.222C80.705 171.261 80.8234 171.314 80.8955 171.353C80.9675 171.386 81.086 171.419 81.158 171.419C81.2359 171.419 81.2756 171.446 81.2564 171.485C81.2302 171.524 81.3011 171.55 81.4123 171.55C81.5236 171.55 81.6153 171.577 81.6153 171.61C81.6172 171.642 81.748 171.689 81.9106 171.708C82.0677 171.734 82.2191 171.78 82.2387 171.819C82.2654 171.851 82.3506 171.878 82.4418 171.878C82.5266 171.878 82.5976 171.905 82.5976 171.944C82.5993 171.976 82.6908 172.007 82.7945 172.008C82.905 172.008 82.9902 172.034 82.9914 172.073C82.9914 172.106 83.0834 172.139 83.1882 172.139C83.2991 172.139 83.3848 172.166 83.3851 172.198C83.3851 172.231 83.5346 172.277 83.7112 172.303C83.8934 172.329 84.0375 172.375 84.0393 172.407C84.0393 172.44 84.1314 172.467 84.2362 172.467C84.3474 172.467 84.4331 172.493 84.4331 172.533C84.4331 172.565 84.5379 172.598 84.6689 172.598C84.806 172.598 84.8837 172.625 84.8576 172.664C84.8527 172.671 84.8535 172.678 84.8555 172.684C80.1752 171.359 75.6914 169.582 71.4578 167.404C71.4534 167.401 71.4498 167.398 71.4455 167.395C69.3962 166.34 67.4059 165.191 65.4798 163.954C64.9778 163.632 64.4799 163.304 63.9868 162.97C61.7266 161.438 59.5613 159.782 57.5002 158.013C57.4222 157.946 57.3441 157.879 57.2664 157.812C55.9338 156.658 54.646 155.457 53.4048 154.211C52.2049 153.006 51.0504 151.759 49.941 150.472C49.2417 149.662 48.5601 148.836 47.8984 147.995C47.1759 147.076 46.4766 146.139 45.8005 145.185C45.4742 144.725 45.1538 144.261 44.8386 143.793C43.4676 141.756 42.2008 139.647 41.0488 137.47C40.96 137.303 40.8717 137.134 40.7842 136.966C39.6183 134.718 38.5739 132.401 37.6568 130.022C37.5027 129.622 37.3524 129.221 37.2056 128.818C35.5685 124.322 34.3871 119.615 33.7173 114.75C33.6721 114.422 33.6286 114.093 33.5881 113.763C33.3115 111.514 33.1408 109.232 33.0877 106.922C33.0754 106.388 33.0692 105.853 33.0692 105.316C33.0692 104.669 33.078 104.023 33.0959 103.38C33.228 98.6193 33.8476 93.9771 34.9047 89.4985C35.0521 88.8738 35.2098 88.2526 35.3743 87.6344C36.7005 82.6479 38.5707 77.8759 40.9257 73.3856C41.4904 72.3092 42.0848 71.2501 42.7038 70.2069C44.6746 66.8849 46.9141 63.7337 49.3975 60.7856C50.5858 59.3751 51.8323 58.0135 53.1279 56.6984C54.9382 54.8606 56.8489 53.118 58.8537 51.4812V51.4853ZM127.403 171.938C127.409 171.901 127.478 171.878 127.559 171.878C127.582 171.878 127.603 171.871 127.625 171.868C127.551 171.892 127.477 171.914 127.403 171.938ZM127.729 171.835C127.742 171.828 127.755 171.827 127.762 171.819C127.782 171.78 127.933 171.734 128.09 171.708C128.115 171.705 128.137 171.696 128.16 171.692C128.016 171.74 127.873 171.788 127.729 171.835ZM128.375 171.618C128.378 171.614 128.383 171.613 128.383 171.61C128.383 171.579 128.466 171.555 128.568 171.552C128.504 171.574 128.439 171.596 128.375 171.618ZM128.744 171.491V171.485C128.718 171.445 128.791 171.419 128.902 171.419C128.934 171.419 128.963 171.409 128.99 171.405C128.908 171.433 128.827 171.462 128.744 171.491ZM129.093 171.37C129.099 171.364 129.105 171.36 129.105 171.353C129.105 171.314 129.163 171.288 129.228 171.288C129.3 171.288 129.374 171.261 129.401 171.228C129.422 171.189 129.571 171.143 129.727 171.117C129.8 171.109 129.866 171.092 129.917 171.076C129.643 171.176 129.369 171.273 129.093 171.37ZM129.971 171.058C130.003 171.044 130.022 171.031 130.022 171.019C130.023 170.986 130.101 170.96 130.192 170.96C130.222 170.96 130.247 170.952 130.268 170.947C130.169 170.984 130.07 171.022 129.971 171.058ZM104.894 35.1755C112.951 35.1755 120.699 36.4711 127.93 38.8607C129.042 39.2283 130.143 39.6213 131.23 40.0399C132.318 40.4588 133.393 40.9024 134.454 41.3709C135.514 41.8392 136.561 42.333 137.593 42.8495C138.625 43.3656 139.643 43.9048 140.645 44.4675C142.149 45.3121 143.619 46.2086 145.052 47.1541C146.007 47.7843 146.946 48.4372 147.868 49.1105C152.938 52.8132 157.491 57.1537 161.401 62.0119C162.112 62.8952 162.801 63.7961 163.468 64.7128C164.136 65.6297 164.781 66.5633 165.404 67.5121C166.027 68.4609 166.628 69.4245 167.205 70.4037C173.258 80.6846 176.72 92.6058 176.72 105.316C176.72 113.56 175.259 121.47 172.584 128.818C172.429 129.242 172.271 129.665 172.108 130.085C170.769 133.548 169.161 136.88 167.303 140.056C167.176 140.274 167.045 140.489 166.915 140.704C166.265 141.789 165.585 142.855 164.877 143.902C164.615 144.288 164.35 144.673 164.081 145.054C163.98 145.198 163.88 145.342 163.778 145.485C163.568 145.778 163.355 146.069 163.14 146.358C162.776 146.85 162.407 147.337 162.031 147.819C161.325 148.721 160.597 149.605 159.849 150.472C159.435 150.952 159.015 151.425 158.589 151.893C150.944 160.289 141.267 166.881 130.309 170.931C130.321 170.92 130.327 170.909 130.317 170.894C130.292 170.855 130.349 170.831 130.44 170.83C130.531 170.83 130.609 170.797 130.611 170.765C130.611 170.725 130.664 170.699 130.736 170.699C130.801 170.699 130.945 170.653 131.043 170.601C131.148 170.548 131.298 170.502 131.384 170.502C131.468 170.502 131.516 170.476 131.496 170.437C131.47 170.397 131.528 170.371 131.619 170.371C131.711 170.371 131.79 170.338 131.79 170.305C131.79 170.266 131.836 170.24 131.888 170.24C131.941 170.24 132.04 170.213 132.106 170.18C132.367 170.043 132.7 169.912 132.799 169.912C132.858 169.912 132.903 169.879 132.903 169.846C132.904 169.807 132.977 169.782 133.061 169.782C133.146 169.782 133.23 169.755 133.244 169.729C133.276 169.651 134.003 169.324 134.148 169.323C134.22 169.323 134.279 169.29 134.279 169.257C134.279 169.218 134.338 169.192 134.417 169.192C134.471 169.192 134.507 169.177 134.513 169.153L134.505 169.1C134.511 169.076 134.547 169.061 134.601 169.061C134.679 169.06 134.739 169.034 134.739 169.001C134.74 168.969 134.804 168.93 134.888 168.911C135.189 168.839 135.522 168.688 135.479 168.648C135.46 168.622 135.498 168.603 135.575 168.603C135.654 168.603 135.72 168.57 135.721 168.538C135.721 168.498 135.767 168.472 135.82 168.472C135.872 168.471 136.01 168.412 136.127 168.347C136.238 168.275 136.357 168.229 136.39 168.248C136.416 168.267 136.441 168.248 136.441 168.216C136.441 168.176 136.501 168.144 136.566 168.144C136.638 168.144 136.703 168.123 136.716 168.091C136.752 168.017 137.41 167.685 137.522 167.684C137.574 167.684 137.62 167.652 137.62 167.619C137.621 167.58 137.667 167.555 137.719 167.555C137.77 167.555 137.816 167.522 137.817 167.49C137.817 167.45 137.876 167.424 137.948 167.424C138.02 167.424 138.079 167.391 138.079 167.358C138.079 167.319 138.124 167.293 138.176 167.293C138.228 167.293 138.274 167.266 138.274 167.233C138.274 167.201 138.36 167.155 138.471 167.129C138.576 167.103 138.681 167.057 138.701 167.024C138.727 166.991 138.799 166.965 138.871 166.965C138.943 166.965 138.983 166.938 138.963 166.899C138.944 166.866 138.97 166.833 139.023 166.833C139.081 166.833 139.127 166.808 139.127 166.782C139.127 166.756 139.277 166.676 139.453 166.604C139.637 166.532 139.782 166.454 139.782 166.427C139.782 166.401 139.841 166.376 139.919 166.376C139.991 166.376 140.03 166.343 140.011 166.31C139.992 166.271 140.018 166.245 140.071 166.245C140.129 166.245 140.175 166.224 140.175 166.192C140.176 166.178 140.209 166.152 140.261 166.12L140.676 165.911C140.729 165.878 140.763 165.849 140.764 165.833C140.764 165.806 140.81 165.785 140.862 165.785C140.915 165.785 140.961 165.753 140.961 165.72C140.961 165.681 141.02 165.654 141.092 165.654C141.164 165.654 141.223 165.635 141.223 165.603C141.223 165.544 141.596 165.328 141.707 165.328C141.727 165.328 141.756 165.313 141.787 165.289L141.968 165.105C142 165.081 142.031 165.066 142.054 165.066C142.1 165.066 142.14 165.039 142.14 165.006C142.141 164.954 142.382 164.85 142.487 164.863C142.513 164.869 142.534 164.836 142.534 164.803C142.534 164.764 142.566 164.738 142.606 164.738C142.651 164.737 142.729 164.686 142.788 164.621C142.818 164.591 142.873 164.548 142.94 164.504L143.37 164.249C143.437 164.205 143.493 164.161 143.522 164.128C143.581 164.07 143.659 164.018 143.705 164.018C143.744 164.018 143.777 163.997 143.777 163.964C143.778 163.938 143.896 163.859 144.039 163.794C144.182 163.722 144.3 163.645 144.302 163.612C144.302 163.585 144.334 163.558 144.367 163.558C144.407 163.558 144.498 163.507 144.57 163.435C144.642 163.37 144.812 163.257 144.943 163.191C145.074 163.119 145.231 163.015 145.29 162.949C145.349 162.89 145.421 162.839 145.454 162.838C145.487 162.838 145.56 162.779 145.612 162.713C145.658 162.642 145.723 162.596 145.756 162.615C145.782 162.635 145.809 162.615 145.809 162.582C145.809 162.543 145.853 162.511 145.905 162.51C145.958 162.51 146.004 162.477 146.004 162.445C146.004 162.406 146.05 162.379 146.108 162.379C146.161 162.379 146.187 162.346 146.168 162.313C146.149 162.275 146.169 162.248 146.221 162.248C146.267 162.247 146.371 162.19 146.443 162.125C146.521 162.053 146.601 162.013 146.621 162.033C146.641 162.058 146.66 162.039 146.66 162C146.66 161.954 146.693 161.922 146.726 161.922C146.765 161.921 146.883 161.836 147 161.725C147.111 161.621 147.227 161.53 147.255 161.528C147.281 161.528 147.38 161.456 147.472 161.364C147.564 161.272 147.655 161.2 147.675 161.2C147.696 161.199 147.787 161.129 147.878 161.038C147.969 160.947 148.067 160.875 148.093 160.874C148.12 160.874 148.238 160.782 148.35 160.677C148.467 160.567 148.577 160.482 148.604 160.48C148.637 160.48 148.788 160.362 148.938 160.218C149.096 160.073 149.247 159.955 149.266 159.955C149.293 159.955 149.438 159.839 149.595 159.695C149.745 159.551 149.883 159.432 149.902 159.432C149.923 159.431 150.015 159.367 150.099 159.282C150.184 159.204 150.348 159.059 150.472 158.96C150.59 158.862 150.761 158.719 150.846 158.647C150.937 158.575 151.048 158.529 151.094 158.548C151.146 158.561 151.166 158.548 151.147 158.515C151.101 158.437 151.754 157.822 151.873 157.835C151.919 157.841 151.938 157.801 151.912 157.742C151.886 157.67 151.907 157.65 151.992 157.683C152.057 157.709 152.089 157.703 152.064 157.664C152.018 157.586 152.193 157.39 152.252 157.447C152.272 157.473 152.293 157.453 152.293 157.414C152.294 157.369 152.326 157.336 152.365 157.336C152.405 157.335 152.556 157.204 152.706 157.041C152.849 156.878 153.006 156.753 153.052 156.772C153.111 156.792 153.124 156.773 153.097 156.701C153.065 156.623 153.085 156.603 153.163 156.635C153.242 156.661 153.255 156.648 153.229 156.569C153.196 156.485 153.216 156.471 153.3 156.504C153.372 156.53 153.399 156.523 153.366 156.477C153.343 156.416 154.084 155.644 154.599 155.201C154.644 155.162 154.729 155.062 154.781 154.99C154.846 154.886 154.887 154.874 154.927 154.933C154.959 154.984 154.978 154.958 154.978 154.861C154.978 154.776 155.005 154.722 155.031 154.742C155.064 154.761 155.129 154.716 155.181 154.637C155.357 154.383 155.611 154.135 155.659 154.172C155.678 154.192 155.698 154.179 155.698 154.133C155.698 154.008 156.4 153.32 156.479 153.366C156.525 153.398 156.53 153.372 156.504 153.3C156.471 153.216 156.485 153.196 156.569 153.229C156.648 153.255 156.661 153.242 156.635 153.163C156.603 153.085 156.623 153.065 156.701 153.097C156.773 153.123 156.792 153.111 156.772 153.052C156.753 153 156.812 152.901 156.904 152.829C156.995 152.757 157.074 152.665 157.074 152.619C157.074 152.581 157.107 152.567 157.139 152.587C157.179 152.606 157.205 152.594 157.205 152.548C157.205 152.508 157.27 152.416 157.349 152.351C157.421 152.279 157.467 152.228 157.441 152.228C157.415 152.228 157.442 152.18 157.494 152.121C157.553 152.069 157.625 152.038 157.664 152.064C157.703 152.089 157.709 152.057 157.683 151.992C157.65 151.901 157.664 151.886 157.755 151.918C157.826 151.944 157.854 151.938 157.828 151.893C157.802 151.861 157.86 151.755 157.952 151.67C158.043 151.585 158.122 151.48 158.122 151.44C158.122 151.402 158.155 151.388 158.187 151.407C158.227 151.427 158.253 151.414 158.253 151.375C158.254 151.263 158.437 151.101 158.515 151.147C158.548 151.166 158.562 151.146 158.542 151.094C158.523 151.041 158.582 150.923 158.673 150.831C158.765 150.733 158.844 150.642 158.844 150.622C158.844 150.602 158.908 150.516 158.993 150.431C159.072 150.346 159.177 150.216 159.229 150.144C159.282 150.066 159.348 150.02 159.381 150.04C159.407 150.057 159.432 150.005 159.432 149.921C159.432 149.803 159.446 149.791 159.498 149.869C159.55 149.954 159.563 149.947 159.563 149.843C159.563 149.777 159.636 149.653 159.728 149.568C159.819 149.483 159.892 149.384 159.892 149.344C159.892 149.305 159.925 149.292 159.957 149.312C159.996 149.331 160.023 149.291 160.023 149.213C160.023 149.136 160.054 149.097 160.086 149.115C160.126 149.134 160.152 149.109 160.152 149.057C160.152 149.005 160.225 148.906 160.316 148.834C160.408 148.762 160.48 148.657 160.48 148.592C160.48 148.533 160.513 148.506 160.546 148.526C160.585 148.546 160.611 148.52 160.611 148.454C160.611 148.369 160.632 148.363 160.704 148.422C160.782 148.487 160.787 148.473 160.761 148.368C160.742 148.277 160.763 148.218 160.835 148.192C160.893 148.172 160.939 148.107 160.94 148.054C160.94 147.937 161.102 147.767 161.161 147.819C161.181 147.845 161.2 147.792 161.2 147.714C161.2 147.636 161.227 147.59 161.266 147.609C161.305 147.629 161.331 147.616 161.331 147.577C161.331 147.465 161.568 147.178 161.62 147.23C161.64 147.248 161.659 147.215 161.659 147.144C161.659 147.072 161.719 146.973 161.791 146.92C161.862 146.868 161.922 146.79 161.922 146.744C161.922 146.698 161.954 146.66 161.994 146.66C162.026 146.66 162.046 146.633 162.026 146.607C162.007 146.574 162.053 146.509 162.125 146.463C162.19 146.411 162.248 146.311 162.248 146.246C162.248 146.181 162.281 146.149 162.314 146.168C162.353 146.187 162.379 146.161 162.379 146.096C162.379 146.011 162.399 146.004 162.471 146.063C162.544 146.122 162.551 146.108 162.531 145.977C162.512 145.873 162.551 145.775 162.668 145.657C162.76 145.566 162.838 145.455 162.839 145.415C162.839 145.382 162.871 145.349 162.904 145.349C162.943 145.349 162.97 145.303 162.97 145.245C162.97 145.192 162.997 145.16 163.029 145.179C163.062 145.198 163.106 145.145 163.126 145.054C163.152 144.962 163.2 144.89 163.232 144.89C163.271 144.889 163.298 144.844 163.298 144.785C163.298 144.734 163.329 144.708 163.361 144.726C163.401 144.746 163.427 144.707 163.427 144.636C163.427 144.558 163.46 144.499 163.493 144.498C163.532 144.498 163.558 144.452 163.558 144.394C163.558 144.341 163.585 144.309 163.618 144.328C163.651 144.347 163.697 144.294 163.716 144.203C163.742 144.111 163.788 144.039 163.821 144.039C163.86 144.039 163.886 143.98 163.886 143.902C163.886 143.83 163.919 143.79 163.952 143.809C163.991 143.829 164.018 143.784 164.018 143.699C164.018 143.581 164.031 143.567 164.083 143.645C164.136 143.724 164.149 143.718 164.149 143.606C164.149 143.528 164.195 143.431 164.247 143.385C164.3 143.339 164.346 143.259 164.346 143.206C164.346 143.148 164.385 143.122 164.43 143.141C164.495 143.167 164.515 143.128 164.496 143.003C164.47 142.867 164.482 142.847 164.535 142.925C164.593 143.004 164.606 142.998 164.606 142.874C164.606 142.796 164.633 142.729 164.666 142.729C164.699 142.729 164.745 142.656 164.764 142.564C164.79 142.473 164.836 142.403 164.869 142.402C164.908 142.402 164.934 142.343 164.934 142.271C164.934 142.199 164.967 142.14 165 142.14C165.039 142.14 165.065 142.094 165.066 142.035C165.066 141.983 165.099 141.956 165.131 141.976C165.17 141.995 165.197 141.956 165.197 141.877C165.197 141.799 165.23 141.759 165.263 141.779C165.302 141.798 165.328 141.759 165.328 141.681C165.328 141.609 165.374 141.53 165.427 141.51C165.479 141.484 165.523 141.411 165.523 141.346C165.523 141.282 165.556 141.224 165.589 141.223C165.628 141.223 165.654 141.164 165.654 141.086C165.654 141.014 165.687 140.974 165.72 140.994C165.759 141.013 165.785 140.974 165.786 140.895C165.786 140.817 165.818 140.777 165.851 140.797C165.89 140.816 165.917 140.776 165.917 140.704C165.917 140.633 165.963 140.536 166.015 140.477C166.068 140.424 166.114 140.325 166.114 140.259C166.114 140.161 166.127 140.156 166.179 140.241C166.231 140.319 166.245 140.298 166.245 140.155C166.245 140.076 166.26 140.019 166.284 140.007L166.337 140.015C166.361 140.009 166.376 139.973 166.376 139.919C166.376 139.84 166.409 139.782 166.442 139.782C166.481 139.781 166.507 139.722 166.507 139.656C166.508 139.584 166.554 139.486 166.606 139.427C166.658 139.374 166.702 139.282 166.702 139.224C166.703 139.166 166.735 139.141 166.768 139.16C166.807 139.18 166.833 139.14 166.833 139.062C166.833 138.983 166.866 138.944 166.899 138.963C166.938 138.983 166.965 138.943 166.965 138.871C166.965 138.792 166.991 138.734 167.024 138.734C167.057 138.733 167.103 138.628 167.123 138.504C167.149 138.38 167.194 138.274 167.227 138.274C167.266 138.274 167.293 138.228 167.293 138.176C167.293 138.124 167.326 138.077 167.358 138.077C167.398 138.077 167.424 138.018 167.424 137.94C167.424 137.868 167.457 137.83 167.49 137.85C167.529 137.869 167.555 137.842 167.555 137.784C167.555 137.725 167.601 137.633 167.654 137.581C167.706 137.522 167.75 137.423 167.75 137.351C167.75 137.286 167.783 137.227 167.816 137.226C167.855 137.226 167.881 137.167 167.881 137.095C167.882 137.024 167.915 136.967 167.947 136.966C167.986 136.966 168.013 136.905 168.013 136.826C168.013 136.755 168.046 136.717 168.078 136.736C168.118 136.762 168.144 136.703 168.144 136.611C168.144 136.52 168.177 136.441 168.216 136.441C168.232 136.441 168.244 136.434 168.249 136.422L168.236 136.328C168.241 136.317 168.253 136.31 168.269 136.31C168.289 136.309 168.307 136.295 168.32 136.271L168.361 136.086C168.374 136.062 168.39 136.047 168.406 136.047C168.446 136.047 168.472 135.969 168.472 135.865C168.472 135.727 168.485 135.708 168.538 135.787C168.56 135.822 168.576 135.831 168.587 135.811L168.62 135.5C168.63 135.479 168.646 135.488 168.669 135.524C168.721 135.602 168.734 135.583 168.735 135.446C168.735 135.348 168.779 135.228 168.831 135.169C168.89 135.117 168.936 135.052 168.929 135.032C168.916 134.829 168.943 134.739 168.995 134.772C169.034 134.798 169.06 134.738 169.061 134.64C169.061 134.567 169.076 134.516 169.1 134.505L169.153 134.513C169.161 134.51 169.168 134.502 169.173 134.491L169.21 134.265C169.222 134.242 169.238 134.234 169.257 134.247C169.297 134.266 169.323 134.213 169.323 134.121C169.323 134.037 169.369 133.92 169.422 133.861C169.474 133.809 169.52 133.703 169.52 133.631C169.52 133.553 169.553 133.494 169.586 133.494C169.625 133.493 169.651 133.415 169.651 133.324C169.651 133.254 169.666 133.204 169.69 133.194L169.744 133.203C169.767 133.192 169.782 133.14 169.782 133.067C169.783 132.976 169.807 132.911 169.84 132.93C169.873 132.95 169.912 132.85 169.938 132.706C169.958 132.564 170.01 132.448 170.043 132.446C170.082 132.446 170.108 132.367 170.109 132.276C170.109 132.184 170.135 132.125 170.174 132.151C170.194 132.164 170.21 132.152 170.221 132.122L170.258 131.851C170.264 131.836 170.271 131.825 170.279 131.82L170.332 131.825C170.356 131.81 170.371 131.747 170.371 131.658C170.371 131.548 170.398 131.469 170.431 131.488C170.463 131.508 170.503 131.411 170.529 131.267C170.549 131.123 170.601 131.004 170.634 131.004C170.673 131.004 170.699 130.912 170.699 130.801C170.699 130.717 170.714 130.655 170.738 130.641L170.791 130.645C170.815 130.629 170.83 130.565 170.83 130.467C170.83 130.343 170.842 130.298 170.867 130.315L170.925 130.385C170.95 130.4 170.962 130.354 170.962 130.231C170.962 130.12 170.987 130.023 171.019 130.022C171.058 130.022 171.106 129.89 171.132 129.727C171.152 129.564 171.196 129.454 171.228 129.472C171.244 129.482 171.259 129.467 171.269 129.437L171.308 129.165C171.321 129.128 171.337 129.106 171.353 129.105C171.393 129.105 171.419 129.013 171.419 128.902C171.419 128.819 171.434 128.757 171.458 128.742L171.511 128.746C171.535 128.733 171.55 128.674 171.55 128.586C171.55 128.482 171.583 128.384 171.622 128.371C171.655 128.358 171.707 128.227 171.727 128.07C171.746 127.919 171.786 127.814 171.819 127.834C171.852 127.853 171.878 127.762 171.878 127.631C171.878 127.523 171.893 127.452 171.917 127.434H171.971C171.994 127.416 172.01 127.347 172.01 127.245C172.01 127.114 172.043 127.009 172.075 127.009C172.114 127.008 172.139 126.923 172.139 126.819C172.139 126.714 172.173 126.616 172.213 126.603C172.232 126.596 172.253 126.555 172.272 126.495L172.36 126.054C172.377 125.998 172.394 125.963 172.407 125.961C172.44 125.961 172.467 125.869 172.467 125.758C172.467 125.647 172.493 125.574 172.533 125.6C172.572 125.627 172.598 125.528 172.598 125.358C172.598 125.182 172.618 125.109 172.658 125.162C172.69 125.22 172.722 125.108 172.748 124.866C172.768 124.657 172.821 124.479 172.861 124.466C172.893 124.452 172.926 124.322 172.926 124.185C172.926 124.066 172.941 123.985 172.965 123.964L173.019 123.96C173.042 123.935 173.058 123.847 173.058 123.72C173.058 123.517 173.077 123.465 173.123 123.537C173.169 123.608 173.187 123.543 173.187 123.308C173.187 123.105 173.207 123.013 173.246 123.066C173.279 123.124 173.319 122.987 173.345 122.692C173.371 122.439 173.416 122.23 173.455 122.227C173.488 122.227 173.515 122.109 173.515 121.964C173.515 121.821 173.548 121.703 173.581 121.702C173.62 121.702 173.646 121.585 173.646 121.435C173.646 121.278 173.672 121.186 173.712 121.212C173.751 121.238 173.777 121.133 173.777 120.949C173.777 120.786 173.804 120.661 173.837 120.681C173.87 120.699 173.915 120.463 173.941 120.149C173.974 119.783 174.007 119.621 174.046 119.68C174.085 119.737 174.105 119.632 174.106 119.378C174.106 119.17 174.117 119.067 174.142 119.061L174.2 119.106C174.208 119.104 174.215 119.092 174.22 119.069L174.253 118.536C174.264 118.475 174.281 118.448 174.3 118.46C174.34 118.486 174.366 118.362 174.366 118.134C174.366 117.931 174.393 117.78 174.425 117.799C174.478 117.832 174.563 117.182 174.563 116.704C174.563 116.555 174.59 116.47 174.628 116.495C174.668 116.521 174.694 116.384 174.694 116.122C174.694 115.834 174.714 115.736 174.76 115.808C174.805 115.873 174.825 115.749 174.825 115.396C174.825 115.068 174.852 114.898 174.891 114.924C174.91 114.936 174.927 114.903 174.938 114.832L174.975 114.176C174.986 114.089 175 114.032 175.016 114.026C175.049 114.007 175.101 113.551 175.127 113.011C175.153 112.462 175.199 112.03 175.225 112.047C175.258 112.066 175.285 111.747 175.285 111.341C175.285 110.837 175.305 110.634 175.35 110.699C175.396 110.76 175.416 110.458 175.422 109.781C175.422 109.154 175.447 108.821 175.48 108.897C175.512 108.969 175.539 107.306 175.539 105C175.539 102.697 175.512 101.033 175.48 101.102C175.447 101.18 175.422 100.866 175.422 100.263C175.416 99.6385 175.389 99.312 175.35 99.3341C175.311 99.3603 175.285 99.1181 175.285 98.6471C175.285 98.2485 175.258 97.934 175.225 97.9518C175.199 97.9715 175.153 97.5382 175.127 96.988C175.101 96.4407 175.055 95.9835 175.016 95.9728C175 95.9663 174.984 95.9053 174.973 95.8108L174.94 95.089C174.93 95.0239 174.914 95.0112 174.891 95.0438C174.845 95.109 174.825 94.9773 174.825 94.6173C174.825 94.2574 174.806 94.1273 174.76 94.1928C174.714 94.2637 174.694 94.1643 174.694 93.8769C174.694 93.6154 174.668 93.4775 174.628 93.5037C174.589 93.5299 174.563 93.4452 174.563 93.2945C174.563 92.8164 174.478 92.1687 174.425 92.2015C174.393 92.2189 174.366 92.048 174.366 91.82C174.366 91.6015 174.355 91.4919 174.329 91.4837L174.272 91.5288C174.247 91.5213 174.237 91.4182 174.237 91.2109C174.237 91.0032 174.225 90.9015 174.2 90.8951L174.142 90.9402C174.117 90.9334 174.106 90.8304 174.106 90.6224C174.106 90.367 174.085 90.262 174.046 90.3209C174.007 90.3798 173.974 90.216 173.941 89.8492C173.915 89.5371 173.87 89.3022 173.837 89.3181C173.804 89.3377 173.777 89.2132 173.777 89.0494C173.777 88.8664 173.751 88.7628 173.712 88.789C173.673 88.8142 173.646 88.722 173.646 88.5654C173.646 88.4148 173.62 88.2968 173.581 88.2968C173.548 88.2961 173.515 88.178 173.515 88.0343C173.515 87.8904 173.488 87.7718 173.455 87.7718C173.416 87.7683 173.371 87.5614 173.345 87.3083C173.318 87.0135 173.279 86.8761 173.246 86.9351C173.207 86.986 173.187 86.8932 173.187 86.691C173.187 86.456 173.169 86.3914 173.123 86.4634C173.1 86.4995 173.085 86.5006 173.074 86.4634L173.041 86.004C173.03 85.9672 173.015 85.9684 172.992 86.004C172.946 86.076 172.926 86.0305 172.926 85.8276C172.926 85.6774 172.893 85.546 172.861 85.5323C172.821 85.5192 172.768 85.342 172.748 85.1324C172.722 84.8906 172.69 84.7803 172.658 84.8392C172.619 84.8909 172.598 84.8184 172.598 84.6423C172.598 84.472 172.572 84.3741 172.533 84.4003C172.494 84.4255 172.467 84.3532 172.467 84.2424C172.467 84.131 172.441 84.0394 172.401 84.0394C172.369 84.0385 172.336 83.9398 172.336 83.8158C172.336 83.6916 172.303 83.5668 172.27 83.5472C172.251 83.5339 172.237 83.5175 172.231 83.5L172.243 83.3975C172.238 83.3808 172.224 83.3653 172.204 83.3524C172.172 83.3326 172.139 83.2406 172.139 83.1493C172.139 83.0649 172.114 82.9926 172.075 82.9914C172.043 82.9914 172.01 82.8865 172.01 82.7556C172.01 82.653 171.995 82.5829 171.971 82.5649H171.917C171.893 82.5467 171.878 82.4758 171.878 82.368C171.878 82.2381 171.851 82.1465 171.819 82.165C171.786 82.1846 171.746 82.0798 171.727 81.9291C171.707 81.7726 171.655 81.6431 171.622 81.6297C171.583 81.6166 171.55 81.5171 171.55 81.4123C171.55 81.3238 171.535 81.2651 171.511 81.2524L171.458 81.2565C171.434 81.2416 171.419 81.1814 171.419 81.0985C171.419 80.9872 171.393 80.8955 171.353 80.8955C171.321 80.8949 171.288 80.8033 171.288 80.6925C171.288 80.6088 171.273 80.547 171.249 80.5325L171.195 80.5366C171.172 80.5239 171.157 80.4689 171.157 80.391C171.157 80.2862 171.11 80.1411 171.058 80.0691C171.006 80.0032 170.962 79.8535 170.962 79.7491C170.962 79.5986 170.942 79.5724 170.896 79.6507C170.85 79.7227 170.83 79.6955 170.83 79.5318C170.83 79.402 170.804 79.3304 170.765 79.3554C170.726 79.3815 170.699 79.3168 170.699 79.1995C170.699 79.0952 170.666 78.996 170.627 78.9821C170.595 78.969 170.542 78.8317 170.523 78.6745C170.497 78.4919 170.463 78.4262 170.431 78.4838C170.391 78.5361 170.371 78.4979 170.371 78.3546C170.371 78.2555 170.356 78.1887 170.332 78.1741L170.279 78.1782C170.255 78.1631 170.24 78.1002 170.24 78.0121C170.24 77.8947 170.213 77.824 170.174 77.8501C170.135 77.8751 170.109 77.816 170.109 77.725C170.109 77.6333 170.082 77.5548 170.043 77.5548C170.01 77.5531 169.958 77.4354 169.938 77.2923C169.912 77.1483 169.873 77.0491 169.84 77.0688C169.807 77.0882 169.783 77.0307 169.782 76.9396C169.782 76.8484 169.756 76.7703 169.717 76.7694C169.684 76.7694 169.651 76.7098 169.651 76.6381C169.651 76.5663 169.625 76.5073 169.586 76.5069C169.553 76.5069 169.52 76.4478 169.52 76.3694C169.52 76.2975 169.474 76.1922 169.422 76.1398C169.369 76.0808 169.323 75.969 169.323 75.8773C169.323 75.7923 169.297 75.7214 169.257 75.7214C169.225 75.7212 169.192 75.6604 169.192 75.582C169.192 75.5105 169.165 75.4721 169.126 75.4917C169.087 75.5169 169.061 75.4437 169.061 75.3133C169.061 75.1504 169.041 75.1245 168.995 75.1964C168.943 75.2747 168.929 75.2616 168.929 75.1308C168.929 75.0391 168.883 74.9092 168.831 74.8437C168.779 74.7717 168.735 74.64 168.735 74.5484C168.735 74.4108 168.721 74.398 168.669 74.4766C168.646 74.5125 168.63 74.5217 168.62 74.5012L168.587 74.1895C168.576 74.1688 168.561 74.178 168.538 74.2141C168.485 74.2927 168.472 74.2721 168.472 74.1279C168.472 74.0303 168.445 73.952 168.406 73.9516C168.39 73.9516 168.374 73.9367 168.361 73.9126L168.32 73.728C168.307 73.7044 168.289 73.6893 168.269 73.6891C168.236 73.6891 168.223 73.6562 168.242 73.6235C168.262 73.5845 168.248 73.5578 168.216 73.5578C168.177 73.5572 168.144 73.4789 168.144 73.3876C168.144 73.3192 168.129 73.2702 168.105 73.2605L168.052 73.2687C168.044 73.2653 168.037 73.2576 168.031 73.2461L167.994 73.0205C167.983 72.9973 167.967 72.9891 167.947 73.0021C167.914 73.0211 167.881 72.9815 167.881 72.9098C167.881 72.8321 167.856 72.7734 167.824 72.7724C167.791 72.7724 167.745 72.6672 167.726 72.5427C167.699 72.4121 167.652 72.3283 167.613 72.3479C167.58 72.3722 167.555 72.3061 167.555 72.2023C167.555 72.0588 167.542 72.0397 167.49 72.1182C167.437 72.1968 167.424 72.1893 167.424 72.0649C167.424 71.9867 167.397 71.9217 167.358 71.9213C167.326 71.9213 167.293 71.8753 167.293 71.8229C167.293 71.7706 167.266 71.7245 167.227 71.7244C167.194 71.7244 167.149 71.6192 167.123 71.4947C167.103 71.3708 167.057 71.2675 167.024 71.2671C166.992 71.2671 166.965 71.2078 166.965 71.1297C166.965 71.0577 166.938 71.0178 166.899 71.0374C166.86 71.0626 166.834 70.9976 166.833 70.8939C166.833 70.7855 166.827 70.7478 166.801 70.7688L166.735 70.8467C166.709 70.8673 166.702 70.8296 166.702 70.7216C166.702 70.6238 166.676 70.5452 166.637 70.5452C166.604 70.5438 166.558 70.4719 166.532 70.3812C166.512 70.2899 166.466 70.2192 166.434 70.2192C166.401 70.2181 166.376 70.1576 166.376 70.0797C166.376 70.0084 166.35 69.9701 166.311 69.9895C166.271 70.0091 166.245 69.9618 166.245 69.8767C166.245 69.7533 166.185 69.7936 165.884 70.1269C165.681 70.356 165.392 70.5975 165.215 70.6826C164.927 70.82 164.816 70.8409 163.985 70.8344C163.009 70.8344 162.799 70.8007 160.88 70.3094C159.203 69.8771 158.43 69.7537 157.468 69.7536C156.688 69.7536 156.523 69.7736 156.098 69.9177C155.345 70.1732 154.873 70.6249 154.578 71.3779C154.447 71.7181 154.428 71.8758 154.428 72.8052C154.422 73.5781 154.453 74.0115 154.545 74.4438C154.696 75.1971 155.064 76.4938 155.195 76.7427C155.366 77.0766 155.837 77.4826 156.223 77.6266C156.681 77.8034 157.69 77.8165 158.319 77.6594C159.275 77.4171 160.448 76.8414 160.978 76.3633C161.378 75.9965 161.654 75.8962 162.152 75.9552C163.586 76.1323 165.197 77.0241 166.612 78.4387C167.391 79.2179 167.79 79.7164 168.287 80.5284C168.772 81.3338 168.878 81.6677 168.851 82.368C168.832 82.8852 168.805 83.0105 168.616 83.377C168.105 84.3595 167.338 85.0864 165.072 86.7238C161.313 89.4418 159.787 90.9035 158.575 92.9336C157.973 93.9485 157.664 94.3685 157.193 94.8203C156.715 95.2788 156.412 95.4749 155.862 95.7042C155.521 95.8417 155.364 95.8621 154.683 95.8621C153.661 95.862 153.209 95.7248 151.834 95.011C151.336 94.749 150.065 93.8636 149.383 93.3068C149.06 93.0426 147.294 91.5527 146.986 91.2909C146.894 91.2123 146.679 91.0288 146.496 90.8849C145.16 89.8303 143.711 88.309 142.526 86.7238C141.347 85.1395 141.17 84.8833 139.65 82.5977C138.635 81.0783 138.025 80.1867 137.259 79.1257C137.186 79.0264 136.964 78.7005 136.755 78.3936C135.916 77.1297 135.413 76.6449 134.948 76.6381C134.509 76.6381 133.867 77.128 133.748 77.5733C133.617 78.0711 133.887 79.2581 134.476 80.7253C135.066 82.2052 135.458 83.0505 136.886 85.8728C137.547 87.1894 138.119 88.2903 138.145 88.3296C138.173 88.3657 138.394 88.777 138.635 89.2463C138.877 89.7112 139.191 90.3011 139.322 90.5567C140.069 91.9519 140.948 93.6754 141.19 94.2256C141.826 95.6658 142.114 95.9868 143.397 96.707C144.465 97.3031 146.555 97.8534 148.657 98.0892C150.17 98.2595 150.93 98.4701 151.879 98.9875C153.34 99.7865 154.06 100.88 154.074 102.314C154.074 102.897 153.963 103.291 153.616 103.946C153.393 104.372 152.679 105.432 152.443 105.687C152.378 105.759 152.181 105.996 152.004 106.212C151.827 106.429 151.061 107.235 150.302 108.001C149.156 109.16 148.481 109.808 146.621 111.518C146.582 111.55 146.305 111.805 146.004 112.074C145.702 112.342 145.428 112.599 145.388 112.631C145.346 112.673 144.791 113.176 144.158 113.763C142.468 115.315 142.048 115.814 141.839 116.528C141.714 116.954 141.694 118.998 141.812 119.889C141.851 120.184 141.91 120.661 141.943 120.949C142.009 121.499 142.239 123.112 142.337 123.734C142.756 126.347 142.925 127.65 142.925 128.305C142.925 129.098 142.827 129.36 142.218 130.165C141.714 130.827 141.301 131.246 139.978 132.464C138.518 133.801 136.919 135.399 136.65 135.799C136.238 136.401 136.119 136.716 136.047 137.397C135.955 138.209 135.721 139.14 135.459 139.749C135.426 139.821 135.307 140.102 135.196 140.37C134.987 140.855 134.287 142.283 134.037 142.729C132.786 144.929 130.251 148.663 128.679 150.622C127.074 152.613 126.033 153.407 124.382 153.885C122.981 154.291 122.403 154.35 119.869 154.356H117.674L117.289 154.16C116.49 153.753 115.978 152.862 115.611 151.237C115.415 150.354 115.37 150.144 115.291 149.738C115.219 149.404 115.009 148.422 114.891 147.905C114.859 147.78 114.773 147.425 114.694 147.117C114.55 146.547 114.282 145.441 114.04 144.4C113.47 141.983 113.024 140.456 112.467 139.068C111.924 137.693 111.387 136.782 110.601 135.885C109.645 134.798 109.389 134.252 109.049 132.608C108.944 132.082 108.944 129.339 109.049 128.482C109.134 127.834 109.153 127.676 109.356 126.386C109.467 125.679 109.462 125.718 109.855 123.734C110.208 121.939 110.299 121.276 110.306 120.451C110.306 119.455 110.102 118.12 109.775 116.922C109.532 116.07 108.884 114.176 108.628 113.593C108.569 113.462 108.498 113.292 108.472 113.22C108.419 113.087 107.489 110.856 107.312 110.437C106.919 109.513 106.401 108.583 106.028 108.144C105.301 107.28 104.213 106.592 103.126 106.317C101.521 105.904 99.7986 105.964 97.0085 106.514C96.8444 106.547 96.4189 106.598 96.0589 106.637C95.4695 106.689 94.9061 106.755 92.9479 106.971C88.9261 107.417 85.3227 107.588 83.3708 107.431C81.4257 107.273 81.0911 107.141 79.3881 105.897C77.3908 104.429 76.5842 103.067 76.0864 100.316C75.8768 99.1637 75.8198 98.2006 75.8198 95.9934C75.8198 93.5634 75.9098 92.2336 76.1848 90.6224C76.4403 89.1355 76.9658 87.1894 77.444 85.9056C77.503 85.7611 77.6207 85.4211 77.7188 85.1529C77.8171 84.8844 77.9158 84.6016 77.9485 84.5295C78.0114 84.3815 78.853 82.1575 79.0621 81.5825C79.2783 81.006 79.6319 79.9645 79.8742 79.218C80.824 76.2641 82.2057 74.6137 85.2841 72.7601C85.5528 72.5963 86.4827 72.0713 87.3472 71.5932C88.2118 71.1151 89.0443 70.6377 89.195 70.5329C89.2702 70.4839 89.3416 70.4373 89.398 70.4037L89.6769 70.2643C89.9589 70.0953 90.5817 69.6748 91.539 69.0072C92.967 68.0115 93.6556 67.6317 94.5988 67.3173C96.341 66.7344 97.8407 66.6676 100.316 67.0671C100.775 67.1392 102.689 67.5066 103.069 67.5983C103.337 67.6572 103.795 67.7431 104.514 67.8608C104.73 67.9001 105.557 67.9724 106.35 68.0248C107.142 68.0772 107.962 68.1611 108.165 68.2135C108.793 68.3774 109.442 68.7635 109.953 69.2676C110.542 69.844 110.798 70.2452 111.61 71.8434C112.717 74.0041 113.011 74.2672 114.694 74.575C116.253 74.8632 116.758 74.8222 118.173 74.331L119.182 73.9844L120.065 73.9905C120.596 73.9971 121.336 74.0572 121.932 74.1423C124.473 74.5222 125.384 74.6078 126.792 74.6078C130.021 74.6078 132.491 73.7296 134.646 71.8106C135.858 70.73 137.129 69.1188 137.608 68.0576C137.968 67.2585 138.045 66.9097 138.038 66.0581C138.032 65.3713 138.013 65.2139 137.856 64.7887C137.404 63.59 136.827 62.8157 134.626 60.5231C132.937 58.7622 132.622 58.4281 132.216 57.937C131.601 57.1969 131.495 57.0853 130.939 56.522C130.245 55.8215 129.944 55.651 129.368 55.6443C128.805 55.6443 128.633 55.7355 127.651 56.5733C126.256 57.7653 125.679 58.0935 124.415 58.421C124.016 58.5258 122.41 58.5123 121.833 58.3944C120.589 58.1455 119.718 57.8576 118.232 57.2029C116.319 56.3513 115.827 56.1554 114.563 55.7427C112.899 55.1991 112.355 55.0865 111.327 55.0865C109.637 55.0866 108.962 55.5529 107.207 57.9042C105.19 60.6155 104.162 61.592 102.433 62.4631C100.271 63.5505 97.7028 64.1594 94.6111 64.3232C92.7771 64.4214 90.5304 64.2899 89.4103 64.0279C89.3185 64.0016 89.1145 63.9564 88.9509 63.9171C88.4271 63.7926 87.6819 63.5294 87.3021 63.3265C85.7956 62.5274 85.6169 60.8377 86.7894 58.4272C87.189 57.6019 87.7667 56.7969 88.5264 56.0175C89.712 54.7861 90.8318 54.1698 91.8733 54.1698C92.1943 54.1698 92.9216 54.0461 93.3212 53.9216C93.8386 53.7579 94.3751 53.403 94.9187 52.8593C95.3967 52.3878 95.5287 52.2041 95.7841 51.6801C96.2619 50.6917 96.3601 50.2528 96.3994 48.9957C96.4256 48.066 96.4068 47.8101 96.2825 47.1623C95.955 45.4593 96.0861 43.8933 96.7542 41.5616C96.7869 41.4502 96.8901 41.095 96.9818 40.7741C97.3356 39.5426 97.9857 37.6765 98.6798 35.8625C98.739 35.7106 98.7919 35.5606 98.8439 35.4257C100.839 35.2632 102.856 35.1755 104.894 35.1755ZM59.9611 50.6199C59.9806 50.6527 59.935 50.7193 59.8565 50.7716C59.7844 50.824 59.6525 50.9289 59.5673 51.0075C59.4837 51.091 59.3999 51.1552 59.3787 51.1572C59.359 51.1572 59.2657 51.2357 59.1674 51.3274C59.0763 51.4184 58.9598 51.4773 58.907 51.4586C58.9001 51.456 58.8925 51.4556 58.8865 51.4545C59.243 51.1638 59.6029 50.8772 59.9652 50.5932C59.9559 50.6014 59.9541 50.6106 59.9611 50.6199ZM60.1313 50.503C60.2092 50.555 60.1956 50.5686 60.078 50.5686C60.0387 50.5687 60.0052 50.5706 59.9837 50.5789C60.0254 50.5461 60.0669 50.5131 60.1088 50.4804C60.1161 50.4854 60.1215 50.4969 60.1313 50.503ZM60.6871 50.0436C60.7067 50.0764 60.6936 50.1092 60.6543 50.1092C60.6145 50.1101 60.5174 50.1822 60.4328 50.2733C60.3549 50.3572 60.2429 50.4184 60.1744 50.4291C60.3443 50.2969 60.5138 50.1641 60.685 50.0333C60.6858 50.0365 60.6854 50.0403 60.6871 50.0436ZM60.884 49.9124C60.9036 49.9451 60.8641 49.978 60.7855 49.978C60.7736 49.978 60.7627 49.9804 60.7527 49.9821C60.7962 49.9489 60.8404 49.9167 60.884 49.8836C60.8827 49.8923 60.8785 49.9014 60.884 49.9124ZM61.167 49.6827C61.095 49.7743 60.9959 49.8465 60.9434 49.8467C60.9393 49.8467 60.9349 49.8476 60.9311 49.8488C61.023 49.7792 61.1157 49.7108 61.208 49.6416C61.1939 49.6548 61.1789 49.6675 61.167 49.6827ZM61.4746 49.455C61.493 49.4873 61.4668 49.5184 61.409 49.5186C61.394 49.5186 61.3759 49.5219 61.3577 49.5289C61.3953 49.5008 61.4328 49.4727 61.4705 49.4448C61.4715 49.4477 61.473 49.4519 61.4746 49.455ZM61.6038 49.3463C61.6214 49.3805 61.6097 49.385 61.5505 49.3853C61.5681 49.3722 61.5861 49.3594 61.6038 49.3463Z" fill="currentColor"/>
<path d="M166.938 105.316C166.938 72.1994 139.379 44.9577 104.894 44.9577C70.4088 44.9582 42.8514 72.1997 42.8514 105.316C42.8516 138.432 70.409 165.672 104.894 165.673V175.457L103.042 175.432C64.8464 174.488 34.0599 144.426 33.0918 107.127L33.0692 105.316C33.0692 66.5791 65.226 35.176 104.894 35.1755C144.562 35.1755 176.72 66.5787 176.72 105.316L176.698 107.127C175.714 145.027 143.942 175.457 104.894 175.457V165.673C139.379 165.673 166.938 138.433 166.938 105.316Z" fill="currentColor"/>
</svg>
