<svg width="489" height="82" viewBox="0 0 489 82" fill="none" xmlns="http://www.w3.org/2000/svg">
<path d="M21.1546 65.3471L25.9357 64.201V44.4544C25.9357 43.0791 25.6847 41.9111 25.1825 40.9505C24.6804 39.9899 23.9054 39.2695 22.8575 38.7892C21.8314 38.3089 20.5215 38.0688 18.9278 38.0688C17.2032 38.0688 15.5658 38.3198 14.0158 38.8219C12.4876 39.3241 11.265 39.8808 10.3481 40.492L9.69315 39.7061C11.2868 38.4399 12.6841 37.4029 13.8848 36.5951C15.0855 35.7655 16.1771 35.1215 17.1595 34.6631C18.1419 34.2046 19.0916 33.888 20.0085 33.7134C20.9254 33.5387 21.8969 33.4514 22.923 33.4514C26.0012 33.4514 28.228 34.3028 29.6034 36.0057C30.9788 37.7085 31.6665 40.4156 31.6665 44.127V64.201L36.4476 65.3471V66.2968H21.1546V65.3471ZM15.7841 66.2968H0.523954V65.3471L5.27229 64.201V23.9875C4.98848 23.8128 4.59551 23.5945 4.09339 23.3325C3.59127 23.0706 2.9909 22.7758 2.2923 22.4484C1.61553 22.1209 0.851425 21.7607 0 21.3677V20.7783L10.8393 18.1912H11.1013L11.003 35.056V64.201L15.7841 65.3471V66.2968Z" fill="#10100F"/>
<path d="M59.5455 45.4369L59.9385 47.0415C56.9694 47.9147 54.5571 48.7552 52.7014 49.563C50.8676 50.3708 49.4594 51.1894 48.477 52.019C47.4946 52.8268 46.8178 53.6782 46.4467 54.5733C46.0756 55.4684 45.89 56.4617 45.89 57.5533C45.89 59.3435 46.4139 60.697 47.4619 61.6139C48.5098 62.509 49.7869 62.9566 51.2933 62.9566C52.494 62.9566 53.5528 62.7055 54.4697 62.2034C55.3867 61.7013 56.1071 60.9917 56.631 60.0748C57.1768 59.1361 57.4497 58.0336 57.4497 56.7674V42.4896C57.4497 40.3938 56.9258 38.8001 55.8779 37.7085C54.8518 36.5951 53.2581 36.0384 51.0968 36.0384C50.1362 36.0384 49.1429 36.1258 48.1168 36.3004C47.0907 36.4751 46.2502 36.7261 45.5953 37.0536L47.2981 35.711C47.2326 36.4751 47.1344 37.261 47.0034 38.0688C46.8724 38.8547 46.6978 39.5751 46.4794 40.2301C46.283 40.8632 46.0537 41.3544 45.7917 41.7037C45.4861 42.053 45.0495 42.3259 44.4819 42.5224C43.9142 42.697 43.3357 42.7843 42.7463 42.7843C42.004 42.7843 41.4036 42.6315 40.9452 42.3259C40.4867 41.9984 40.2575 41.5181 40.2575 40.885C40.2575 40.0336 40.6723 39.1712 41.5019 38.298C42.3315 37.4247 43.4012 36.6279 44.7111 35.9074C46.0428 35.187 47.4728 34.6085 49.001 34.1718C50.551 33.7352 52.0465 33.5169 53.4873 33.5169C55.8233 33.5169 57.7008 33.8662 59.1198 34.5648C60.5389 35.2416 61.5649 36.2131 62.1981 37.4793C62.853 38.7237 63.1805 40.2082 63.1805 41.9329V60.3041C63.1805 61.0027 63.2896 61.5703 63.5079 62.0069C63.7263 62.4435 64.0319 62.771 64.4249 62.9893C64.8397 63.1858 65.32 63.2841 65.8657 63.2841C66.5425 63.2841 67.2302 63.1749 67.9288 62.9566C68.6274 62.7164 69.3369 62.3453 70.0574 61.8432V62.8911C68.6165 64.5939 67.2957 65.6964 66.095 66.1985C64.9161 66.7007 63.7263 66.9517 62.5255 66.9517C61.303 66.9517 60.3206 66.6788 59.5783 66.133C58.836 65.5654 58.2902 64.7577 57.9409 63.7098C57.6135 62.6619 57.4279 61.4175 57.3842 59.9766L57.4825 59.9111C57.1332 61.2646 56.5546 62.4763 55.7469 63.546C54.9391 64.5939 53.9567 65.4235 52.7996 66.0348C51.6426 66.6461 50.3763 66.9517 49.001 66.9517C46.4249 66.9517 44.2745 66.264 42.5498 64.8887C40.8251 63.4915 39.9628 61.472 39.9628 58.8304C39.9628 57.4332 40.2029 56.1998 40.6832 55.13C41.1853 54.0384 42.1132 53.0124 43.4667 52.0518C44.8421 51.0694 46.8178 50.0542 49.3939 49.0063C51.9919 47.9584 55.3757 46.7686 59.5455 45.4369Z" fill="#10100F"/>
<path d="M88.2551 33.4514C90.2635 33.4514 91.9009 33.6697 93.1671 34.1064C94.4552 34.5211 95.3939 35.0779 95.9834 35.7765C96.5947 36.4532 96.9003 37.1846 96.9003 37.9705C96.9003 38.6255 96.7584 39.204 96.4746 39.7061C96.2126 40.1864 95.8415 40.5575 95.3612 40.8195C94.8809 41.0815 94.3024 41.2125 93.6256 41.2125C93.3418 41.2125 92.9925 41.016 92.5777 40.623C92.1847 40.2301 91.7263 39.7498 91.2023 39.1822C90.7002 38.6145 90.1435 38.0469 89.5322 37.4793C88.9209 36.8899 88.266 36.3986 87.5674 36.0057C86.8688 35.6127 86.1265 35.4162 85.3406 35.4162C83.8342 35.4162 82.4806 35.8529 81.2799 36.7261C80.0792 37.5994 79.1295 38.942 78.4309 40.754C77.7323 42.5442 77.383 44.8474 77.383 47.6637C77.383 51.0475 77.8196 53.842 78.6929 56.0469C79.5661 58.2301 80.8433 59.8456 82.5243 60.8935C84.2053 61.9196 86.2575 62.4326 88.6808 62.4326C90.2963 62.4326 91.8572 62.0942 93.3636 61.4175C94.87 60.7407 96.158 59.7255 97.2278 58.372L97.7845 58.8632C96.5619 60.828 95.3175 62.4108 94.0513 63.6115C92.7851 64.7904 91.4534 65.6418 90.0561 66.1658C88.6589 66.6898 87.1417 66.9517 85.5043 66.9517C82.8409 66.9517 80.4503 66.3186 78.3327 65.0524C76.215 63.7862 74.5449 61.9523 73.3224 59.5509C72.0998 57.1494 71.4885 54.2458 71.4885 50.8401C71.4885 48.3514 71.8924 46.0481 72.7002 43.9305C73.5079 41.8128 74.6541 39.9681 76.1386 38.3962C77.645 36.8244 79.4133 35.6127 81.4437 34.7613C83.4958 33.888 85.7663 33.4514 88.2551 33.4514Z" fill="#10100F"/>
<path d="M114.682 47.7947L115.861 46.4193L132.3 64.2337L136.066 65.3471V66.2968H120.806V65.3471L125.129 64.332L111.506 49.563H109.443V47.7947H112.095L125.849 36.3004L121.166 35.2525V34.1064H133.61V35.2525L128.928 36.3659L114.682 47.7947ZM110.524 64.201L115.305 65.3471V66.2968H100.045V65.3471L104.793 64.201V23.9875C104.509 23.8128 104.116 23.5945 103.614 23.3325C103.112 23.0706 102.511 22.7758 101.813 22.4484C101.136 22.1209 100.372 21.7607 99.5206 21.3677V20.7783L110.36 18.1912H110.622L110.524 23.529V64.201Z" fill="#10100F"/>
<path d="M157.873 37.5121L156.531 38.036L150.702 36.8899V35.8747L156.956 33.9754L158.528 34.1064H172.118L171.594 37.5121H157.873ZM162.032 64.201L167.436 65.3471V66.2968H151.389V65.3471L156.138 64.201V34.0409C156.138 31.5739 156.564 29.358 157.415 27.3932C158.266 25.4284 159.434 23.7692 160.919 22.4156C162.403 21.0402 164.106 19.9923 166.027 19.2719C167.97 18.5515 170.034 18.1912 172.217 18.1912C173.417 18.1912 174.443 18.3004 175.295 18.5187C176.168 18.7152 176.889 18.9881 177.456 19.3374C178.046 19.6867 178.482 20.1015 178.766 20.5818C179.05 21.0402 179.192 21.5314 179.192 22.0554C179.192 22.8632 178.919 23.5727 178.373 24.184C177.849 24.7953 177.161 25.1009 176.31 25.1009C175.983 25.1009 175.535 24.8826 174.967 24.4459C174.422 23.9875 173.789 23.4744 173.068 22.9068C172.348 22.3174 171.551 21.8043 170.678 21.3677C169.804 20.9311 168.866 20.7128 167.861 20.7128C166.617 20.7128 165.558 20.9966 164.685 21.5642C163.833 22.1318 163.178 23.0269 162.72 24.2495C162.262 25.4502 162.032 27.0111 162.032 28.9323V64.201Z" fill="#10100F"/>
<path d="M188.996 65.2489C191.004 65.2489 192.707 64.7031 194.105 63.6115C195.524 62.4981 196.593 60.8389 197.314 58.634C198.056 56.429 198.427 53.6891 198.427 50.4144C198.427 47.0524 198.067 44.247 197.347 41.9984C196.626 39.7279 195.567 38.0142 194.17 36.8571C192.795 35.7 191.103 35.1215 189.094 35.1215C187.086 35.1215 185.383 35.6782 183.986 36.7916C182.588 37.905 181.519 39.5642 180.776 41.7692C180.056 43.9742 179.696 46.714 179.696 49.9887C179.696 53.3071 180.056 56.1015 180.776 58.372C181.497 60.6424 182.545 62.3562 183.92 63.5133C185.317 64.6703 187.009 65.2489 188.996 65.2489ZM188.898 66.9517C185.994 66.9517 183.363 66.2422 181.006 64.8232C178.648 63.4041 176.77 61.4393 175.373 58.9287C173.998 56.3962 173.31 53.5036 173.31 50.2507C173.31 46.976 174.02 44.0724 175.439 41.54C176.858 39.0075 178.768 37.0318 181.169 35.6127C183.571 34.1718 186.245 33.4514 189.192 33.4514C192.162 33.4514 194.814 34.1609 197.15 35.58C199.508 36.999 201.363 38.9638 202.717 41.4745C204.092 43.9632 204.78 46.8559 204.78 50.1524C204.78 53.4272 204.06 56.3307 202.619 58.8632C201.2 61.3956 199.29 63.3823 196.888 64.8232C194.487 66.2422 191.823 66.9517 188.898 66.9517Z" fill="#10100F"/>
<path d="M229.289 33.5497C230.271 33.5497 231.035 33.8225 231.581 34.3683C232.149 34.8923 232.432 35.6236 232.432 36.5624C232.432 37.6758 232.083 38.5818 231.385 39.2804C230.708 39.9572 229.813 40.2956 228.699 40.2956C228.219 40.2956 227.739 40.2301 227.258 40.0991C226.778 39.9463 226.265 39.8044 225.719 39.6734C225.174 39.5424 224.562 39.4769 223.885 39.4769C223.296 39.4769 222.707 39.586 222.117 39.8044C221.55 40.0008 220.982 40.2846 220.414 40.6558C219.869 41.0269 219.312 41.4526 218.744 41.9329L218.58 40.5903C220.152 39.0403 221.495 37.7959 222.608 36.8571C223.722 35.9184 224.671 35.2198 225.457 34.7613C226.243 34.281 226.942 33.9644 227.553 33.8116C228.164 33.637 228.743 33.5497 229.289 33.5497ZM219.203 39.4441V64.201L224.475 65.3471V66.2968H208.724V65.3471L213.472 64.201V39.6734C213.188 39.455 212.828 39.2258 212.391 38.9857C211.976 38.7237 211.463 38.4181 210.852 38.0688C210.263 37.7195 209.564 37.3156 208.756 36.8571V36.2349L218.875 33.1567H219.137L219.203 39.4441Z" fill="#10100F"/>
<path d="M255.296 27.0985C253.964 27.0985 252.905 26.6509 252.119 25.7558C251.355 24.8607 250.973 23.8456 250.973 22.7103C250.973 21.5533 251.355 20.5709 252.119 19.7631C252.905 18.9335 253.964 18.5187 255.296 18.5187C256.605 18.5187 257.632 18.9335 258.374 19.7631C259.138 20.5709 259.52 21.5533 259.52 22.7103C259.52 23.8456 259.138 24.8607 258.374 25.7558C257.632 26.6509 256.605 27.0985 255.296 27.0985ZM258.669 33.1567L258.636 39.2804V64.201L263.417 65.3471V66.2968H248.157V65.3471L252.905 64.201V39.5751C252.665 39.4005 252.294 39.1603 251.792 38.8547C251.311 38.549 250.755 38.2107 250.122 37.8395C249.51 37.4684 248.866 37.0973 248.189 36.7261V36.0384L258.439 33.1567H258.669Z" fill="#10100F"/>
<path d="M276.51 39.4441V64.201L281.226 65.3471V66.2968H266.031V65.3471L270.779 64.201V39.6734C270.43 39.4114 269.928 39.0839 269.273 38.6909C268.618 38.298 267.548 37.6867 266.064 36.8571V36.2349L276.019 33.1567H276.281L276.51 39.4441ZM295.864 42.9808V64.201L300.547 65.3471V66.2968H285.417V65.3471L290.133 64.201V43.9632C290.133 42.6534 289.893 41.5618 289.412 40.6885C288.932 39.8153 288.212 39.1603 287.251 38.7237C286.312 38.2871 285.112 38.0688 283.649 38.0688C282.121 38.0688 280.636 38.298 279.195 38.7564C277.776 39.2149 276.641 39.7279 275.79 40.2956L275.2 39.3459C276.685 38.1452 277.995 37.1628 279.13 36.3987C280.265 35.6346 281.291 35.0342 282.208 34.5976C283.125 34.1609 284.009 33.8662 284.861 33.7134C285.734 33.5387 286.651 33.4514 287.611 33.4514C289.576 33.4514 291.159 33.8116 292.36 34.5321C293.56 35.2525 294.445 36.3222 295.012 37.7413C295.58 39.1385 295.864 40.885 295.864 42.9808ZM315.217 43.4393V64.201L319.998 65.3471V66.2968H304.771V65.3471L309.486 64.201V43.9632C309.486 42.6534 309.246 41.5618 308.766 40.6885C308.286 39.8153 307.565 39.1603 306.605 38.7237C305.666 38.2871 304.465 38.0688 303.003 38.0688C301.474 38.0688 299.99 38.298 298.549 38.7564C297.13 39.2149 295.995 39.7279 295.143 40.2956L294.554 39.3459C296.038 38.1452 297.348 37.1628 298.483 36.3987C299.619 35.6346 300.645 35.0342 301.562 34.5976C302.479 34.1609 303.363 33.8662 304.214 33.7134C305.087 33.5387 306.004 33.4514 306.965 33.4514C309.89 33.4514 311.997 34.2592 313.285 35.8747C314.573 37.4902 315.217 40.0118 315.217 43.4393Z" fill="#10100F"/>
<path d="M350.28 50.9711C350.28 46.5393 349.417 43.221 347.693 41.016C345.968 38.811 343.468 37.7085 340.194 37.7085C338.971 37.7085 337.792 37.8395 336.657 38.1015C335.544 38.3635 334.474 38.7783 333.448 39.3459C332.422 39.9135 331.439 40.6776 330.5 41.6382L330.107 40.5903C331.505 39.2149 332.804 38.0688 334.004 37.1518C335.205 36.2349 336.329 35.5036 337.377 34.9578C338.425 34.412 339.419 34.0299 340.357 33.8116C341.296 33.5715 342.191 33.4514 343.043 33.4514C345.881 33.4514 348.293 34.0845 350.28 35.3507C352.288 36.617 353.816 38.3853 354.864 40.6558C355.934 42.9262 356.469 45.5788 356.469 48.6133C356.469 52.4338 355.727 55.7195 354.242 58.4702C352.758 61.1991 350.705 63.295 348.086 64.7577C345.488 66.2204 342.519 66.9517 339.178 66.9517C337.978 66.9517 336.755 66.8535 335.511 66.657C334.266 66.4824 333.033 66.2095 331.81 65.8383C330.61 65.4454 329.463 64.9432 328.372 64.332H332.367V79.2974L337.77 80.4108V81.3605H321.888V80.4108L326.636 79.2974V39.6734C326.352 39.455 325.992 39.2258 325.556 38.9857C325.141 38.7237 324.628 38.4181 324.017 38.0688C323.427 37.7195 322.728 37.3156 321.921 36.8571V36.2349L331.876 33.1567H332.138L332.367 38.1997V57.979C332.367 59.3544 332.716 60.5879 333.415 61.6794C334.114 62.7492 335.074 63.5897 336.297 64.201C337.541 64.8122 338.938 65.1179 340.488 65.1179C342.562 65.1179 344.331 64.5721 345.793 63.4805C347.256 62.3671 348.369 60.7516 349.134 58.634C349.898 56.5163 350.28 53.962 350.28 50.9711Z" fill="#10100F"/>
<path d="M381.261 45.4369L381.653 47.0415C378.684 47.9147 376.272 48.7552 374.416 49.563C372.583 50.3708 371.174 51.1894 370.192 52.019C369.21 52.8268 368.533 53.6782 368.162 54.5733C367.791 55.4684 367.605 56.4617 367.605 57.5533C367.605 59.3435 368.129 60.697 369.177 61.6139C370.225 62.509 371.502 62.9566 373.008 62.9566C374.209 62.9566 375.268 62.7055 376.185 62.2034C377.102 61.7013 377.822 60.9917 378.346 60.0748C378.892 59.1361 379.165 58.0336 379.165 56.7674V42.4896C379.165 40.3938 378.641 38.8001 377.593 37.7085C376.567 36.5951 374.973 36.0384 372.812 36.0384C371.851 36.0384 370.858 36.1258 369.832 36.3004C368.806 36.4751 367.965 36.7261 367.31 37.0536L369.013 35.711C368.948 36.4751 368.849 37.261 368.718 38.0688C368.587 38.8547 368.413 39.5751 368.194 40.2301C367.998 40.8632 367.769 41.3544 367.507 41.7037C367.201 42.053 366.764 42.3259 366.197 42.5224C365.629 42.697 365.051 42.7843 364.461 42.7843C363.719 42.7843 363.119 42.6315 362.66 42.3259C362.202 41.9984 361.972 41.5181 361.972 40.885C361.972 40.0336 362.387 39.1712 363.217 38.298C364.046 37.4247 365.116 36.6279 366.426 35.9074C367.758 35.187 369.188 34.6085 370.716 34.1718C372.266 33.7352 373.761 33.5169 375.202 33.5169C377.538 33.5169 379.416 33.8662 380.835 34.5648C382.254 35.2416 383.28 36.2131 383.913 37.4793C384.568 38.7237 384.895 40.2082 384.895 41.9329V60.3041C384.895 61.0027 385.005 61.5703 385.223 62.0069C385.441 62.4435 385.747 62.771 386.14 62.9893C386.555 63.1858 387.035 63.2841 387.581 63.2841C388.258 63.2841 388.945 63.1749 389.644 62.9566C390.342 62.7164 391.052 62.3453 391.772 61.8432V62.8911C390.331 64.5939 389.011 65.6964 387.81 66.1985C386.631 66.7007 385.441 66.9517 384.241 66.9517C383.018 66.9517 382.036 66.6788 381.293 66.133C380.551 65.5654 380.005 64.7577 379.656 63.7098C379.328 62.6619 379.143 61.4175 379.099 59.9766L379.197 59.9111C378.848 61.2646 378.27 62.4763 377.462 63.546C376.654 64.5939 375.672 65.4235 374.515 66.0348C373.358 66.6461 372.091 66.9517 370.716 66.9517C368.14 66.9517 365.989 66.264 364.265 64.8887C362.54 63.4915 361.678 61.472 361.678 58.8304C361.678 57.4332 361.918 56.1998 362.398 55.13C362.9 54.0384 363.828 53.0124 365.182 52.0518C366.557 51.0694 368.533 50.0542 371.109 49.0063C373.707 47.9584 377.091 46.7686 381.261 45.4369Z" fill="#10100F"/>
<path d="M409.97 33.4514C411.979 33.4514 413.616 33.6697 414.882 34.1064C416.17 34.5211 417.109 35.0779 417.698 35.7765C418.31 36.4532 418.615 37.1846 418.615 37.9705C418.615 38.6255 418.473 39.204 418.19 39.7061C417.928 40.1864 417.556 40.5575 417.076 40.8195C416.596 41.0815 416.017 41.2125 415.341 41.2125C415.057 41.2125 414.707 41.016 414.293 40.623C413.9 40.2301 413.441 39.7498 412.917 39.1822C412.415 38.6145 411.858 38.0469 411.247 37.4793C410.636 36.8899 409.981 36.3986 409.282 36.0057C408.584 35.6127 407.841 35.4162 407.056 35.4162C405.549 35.4162 404.196 35.8529 402.995 36.7261C401.794 37.5994 400.844 38.942 400.146 40.754C399.447 42.5442 399.098 44.8474 399.098 47.6637C399.098 51.0475 399.535 53.842 400.408 56.0469C401.281 58.2301 402.558 59.8456 404.239 60.8935C405.92 61.9196 407.972 62.4326 410.396 62.4326C412.011 62.4326 413.572 62.0942 415.079 61.4175C416.585 60.7407 417.873 59.7255 418.943 58.372L419.499 58.8632C418.277 60.828 417.032 62.4108 415.766 63.6115C414.5 64.7904 413.168 65.6418 411.771 66.1658C410.374 66.6898 408.857 66.9517 407.219 66.9517C404.556 66.9517 402.165 66.3186 400.048 65.0524C397.93 63.7862 396.26 61.9523 395.037 59.5509C393.815 57.1494 393.203 54.2458 393.203 50.8401C393.203 48.3514 393.607 46.0481 394.415 43.9305C395.223 41.8128 396.369 39.9681 397.854 38.3962C399.36 36.8244 401.128 35.6127 403.159 34.7613C405.211 33.888 407.481 33.4514 409.97 33.4514Z" fill="#10100F"/>
<path d="M431.878 57.8808C431.878 59.4745 432.37 60.6752 433.352 61.483C434.356 62.2689 435.677 62.6619 437.314 62.6619C438.231 62.6619 439.192 62.5745 440.196 62.3999C441.222 62.2252 442.39 61.9414 443.7 61.5485V62.6291C441.844 63.7425 440.327 64.6158 439.148 65.2489C437.969 65.882 436.943 66.3186 436.07 66.5588C435.219 66.8207 434.324 66.9517 433.385 66.9517C432.097 66.9517 430.907 66.6788 429.815 66.133C428.724 65.5654 427.84 64.6813 427.163 63.4805C426.486 62.2798 426.148 60.7189 426.148 58.7977V38.3307L422.152 35.8092V35.318C422.436 35.1215 422.797 34.8814 423.233 34.5976C423.67 34.2919 424.172 33.9426 424.74 33.5497C425.329 33.1567 425.973 32.731 426.672 32.2725C427.37 31.7922 428.112 31.2901 428.898 30.7661C429.706 30.2204 430.547 29.6527 431.42 29.0633H431.878V57.8808ZM429.914 37.5121V34.1064H442.783L442.259 37.5121H429.914Z" fill="#10100F"/>
<path d="M484.028 0C486.774 0 489 2.22616 489 4.97226V66.2968H487.072V64.225C486.822 56.5238 485.186 48.92 482.229 41.7808C479.007 34.0017 474.278 26.9208 468.305 20.9476C462.331 14.9739 455.229 10.2265 447.403 6.98469C440.159 3.98448 432.43 2.3319 424.597 2.10199H422.703V0H484.028Z" fill="#10100F"/>
</svg>
